<?xml version="1.0" encoding="utf-8" standalone="no"?>
<!DOCTYPE svg PUBLIC "-//W3C//DTD SVG 1.1//EN"
  "http://www.w3.org/Graphics/SVG/1.1/DTD/svg11.dtd">
<svg xmlns:xlink="http://www.w3.org/1999/xlink" width="1008pt" height="432pt" viewBox="0 0 1008 432" xmlns="http://www.w3.org/2000/svg" version="1.1">
 <metadata>
  <rdf:RDF xmlns:dc="http://purl.org/dc/elements/1.1/" xmlns:cc="http://creativecommons.org/ns#" xmlns:rdf="http://www.w3.org/1999/02/22-rdf-syntax-ns#">
   <cc:Work>
    <dc:type rdf:resource="http://purl.org/dc/dcmitype/StillImage"/>
    <dc:date>2026-01-14T22:32:00.560755</dc:date>
    <dc:format>image/svg+xml</dc:format>
    <dc:creator>
     <cc:Agent>
      <dc:title>Matplotlib v3.10.8, https://matplotlib.org/</dc:title>
     </cc:Agent>
    </dc:creator>
   </cc:Work>
  </rdf:RDF>
 </metadata>
 <defs>
  <style type="text/css">*{stroke-linejoin: round; stroke-linecap: butt}</style>
 </defs>
 <g id="figure_1">
  <g id="patch_1">
   <path d="M 0 432 
L 1008 432 
L 1008 0 
L 0 0 
z
" style="fill: #ffffff"/>
  </g>
  <g id="axes_1">
   <g id="patch_2">
    <path d="M 50.092685 352.405938 
L 997.2 352.405938 
L 997.2 26.88 
L 50.092685 26.88 
z
" style="fill: #ffffff"/>
   </g>
   <g id="patch_3">
    <path d="M 93.143017 215581.106192 
L 112.936274 215581.106192 
L 112.936274 53.726569 
L 93.143017 53.726569 
z
" clip-path="url(#p488aebc4de)" style="fill: #1f77b4"/>
   </g>
   <g id="patch_4">
    <path d="M 241.59244 215581.106192 
L 261.385696 215581.106192 
L 261.385696 86.959014 
L 241.59244 86.959014 
z
" clip-path="url(#p488aebc4de)" style="fill: #1f77b4"/>
   </g>
   <g id="patch_5">
    <path d="M 390.041862 215581.106192 
L 409.835119 215581.106192 
L 409.835119 166.691063 
L 390.041862 166.691063 
z
" clip-path="url(#p488aebc4de)" style="fill: #1f77b4"/>
   </g>
   <g id="patch_6">
    <path d="M 538.491285 215581.106192 
L 558.284541 215581.106192 
L 558.284541 337.609305 
L 538.491285 337.609305 
z
" clip-path="url(#p488aebc4de)" style="fill: #1f77b4"/>
   </g>
   <g id="patch_7">
    <path d="M 686.940707 215581.106192 
L 706.733963 215581.106192 
L 706.733963 41.676634 
L 686.940707 41.676634 
z
" clip-path="url(#p488aebc4de)" style="fill: #1f77b4"/>
   </g>
   <g id="patch_8">
    <path d="M 835.39013 215581.106192 
L 855.183386 215581.106192 
L 855.183386 100.771683 
L 835.39013 100.771683 
z
" clip-path="url(#p488aebc4de)" style="fill: #1f77b4"/>
   </g>
   <g id="patch_9">
    <path d="M 112.936274 215581.106192 
L 132.72953 215581.106192 
L 132.72953 53.085751 
L 112.936274 53.085751 
z
" clip-path="url(#p488aebc4de)" style="fill: #ff7f0e"/>
   </g>
   <g id="patch_10">
    <path d="M 261.385696 215581.106192 
L 281.178952 215581.106192 
L 281.178952 86.501512 
L 261.385696 86.501512 
z
" clip-path="url(#p488aebc4de)" style="fill: #ff7f0e"/>
   </g>
   <g id="patch_11">
    <path d="M 409.835119 215581.106192 
L 429.628375 215581.106192 
L 429.628375 167.772681 
L 409.835119 167.772681 
z
" clip-path="url(#p488aebc4de)" style="fill: #ff7f0e"/>
   </g>
   <g id="patch_12">
    <path d="M 558.284541 215581.106192 
L 578.077797 215581.106192 
L 578.077797 337.609305 
L 558.284541 337.609305 
z
" clip-path="url(#p488aebc4de)" style="fill: #ff7f0e"/>
   </g>
   <g id="patch_13">
    <path d="M 706.733963 215581.106192 
L 726.52722 215581.106192 
L 726.52722 43.965652 
L 706.733963 43.965652 
z
" clip-path="url(#p488aebc4de)" style="fill: #ff7f0e"/>
   </g>
   <g id="patch_14">
    <path d="M 855.183386 215581.106192 
L 874.976642 215581.106192 
L 874.976642 103.468093 
L 855.183386 103.468093 
z
" clip-path="url(#p488aebc4de)" style="fill: #ff7f0e"/>
   </g>
   <g id="patch_15">
    <path d="M 132.72953 215581.106192 
L 152.522786 215581.106192 
L 152.522786 52.449294 
L 132.72953 52.449294 
z
" clip-path="url(#p488aebc4de)" style="fill: #2ca02c"/>
   </g>
   <g id="patch_16">
    <path d="M 281.178952 215581.106192 
L 300.972209 215581.106192 
L 300.972209 86.501512 
L 281.178952 86.501512 
z
" clip-path="url(#p488aebc4de)" style="fill: #2ca02c"/>
   </g>
   <g id="patch_17">
    <path d="M 429.628375 215581.106192 
L 449.421631 215581.106192 
L 449.421631 169.97417 
L 429.628375 169.97417 
z
" clip-path="url(#p488aebc4de)" style="fill: #2ca02c"/>
   </g>
   <g id="patch_18">
    <path d="M 578.077797 215581.106192 
L 597.871054 215581.106192 
L 597.871054 337.609305 
L 578.077797 337.609305 
z
" clip-path="url(#p488aebc4de)" style="fill: #2ca02c"/>
   </g>
   <g id="patch_19">
    <path d="M 726.52722 215581.106192 
L 746.320476 215581.106192 
L 746.320476 42.814142 
L 726.52722 42.814142 
z
" clip-path="url(#p488aebc4de)" style="fill: #2ca02c"/>
   </g>
   <g id="patch_20">
    <path d="M 874.976642 215581.106192 
L 894.769899 215581.106192 
L 894.769899 103.468093 
L 874.976642 103.468093 
z
" clip-path="url(#p488aebc4de)" style="fill: #2ca02c"/>
   </g>
   <g id="patch_21">
    <path d="M 152.522786 215581.106192 
L 172.316043 215581.106192 
L 172.316043 52.449294 
L 152.522786 52.449294 
z
" clip-path="url(#p488aebc4de)" style="fill: #d62728"/>
   </g>
   <g id="patch_22">
    <path d="M 300.972209 215581.106192 
L 320.765465 215581.106192 
L 320.765465 86.501512 
L 300.972209 86.501512 
z
" clip-path="url(#p488aebc4de)" style="fill: #d62728"/>
   </g>
   <g id="patch_23">
    <path d="M 449.421631 215581.106192 
L 469.214887 215581.106192 
L 469.214887 169.97417 
L 449.421631 169.97417 
z
" clip-path="url(#p488aebc4de)" style="fill: #d62728"/>
   </g>
   <g id="patch_24">
    <path d="M 597.871054 215581.106192 
L 617.66431 215581.106192 
L 617.66431 337.609305 
L 597.871054 337.609305 
z
" clip-path="url(#p488aebc4de)" style="fill: #d62728"/>
   </g>
   <g id="patch_25">
    <path d="M 746.320476 215581.106192 
L 766.113732 215581.106192 
L 766.113732 43.965652 
L 746.320476 43.965652 
z
" clip-path="url(#p488aebc4de)" style="fill: #d62728"/>
   </g>
   <g id="patch_26">
    <path d="M 894.769899 215581.106192 
L 914.563155 215581.106192 
L 914.563155 103.468093 
L 894.769899 103.468093 
z
" clip-path="url(#p488aebc4de)" style="fill: #d62728"/>
   </g>
   <g id="patch_27">
    <path d="M 172.316043 215581.106192 
L 192.109299 215581.106192 
L 192.109299 53.085751 
L 172.316043 53.085751 
z
" clip-path="url(#p488aebc4de)" style="fill: #9467bd"/>
   </g>
   <g id="patch_28">
    <path d="M 320.765465 215581.106192 
L 340.558721 215581.106192 
L 340.558721 87.418764 
L 320.765465 87.418764 
z
" clip-path="url(#p488aebc4de)" style="fill: #9467bd"/>
   </g>
   <g id="patch_29">
    <path d="M 469.214887 215581.106192 
L 489.008144 215581.106192 
L 489.008144 168.86695 
L 469.214887 168.86695 
z
" clip-path="url(#p488aebc4de)" style="fill: #9467bd"/>
   </g>
   <g id="patch_30">
    <path d="M 617.66431 215581.106192 
L 637.457566 215581.106192 
L 637.457566 337.609305 
L 617.66431 337.609305 
z
" clip-path="url(#p488aebc4de)" style="fill: #9467bd"/>
   </g>
   <g id="patch_31">
    <path d="M 766.113732 215581.106192 
L 785.906989 215581.106192 
L 785.906989 43.676443 
L 766.113732 43.676443 
z
" clip-path="url(#p488aebc4de)" style="fill: #9467bd"/>
   </g>
   <g id="patch_32">
    <path d="M 914.563155 215581.106192 
L 934.356411 215581.106192 
L 934.356411 104.016828 
L 914.563155 104.016828 
z
" clip-path="url(#p488aebc4de)" style="fill: #9467bd"/>
   </g>
   <g id="patch_33">
    <path d="M 192.109299 215581.106192 
L 211.902555 215581.106192 
L 211.902555 52.132681 
L 192.109299 52.132681 
z
" clip-path="url(#p488aebc4de)" style="fill: #8c564b"/>
   </g>
   <g id="patch_34">
    <path d="M 340.558721 215581.106192 
L 360.351978 215581.106192 
L 360.351978 87.418764 
L 340.558721 87.418764 
z
" clip-path="url(#p488aebc4de)" style="fill: #8c564b"/>
   </g>
   <g id="patch_35">
    <path d="M 489.008144 215581.106192 
L 508.8014 215581.106192 
L 508.8014 168.86695 
L 489.008144 168.86695 
z
" clip-path="url(#p488aebc4de)" style="fill: #8c564b"/>
   </g>
   <g id="patch_36">
    <path d="M 637.457566 215581.106192 
L 657.250823 215581.106192 
L 657.250823 337.609305 
L 637.457566 337.609305 
z
" clip-path="url(#p488aebc4de)" style="fill: #8c564b"/>
   </g>
   <g id="patch_37">
    <path d="M 785.906989 215581.106192 
L 805.700245 215581.106192 
L 805.700245 43.388126 
L 785.906989 43.388126 
z
" clip-path="url(#p488aebc4de)" style="fill: #8c564b"/>
   </g>
   <g id="patch_38">
    <path d="M 934.356411 215581.106192 
L 954.149667 215581.106192 
L 954.149667 102.922558 
L 934.356411 102.922558 
z
" clip-path="url(#p488aebc4de)" style="fill: #8c564b"/>
   </g>
   <g id="matplotlib.axis_1">
    <g id="xtick_1">
     <g id="line2d_1">
      <defs>
       <path id="m1f7701bb8b" d="M 0 0 
L 0 3.5 
" style="stroke: #000000; stroke-width: 0.8"/>
      </defs>
      <g>
       <use xlink:href="#m1f7701bb8b" x="162.419414" y="352.405938" style="stroke: #000000; stroke-width: 0.8"/>
      </g>
     </g>
     <g id="text_1">
      <!-- alloc-test1 -->
      <g transform="translate(123.843425 401.884273) rotate(-45) scale(0.1 -0.1)">
       <defs>
        <path id="DejaVuSans-61" d="M 2194 1759 
Q 1497 1759 1228 1600 
Q 959 1441 959 1056 
Q 959 750 1161 570 
Q 1363 391 1709 391 
Q 2188 391 2477 730 
Q 2766 1069 2766 1631 
L 2766 1759 
L 2194 1759 
z
M 3341 1997 
L 3341 0 
L 2766 0 
L 2766 531 
Q 2569 213 2275 61 
Q 1981 -91 1556 -91 
Q 1019 -91 701 211 
Q 384 513 384 1019 
Q 384 1609 779 1909 
Q 1175 2209 1959 2209 
L 2766 2209 
L 2766 2266 
Q 2766 2663 2505 2880 
Q 2244 3097 1772 3097 
Q 1472 3097 1187 3025 
Q 903 2953 641 2809 
L 641 3341 
Q 956 3463 1253 3523 
Q 1550 3584 1831 3584 
Q 2591 3584 2966 3190 
Q 3341 2797 3341 1997 
z
" transform="scale(0.015625)"/>
        <path id="DejaVuSans-6c" d="M 603 4863 
L 1178 4863 
L 1178 0 
L 603 0 
L 603 4863 
z
" transform="scale(0.015625)"/>
        <path id="DejaVuSans-6f" d="M 1959 3097 
Q 1497 3097 1228 2736 
Q 959 2375 959 1747 
Q 959 1119 1226 758 
Q 1494 397 1959 397 
Q 2419 397 2687 759 
Q 2956 1122 2956 1747 
Q 2956 2369 2687 2733 
Q 2419 3097 1959 3097 
z
M 1959 3584 
Q 2709 3584 3137 3096 
Q 3566 2609 3566 1747 
Q 3566 888 3137 398 
Q 2709 -91 1959 -91 
Q 1206 -91 779 398 
Q 353 888 353 1747 
Q 353 2609 779 3096 
Q 1206 3584 1959 3584 
z
" transform="scale(0.015625)"/>
        <path id="DejaVuSans-63" d="M 3122 3366 
L 3122 2828 
Q 2878 2963 2633 3030 
Q 2388 3097 2138 3097 
Q 1578 3097 1268 2742 
Q 959 2388 959 1747 
Q 959 1106 1268 751 
Q 1578 397 2138 397 
Q 2388 397 2633 464 
Q 2878 531 3122 666 
L 3122 134 
Q 2881 22 2623 -34 
Q 2366 -91 2075 -91 
Q 1284 -91 818 406 
Q 353 903 353 1747 
Q 353 2603 823 3093 
Q 1294 3584 2113 3584 
Q 2378 3584 2631 3529 
Q 2884 3475 3122 3366 
z
" transform="scale(0.015625)"/>
        <path id="DejaVuSans-2d" d="M 313 2009 
L 1997 2009 
L 1997 1497 
L 313 1497 
L 313 2009 
z
" transform="scale(0.015625)"/>
        <path id="DejaVuSans-74" d="M 1172 4494 
L 1172 3500 
L 2356 3500 
L 2356 3053 
L 1172 3053 
L 1172 1153 
Q 1172 725 1289 603 
Q 1406 481 1766 481 
L 2356 481 
L 2356 0 
L 1766 0 
Q 1100 0 847 248 
Q 594 497 594 1153 
L 594 3053 
L 172 3053 
L 172 3500 
L 594 3500 
L 594 4494 
L 1172 4494 
z
" transform="scale(0.015625)"/>
        <path id="DejaVuSans-65" d="M 3597 1894 
L 3597 1613 
L 953 1613 
Q 991 1019 1311 708 
Q 1631 397 2203 397 
Q 2534 397 2845 478 
Q 3156 559 3463 722 
L 3463 178 
Q 3153 47 2828 -22 
Q 2503 -91 2169 -91 
Q 1331 -91 842 396 
Q 353 884 353 1716 
Q 353 2575 817 3079 
Q 1281 3584 2069 3584 
Q 2775 3584 3186 3129 
Q 3597 2675 3597 1894 
z
M 3022 2063 
Q 3016 2534 2758 2815 
Q 2500 3097 2075 3097 
Q 1594 3097 1305 2825 
Q 1016 2553 972 2059 
L 3022 2063 
z
" transform="scale(0.015625)"/>
        <path id="DejaVuSans-73" d="M 2834 3397 
L 2834 2853 
Q 2591 2978 2328 3040 
Q 2066 3103 1784 3103 
Q 1356 3103 1142 2972 
Q 928 2841 928 2578 
Q 928 2378 1081 2264 
Q 1234 2150 1697 2047 
L 1894 2003 
Q 2506 1872 2764 1633 
Q 3022 1394 3022 966 
Q 3022 478 2636 193 
Q 2250 -91 1575 -91 
Q 1294 -91 989 -36 
Q 684 19 347 128 
L 347 722 
Q 666 556 975 473 
Q 1284 391 1588 391 
Q 1994 391 2212 530 
Q 2431 669 2431 922 
Q 2431 1156 2273 1281 
Q 2116 1406 1581 1522 
L 1381 1569 
Q 847 1681 609 1914 
Q 372 2147 372 2553 
Q 372 3047 722 3315 
Q 1072 3584 1716 3584 
Q 2034 3584 2315 3537 
Q 2597 3491 2834 3397 
z
" transform="scale(0.015625)"/>
        <path id="DejaVuSans-31" d="M 794 531 
L 1825 531 
L 1825 4091 
L 703 3866 
L 703 4441 
L 1819 4666 
L 2450 4666 
L 2450 531 
L 3481 531 
L 3481 0 
L 794 0 
L 794 531 
z
" transform="scale(0.015625)"/>
       </defs>
       <use xlink:href="#DejaVuSans-61"/>
       <use xlink:href="#DejaVuSans-6c" transform="translate(61.279297 0)"/>
       <use xlink:href="#DejaVuSans-6c" transform="translate(89.0625 0)"/>
       <use xlink:href="#DejaVuSans-6f" transform="translate(116.845703 0)"/>
       <use xlink:href="#DejaVuSans-63" transform="translate(178.027344 0)"/>
       <use xlink:href="#DejaVuSans-2d" transform="translate(233.007812 0)"/>
       <use xlink:href="#DejaVuSans-74" transform="translate(269.091797 0)"/>
       <use xlink:href="#DejaVuSans-65" transform="translate(308.300781 0)"/>
       <use xlink:href="#DejaVuSans-73" transform="translate(369.824219 0)"/>
       <use xlink:href="#DejaVuSans-74" transform="translate(421.923828 0)"/>
       <use xlink:href="#DejaVuSans-31" transform="translate(461.132812 0)"/>
      </g>
     </g>
    </g>
    <g id="xtick_2">
     <g id="line2d_2">
      <g>
       <use xlink:href="#m1f7701bb8b" x="310.868837" y="352.405938" style="stroke: #000000; stroke-width: 0.8"/>
      </g>
     </g>
     <g id="text_2">
      <!-- barnes -->
      <g transform="translate(285.277096 388.900025) rotate(-45) scale(0.1 -0.1)">
       <defs>
        <path id="DejaVuSans-62" d="M 3116 1747 
Q 3116 2381 2855 2742 
Q 2594 3103 2138 3103 
Q 1681 3103 1420 2742 
Q 1159 2381 1159 1747 
Q 1159 1113 1420 752 
Q 1681 391 2138 391 
Q 2594 391 2855 752 
Q 3116 1113 3116 1747 
z
M 1159 2969 
Q 1341 3281 1617 3432 
Q 1894 3584 2278 3584 
Q 2916 3584 3314 3078 
Q 3713 2572 3713 1747 
Q 3713 922 3314 415 
Q 2916 -91 2278 -91 
Q 1894 -91 1617 61 
Q 1341 213 1159 525 
L 1159 0 
L 581 0 
L 581 4863 
L 1159 4863 
L 1159 2969 
z
" transform="scale(0.015625)"/>
        <path id="DejaVuSans-72" d="M 2631 2963 
Q 2534 3019 2420 3045 
Q 2306 3072 2169 3072 
Q 1681 3072 1420 2755 
Q 1159 2438 1159 1844 
L 1159 0 
L 581 0 
L 581 3500 
L 1159 3500 
L 1159 2956 
Q 1341 3275 1631 3429 
Q 1922 3584 2338 3584 
Q 2397 3584 2469 3576 
Q 2541 3569 2628 3553 
L 2631 2963 
z
" transform="scale(0.015625)"/>
        <path id="DejaVuSans-6e" d="M 3513 2113 
L 3513 0 
L 2938 0 
L 2938 2094 
Q 2938 2591 2744 2837 
Q 2550 3084 2163 3084 
Q 1697 3084 1428 2787 
Q 1159 2491 1159 1978 
L 1159 0 
L 581 0 
L 581 3500 
L 1159 3500 
L 1159 2956 
Q 1366 3272 1645 3428 
Q 1925 3584 2291 3584 
Q 2894 3584 3203 3211 
Q 3513 2838 3513 2113 
z
" transform="scale(0.015625)"/>
       </defs>
       <use xlink:href="#DejaVuSans-62"/>
       <use xlink:href="#DejaVuSans-61" transform="translate(63.476562 0)"/>
       <use xlink:href="#DejaVuSans-72" transform="translate(124.755859 0)"/>
       <use xlink:href="#DejaVuSans-6e" transform="translate(164.119141 0)"/>
       <use xlink:href="#DejaVuSans-65" transform="translate(227.498047 0)"/>
       <use xlink:href="#DejaVuSans-73" transform="translate(289.021484 0)"/>
      </g>
     </g>
    </g>
    <g id="xtick_3">
     <g id="line2d_3">
      <g>
       <use xlink:href="#m1f7701bb8b" x="459.318259" y="352.405938" style="stroke: #000000; stroke-width: 0.8"/>
      </g>
     </g>
     <g id="text_3">
      <!-- cache-scratch1 -->
      <g transform="translate(403.903185 418.723358) rotate(-45) scale(0.1 -0.1)">
       <defs>
        <path id="DejaVuSans-68" d="M 3513 2113 
L 3513 0 
L 2938 0 
L 2938 2094 
Q 2938 2591 2744 2837 
Q 2550 3084 2163 3084 
Q 1697 3084 1428 2787 
Q 1159 2491 1159 1978 
L 1159 0 
L 581 0 
L 581 4863 
L 1159 4863 
L 1159 2956 
Q 1366 3272 1645 3428 
Q 1925 3584 2291 3584 
Q 2894 3584 3203 3211 
Q 3513 2838 3513 2113 
z
" transform="scale(0.015625)"/>
       </defs>
       <use xlink:href="#DejaVuSans-63"/>
       <use xlink:href="#DejaVuSans-61" transform="translate(54.980469 0)"/>
       <use xlink:href="#DejaVuSans-63" transform="translate(116.259766 0)"/>
       <use xlink:href="#DejaVuSans-68" transform="translate(171.240234 0)"/>
       <use xlink:href="#DejaVuSans-65" transform="translate(234.619141 0)"/>
       <use xlink:href="#DejaVuSans-2d" transform="translate(296.142578 0)"/>
       <use xlink:href="#DejaVuSans-73" transform="translate(332.226562 0)"/>
       <use xlink:href="#DejaVuSans-63" transform="translate(384.326172 0)"/>
       <use xlink:href="#DejaVuSans-72" transform="translate(439.306641 0)"/>
       <use xlink:href="#DejaVuSans-61" transform="translate(480.419922 0)"/>
       <use xlink:href="#DejaVuSans-74" transform="translate(541.699219 0)"/>
       <use xlink:href="#DejaVuSans-63" transform="translate(580.908203 0)"/>
       <use xlink:href="#DejaVuSans-68" transform="translate(635.888672 0)"/>
       <use xlink:href="#DejaVuSans-31" transform="translate(699.267578 0)"/>
      </g>
     </g>
    </g>
    <g id="xtick_4">
     <g id="line2d_4">
      <g>
       <use xlink:href="#m1f7701bb8b" x="607.767682" y="352.405938" style="stroke: #000000; stroke-width: 0.8"/>
      </g>
     </g>
     <g id="text_4">
      <!-- cache-scratchN -->
      <g transform="translate(551.561532 419.514434) rotate(-45) scale(0.1 -0.1)">
       <defs>
        <path id="DejaVuSans-4e" d="M 628 4666 
L 1478 4666 
L 3547 763 
L 3547 4666 
L 4159 4666 
L 4159 0 
L 3309 0 
L 1241 3903 
L 1241 0 
L 628 0 
L 628 4666 
z
" transform="scale(0.015625)"/>
       </defs>
       <use xlink:href="#DejaVuSans-63"/>
       <use xlink:href="#DejaVuSans-61" transform="translate(54.980469 0)"/>
       <use xlink:href="#DejaVuSans-63" transform="translate(116.259766 0)"/>
       <use xlink:href="#DejaVuSans-68" transform="translate(171.240234 0)"/>
       <use xlink:href="#DejaVuSans-65" transform="translate(234.619141 0)"/>
       <use xlink:href="#DejaVuSans-2d" transform="translate(296.142578 0)"/>
       <use xlink:href="#DejaVuSans-73" transform="translate(332.226562 0)"/>
       <use xlink:href="#DejaVuSans-63" transform="translate(384.326172 0)"/>
       <use xlink:href="#DejaVuSans-72" transform="translate(439.306641 0)"/>
       <use xlink:href="#DejaVuSans-61" transform="translate(480.419922 0)"/>
       <use xlink:href="#DejaVuSans-74" transform="translate(541.699219 0)"/>
       <use xlink:href="#DejaVuSans-63" transform="translate(580.908203 0)"/>
       <use xlink:href="#DejaVuSans-68" transform="translate(635.888672 0)"/>
       <use xlink:href="#DejaVuSans-4e" transform="translate(699.267578 0)"/>
      </g>
     </g>
    </g>
    <g id="xtick_5">
     <g id="line2d_5">
      <g>
       <use xlink:href="#m1f7701bb8b" x="756.217104" y="352.405938" style="stroke: #000000; stroke-width: 0.8"/>
      </g>
     </g>
     <g id="text_5">
      <!-- cfrac -->
      <g transform="translate(737.241231 382.284157) rotate(-45) scale(0.1 -0.1)">
       <defs>
        <path id="DejaVuSans-66" d="M 2375 4863 
L 2375 4384 
L 1825 4384 
Q 1516 4384 1395 4259 
Q 1275 4134 1275 3809 
L 1275 3500 
L 2222 3500 
L 2222 3053 
L 1275 3053 
L 1275 0 
L 697 0 
L 697 3053 
L 147 3053 
L 147 3500 
L 697 3500 
L 697 3744 
Q 697 4328 969 4595 
Q 1241 4863 1831 4863 
L 2375 4863 
z
" transform="scale(0.015625)"/>
       </defs>
       <use xlink:href="#DejaVuSans-63"/>
       <use xlink:href="#DejaVuSans-66" transform="translate(54.980469 0)"/>
       <use xlink:href="#DejaVuSans-72" transform="translate(90.185547 0)"/>
       <use xlink:href="#DejaVuSans-61" transform="translate(131.298828 0)"/>
       <use xlink:href="#DejaVuSans-63" transform="translate(192.578125 0)"/>
      </g>
     </g>
    </g>
    <g id="xtick_6">
     <g id="line2d_6">
      <g>
       <use xlink:href="#m1f7701bb8b" x="904.666527" y="352.405938" style="stroke: #000000; stroke-width: 0.8"/>
      </g>
     </g>
     <g id="text_6">
      <!-- glibc-simple -->
      <g transform="translate(860.509918 407.464893) rotate(-45) scale(0.1 -0.1)">
       <defs>
        <path id="DejaVuSans-67" d="M 2906 1791 
Q 2906 2416 2648 2759 
Q 2391 3103 1925 3103 
Q 1463 3103 1205 2759 
Q 947 2416 947 1791 
Q 947 1169 1205 825 
Q 1463 481 1925 481 
Q 2391 481 2648 825 
Q 2906 1169 2906 1791 
z
M 3481 434 
Q 3481 -459 3084 -895 
Q 2688 -1331 1869 -1331 
Q 1566 -1331 1297 -1286 
Q 1028 -1241 775 -1147 
L 775 -588 
Q 1028 -725 1275 -790 
Q 1522 -856 1778 -856 
Q 2344 -856 2625 -561 
Q 2906 -266 2906 331 
L 2906 616 
Q 2728 306 2450 153 
Q 2172 0 1784 0 
Q 1141 0 747 490 
Q 353 981 353 1791 
Q 353 2603 747 3093 
Q 1141 3584 1784 3584 
Q 2172 3584 2450 3431 
Q 2728 3278 2906 2969 
L 2906 3500 
L 3481 3500 
L 3481 434 
z
" transform="scale(0.015625)"/>
        <path id="DejaVuSans-69" d="M 603 3500 
L 1178 3500 
L 1178 0 
L 603 0 
L 603 3500 
z
M 603 4863 
L 1178 4863 
L 1178 4134 
L 603 4134 
L 603 4863 
z
" transform="scale(0.015625)"/>
        <path id="DejaVuSans-6d" d="M 3328 2828 
Q 3544 3216 3844 3400 
Q 4144 3584 4550 3584 
Q 5097 3584 5394 3201 
Q 5691 2819 5691 2113 
L 5691 0 
L 5113 0 
L 5113 2094 
Q 5113 2597 4934 2840 
Q 4756 3084 4391 3084 
Q 3944 3084 3684 2787 
Q 3425 2491 3425 1978 
L 3425 0 
L 2847 0 
L 2847 2094 
Q 2847 2600 2669 2842 
Q 2491 3084 2119 3084 
Q 1678 3084 1418 2786 
Q 1159 2488 1159 1978 
L 1159 0 
L 581 0 
L 581 3500 
L 1159 3500 
L 1159 2956 
Q 1356 3278 1631 3431 
Q 1906 3584 2284 3584 
Q 2666 3584 2933 3390 
Q 3200 3197 3328 2828 
z
" transform="scale(0.015625)"/>
        <path id="DejaVuSans-70" d="M 1159 525 
L 1159 -1331 
L 581 -1331 
L 581 3500 
L 1159 3500 
L 1159 2969 
Q 1341 3281 1617 3432 
Q 1894 3584 2278 3584 
Q 2916 3584 3314 3078 
Q 3713 2572 3713 1747 
Q 3713 922 3314 415 
Q 2916 -91 2278 -91 
Q 1894 -91 1617 61 
Q 1341 213 1159 525 
z
M 3116 1747 
Q 3116 2381 2855 2742 
Q 2594 3103 2138 3103 
Q 1681 3103 1420 2742 
Q 1159 2381 1159 1747 
Q 1159 1113 1420 752 
Q 1681 391 2138 391 
Q 2594 391 2855 752 
Q 3116 1113 3116 1747 
z
" transform="scale(0.015625)"/>
       </defs>
       <use xlink:href="#DejaVuSans-67"/>
       <use xlink:href="#DejaVuSans-6c" transform="translate(63.476562 0)"/>
       <use xlink:href="#DejaVuSans-69" transform="translate(91.259766 0)"/>
       <use xlink:href="#DejaVuSans-62" transform="translate(119.042969 0)"/>
       <use xlink:href="#DejaVuSans-63" transform="translate(182.519531 0)"/>
       <use xlink:href="#DejaVuSans-2d" transform="translate(237.5 0)"/>
       <use xlink:href="#DejaVuSans-73" transform="translate(273.583984 0)"/>
       <use xlink:href="#DejaVuSans-69" transform="translate(325.683594 0)"/>
       <use xlink:href="#DejaVuSans-6d" transform="translate(353.466797 0)"/>
       <use xlink:href="#DejaVuSans-70" transform="translate(450.878906 0)"/>
       <use xlink:href="#DejaVuSans-6c" transform="translate(514.355469 0)"/>
       <use xlink:href="#DejaVuSans-65" transform="translate(542.138672 0)"/>
      </g>
     </g>
    </g>
   </g>
   <g id="matplotlib.axis_2">
    <g id="ytick_1">
     <g id="line2d_7">
      <defs>
       <path id="mb6ec931e10" d="M 0 0 
L -3.5 0 
" style="stroke: #000000; stroke-width: 0.8"/>
      </defs>
      <g>
       <use xlink:href="#mb6ec931e10" x="50.092685" y="153.66185" style="stroke: #000000; stroke-width: 0.8"/>
      </g>
     </g>
     <g id="text_7">
      <!-- $\mathdefault{10^{0}}$ -->
      <g transform="translate(25.492685 157.461069) scale(0.1 -0.1)">
       <defs>
        <path id="DejaVuSans-30" d="M 2034 4250 
Q 1547 4250 1301 3770 
Q 1056 3291 1056 2328 
Q 1056 1369 1301 889 
Q 1547 409 2034 409 
Q 2525 409 2770 889 
Q 3016 1369 3016 2328 
Q 3016 3291 2770 3770 
Q 2525 4250 2034 4250 
z
M 2034 4750 
Q 2819 4750 3233 4129 
Q 3647 3509 3647 2328 
Q 3647 1150 3233 529 
Q 2819 -91 2034 -91 
Q 1250 -91 836 529 
Q 422 1150 422 2328 
Q 422 3509 836 4129 
Q 1250 4750 2034 4750 
z
" transform="scale(0.015625)"/>
       </defs>
       <use xlink:href="#DejaVuSans-31" transform="translate(0 0.765625)"/>
       <use xlink:href="#DejaVuSans-30" transform="translate(63.623047 0.765625)"/>
       <use xlink:href="#DejaVuSans-30" transform="translate(128.203125 39.046875) scale(0.7)"/>
      </g>
     </g>
    </g>
    <g id="ytick_2">
     <g id="line2d_8">
      <defs>
       <path id="md842695c38" d="M 0 0 
L -2 0 
" style="stroke: #000000; stroke-width: 0.6"/>
      </defs>
      <g>
       <use xlink:href="#md842695c38" x="50.092685" y="304.239171" style="stroke: #000000; stroke-width: 0.6"/>
      </g>
     </g>
    </g>
    <g id="ytick_3">
     <g id="line2d_9">
      <g>
       <use xlink:href="#md842695c38" x="50.092685" y="266.304282" style="stroke: #000000; stroke-width: 0.6"/>
      </g>
     </g>
    </g>
    <g id="ytick_4">
     <g id="line2d_10">
      <g>
       <use xlink:href="#md842695c38" x="50.092685" y="239.389049" style="stroke: #000000; stroke-width: 0.6"/>
      </g>
     </g>
    </g>
    <g id="ytick_5">
     <g id="line2d_11">
      <g>
       <use xlink:href="#md842695c38" x="50.092685" y="218.511972" style="stroke: #000000; stroke-width: 0.6"/>
      </g>
     </g>
    </g>
    <g id="ytick_6">
     <g id="line2d_12">
      <g>
       <use xlink:href="#md842695c38" x="50.092685" y="201.454159" style="stroke: #000000; stroke-width: 0.6"/>
      </g>
     </g>
    </g>
    <g id="ytick_7">
     <g id="line2d_13">
      <g>
       <use xlink:href="#md842695c38" x="50.092685" y="187.031983" style="stroke: #000000; stroke-width: 0.6"/>
      </g>
     </g>
    </g>
    <g id="ytick_8">
     <g id="line2d_14">
      <g>
       <use xlink:href="#md842695c38" x="50.092685" y="174.538926" style="stroke: #000000; stroke-width: 0.6"/>
      </g>
     </g>
    </g>
    <g id="ytick_9">
     <g id="line2d_15">
      <g>
       <use xlink:href="#md842695c38" x="50.092685" y="163.519269" style="stroke: #000000; stroke-width: 0.6"/>
      </g>
     </g>
    </g>
    <g id="ytick_10">
     <g id="line2d_16">
      <g>
       <use xlink:href="#md842695c38" x="50.092685" y="88.811727" style="stroke: #000000; stroke-width: 0.6"/>
      </g>
     </g>
    </g>
    <g id="ytick_11">
     <g id="line2d_17">
      <g>
       <use xlink:href="#md842695c38" x="50.092685" y="50.876837" style="stroke: #000000; stroke-width: 0.6"/>
      </g>
     </g>
    </g>
    <g id="text_8">
     <!-- Average Time (log scale) -->
     <g transform="translate(19.412997 251.584375) rotate(-90) scale(0.1 -0.1)">
      <defs>
       <path id="DejaVuSans-41" d="M 2188 4044 
L 1331 1722 
L 3047 1722 
L 2188 4044 
z
M 1831 4666 
L 2547 4666 
L 4325 0 
L 3669 0 
L 3244 1197 
L 1141 1197 
L 716 0 
L 50 0 
L 1831 4666 
z
" transform="scale(0.015625)"/>
       <path id="DejaVuSans-76" d="M 191 3500 
L 800 3500 
L 1894 563 
L 2988 3500 
L 3597 3500 
L 2284 0 
L 1503 0 
L 191 3500 
z
" transform="scale(0.015625)"/>
       <path id="DejaVuSans-20" transform="scale(0.015625)"/>
       <path id="DejaVuSans-54" d="M -19 4666 
L 3928 4666 
L 3928 4134 
L 2272 4134 
L 2272 0 
L 1638 0 
L 1638 4134 
L -19 4134 
L -19 4666 
z
" transform="scale(0.015625)"/>
       <path id="DejaVuSans-28" d="M 1984 4856 
Q 1566 4138 1362 3434 
Q 1159 2731 1159 2009 
Q 1159 1288 1364 580 
Q 1569 -128 1984 -844 
L 1484 -844 
Q 1016 -109 783 600 
Q 550 1309 550 2009 
Q 550 2706 781 3412 
Q 1013 4119 1484 4856 
L 1984 4856 
z
" transform="scale(0.015625)"/>
       <path id="DejaVuSans-29" d="M 513 4856 
L 1013 4856 
Q 1481 4119 1714 3412 
Q 1947 2706 1947 2009 
Q 1947 1309 1714 600 
Q 1481 -109 1013 -844 
L 513 -844 
Q 928 -128 1133 580 
Q 1338 1288 1338 2009 
Q 1338 2731 1133 3434 
Q 928 4138 513 4856 
z
" transform="scale(0.015625)"/>
      </defs>
      <use xlink:href="#DejaVuSans-41"/>
      <use xlink:href="#DejaVuSans-76" transform="translate(62.533203 0)"/>
      <use xlink:href="#DejaVuSans-65" transform="translate(121.712891 0)"/>
      <use xlink:href="#DejaVuSans-72" transform="translate(183.236328 0)"/>
      <use xlink:href="#DejaVuSans-61" transform="translate(224.349609 0)"/>
      <use xlink:href="#DejaVuSans-67" transform="translate(285.628906 0)"/>
      <use xlink:href="#DejaVuSans-65" transform="translate(349.105469 0)"/>
      <use xlink:href="#DejaVuSans-20" transform="translate(410.628906 0)"/>
      <use xlink:href="#DejaVuSans-54" transform="translate(442.416016 0)"/>
      <use xlink:href="#DejaVuSans-69" transform="translate(500.375 0)"/>
      <use xlink:href="#DejaVuSans-6d" transform="translate(528.158203 0)"/>
      <use xlink:href="#DejaVuSans-65" transform="translate(625.570312 0)"/>
      <use xlink:href="#DejaVuSans-20" transform="translate(687.09375 0)"/>
      <use xlink:href="#DejaVuSans-28" transform="translate(718.880859 0)"/>
      <use xlink:href="#DejaVuSans-6c" transform="translate(757.894531 0)"/>
      <use xlink:href="#DejaVuSans-6f" transform="translate(785.677734 0)"/>
      <use xlink:href="#DejaVuSans-67" transform="translate(846.859375 0)"/>
      <use xlink:href="#DejaVuSans-20" transform="translate(910.335938 0)"/>
      <use xlink:href="#DejaVuSans-73" transform="translate(942.123047 0)"/>
      <use xlink:href="#DejaVuSans-63" transform="translate(994.222656 0)"/>
      <use xlink:href="#DejaVuSans-61" transform="translate(1049.203125 0)"/>
      <use xlink:href="#DejaVuSans-6c" transform="translate(1110.482422 0)"/>
      <use xlink:href="#DejaVuSans-65" transform="translate(1138.265625 0)"/>
      <use xlink:href="#DejaVuSans-29" transform="translate(1199.789062 0)"/>
     </g>
    </g>
   </g>
   <g id="patch_39">
    <path d="M 50.092685 352.405938 
L 50.092685 26.88 
" style="fill: none; stroke: #000000; stroke-width: 0.8; stroke-linejoin: miter; stroke-linecap: square"/>
   </g>
   <g id="patch_40">
    <path d="M 997.2 352.405938 
L 997.2 26.88 
" style="fill: none; stroke: #000000; stroke-width: 0.8; stroke-linejoin: miter; stroke-linecap: square"/>
   </g>
   <g id="patch_41">
    <path d="M 50.092685 352.405938 
L 997.2 352.405938 
" style="fill: none; stroke: #000000; stroke-width: 0.8; stroke-linejoin: miter; stroke-linecap: square"/>
   </g>
   <g id="patch_42">
    <path d="M 50.092685 26.88 
L 997.2 26.88 
" style="fill: none; stroke: #000000; stroke-width: 0.8; stroke-linejoin: miter; stroke-linecap: square"/>
   </g>
   <g id="text_9">
    <!-- Average Execution Time per Benchmark -->
    <g transform="translate(403.115717 20.88) scale(0.12 -0.12)">
     <defs>
      <path id="DejaVuSans-45" d="M 628 4666 
L 3578 4666 
L 3578 4134 
L 1259 4134 
L 1259 2753 
L 3481 2753 
L 3481 2222 
L 1259 2222 
L 1259 531 
L 3634 531 
L 3634 0 
L 628 0 
L 628 4666 
z
" transform="scale(0.015625)"/>
      <path id="DejaVuSans-78" d="M 3513 3500 
L 2247 1797 
L 3578 0 
L 2900 0 
L 1881 1375 
L 863 0 
L 184 0 
L 1544 1831 
L 300 3500 
L 978 3500 
L 1906 2253 
L 2834 3500 
L 3513 3500 
z
" transform="scale(0.015625)"/>
      <path id="DejaVuSans-75" d="M 544 1381 
L 544 3500 
L 1119 3500 
L 1119 1403 
Q 1119 906 1312 657 
Q 1506 409 1894 409 
Q 2359 409 2629 706 
Q 2900 1003 2900 1516 
L 2900 3500 
L 3475 3500 
L 3475 0 
L 2900 0 
L 2900 538 
Q 2691 219 2414 64 
Q 2138 -91 1772 -91 
Q 1169 -91 856 284 
Q 544 659 544 1381 
z
M 1991 3584 
L 1991 3584 
z
" transform="scale(0.015625)"/>
      <path id="DejaVuSans-42" d="M 1259 2228 
L 1259 519 
L 2272 519 
Q 2781 519 3026 730 
Q 3272 941 3272 1375 
Q 3272 1813 3026 2020 
Q 2781 2228 2272 2228 
L 1259 2228 
z
M 1259 4147 
L 1259 2741 
L 2194 2741 
Q 2656 2741 2882 2914 
Q 3109 3088 3109 3444 
Q 3109 3797 2882 3972 
Q 2656 4147 2194 4147 
L 1259 4147 
z
M 628 4666 
L 2241 4666 
Q 2963 4666 3353 4366 
Q 3744 4066 3744 3513 
Q 3744 3084 3544 2831 
Q 3344 2578 2956 2516 
Q 3422 2416 3680 2098 
Q 3938 1781 3938 1306 
Q 3938 681 3513 340 
Q 3088 0 2303 0 
L 628 0 
L 628 4666 
z
" transform="scale(0.015625)"/>
      <path id="DejaVuSans-6b" d="M 581 4863 
L 1159 4863 
L 1159 1991 
L 2875 3500 
L 3609 3500 
L 1753 1863 
L 3688 0 
L 2938 0 
L 1159 1709 
L 1159 0 
L 581 0 
L 581 4863 
z
" transform="scale(0.015625)"/>
     </defs>
     <use xlink:href="#DejaVuSans-41"/>
     <use xlink:href="#DejaVuSans-76" transform="translate(62.533203 0)"/>
     <use xlink:href="#DejaVuSans-65" transform="translate(121.712891 0)"/>
     <use xlink:href="#DejaVuSans-72" transform="translate(183.236328 0)"/>
     <use xlink:href="#DejaVuSans-61" transform="translate(224.349609 0)"/>
     <use xlink:href="#DejaVuSans-67" transform="translate(285.628906 0)"/>
     <use xlink:href="#DejaVuSans-65" transform="translate(349.105469 0)"/>
     <use xlink:href="#DejaVuSans-20" transform="translate(410.628906 0)"/>
     <use xlink:href="#DejaVuSans-45" transform="translate(442.416016 0)"/>
     <use xlink:href="#DejaVuSans-78" transform="translate(505.599609 0)"/>
     <use xlink:href="#DejaVuSans-65" transform="translate(561.654297 0)"/>
     <use xlink:href="#DejaVuSans-63" transform="translate(623.177734 0)"/>
     <use xlink:href="#DejaVuSans-75" transform="translate(678.158203 0)"/>
     <use xlink:href="#DejaVuSans-74" transform="translate(741.537109 0)"/>
     <use xlink:href="#DejaVuSans-69" transform="translate(780.746094 0)"/>
     <use xlink:href="#DejaVuSans-6f" transform="translate(808.529297 0)"/>
     <use xlink:href="#DejaVuSans-6e" transform="translate(869.710938 0)"/>
     <use xlink:href="#DejaVuSans-20" transform="translate(933.089844 0)"/>
     <use xlink:href="#DejaVuSans-54" transform="translate(964.876953 0)"/>
     <use xlink:href="#DejaVuSans-69" transform="translate(1022.835938 0)"/>
     <use xlink:href="#DejaVuSans-6d" transform="translate(1050.619141 0)"/>
     <use xlink:href="#DejaVuSans-65" transform="translate(1148.03125 0)"/>
     <use xlink:href="#DejaVuSans-20" transform="translate(1209.554688 0)"/>
     <use xlink:href="#DejaVuSans-70" transform="translate(1241.341797 0)"/>
     <use xlink:href="#DejaVuSans-65" transform="translate(1304.818359 0)"/>
     <use xlink:href="#DejaVuSans-72" transform="translate(1366.341797 0)"/>
     <use xlink:href="#DejaVuSans-20" transform="translate(1407.455078 0)"/>
     <use xlink:href="#DejaVuSans-42" transform="translate(1439.242188 0)"/>
     <use xlink:href="#DejaVuSans-65" transform="translate(1507.845703 0)"/>
     <use xlink:href="#DejaVuSans-6e" transform="translate(1569.369141 0)"/>
     <use xlink:href="#DejaVuSans-63" transform="translate(1632.748047 0)"/>
     <use xlink:href="#DejaVuSans-68" transform="translate(1687.728516 0)"/>
     <use xlink:href="#DejaVuSans-6d" transform="translate(1751.107422 0)"/>
     <use xlink:href="#DejaVuSans-61" transform="translate(1848.519531 0)"/>
     <use xlink:href="#DejaVuSans-72" transform="translate(1909.798828 0)"/>
     <use xlink:href="#DejaVuSans-6b" transform="translate(1950.912109 0)"/>
    </g>
   </g>
   <g id="legend_1">
    <g id="patch_43">
     <path d="M 462.718999 122.94875 
L 584.573686 122.94875 
Q 586.573686 122.94875 586.573686 120.94875 
L 586.573686 33.88 
Q 586.573686 31.88 584.573686 31.88 
L 462.718999 31.88 
Q 460.718999 31.88 460.718999 33.88 
L 460.718999 120.94875 
Q 460.718999 122.94875 462.718999 122.94875 
z
" style="fill: #ffffff; opacity: 0.8; stroke: #cccccc; stroke-linejoin: miter"/>
    </g>
    <g id="patch_44">
     <path d="M 464.718999 43.478438 
L 484.718999 43.478438 
L 484.718999 36.478438 
L 464.718999 36.478438 
z
" style="fill: #1f77b4"/>
    </g>
    <g id="text_10">
     <!-- Kingsley16Bins -->
     <g transform="translate(492.718999 43.478438) scale(0.1 -0.1)">
      <defs>
       <path id="DejaVuSans-4b" d="M 628 4666 
L 1259 4666 
L 1259 2694 
L 3353 4666 
L 4166 4666 
L 1850 2491 
L 4331 0 
L 3500 0 
L 1259 2247 
L 1259 0 
L 628 0 
L 628 4666 
z
" transform="scale(0.015625)"/>
       <path id="DejaVuSans-79" d="M 2059 -325 
Q 1816 -950 1584 -1140 
Q 1353 -1331 966 -1331 
L 506 -1331 
L 506 -850 
L 844 -850 
Q 1081 -850 1212 -737 
Q 1344 -625 1503 -206 
L 1606 56 
L 191 3500 
L 800 3500 
L 1894 763 
L 2988 3500 
L 3597 3500 
L 2059 -325 
z
" transform="scale(0.015625)"/>
       <path id="DejaVuSans-36" d="M 2113 2584 
Q 1688 2584 1439 2293 
Q 1191 2003 1191 1497 
Q 1191 994 1439 701 
Q 1688 409 2113 409 
Q 2538 409 2786 701 
Q 3034 994 3034 1497 
Q 3034 2003 2786 2293 
Q 2538 2584 2113 2584 
z
M 3366 4563 
L 3366 3988 
Q 3128 4100 2886 4159 
Q 2644 4219 2406 4219 
Q 1781 4219 1451 3797 
Q 1122 3375 1075 2522 
Q 1259 2794 1537 2939 
Q 1816 3084 2150 3084 
Q 2853 3084 3261 2657 
Q 3669 2231 3669 1497 
Q 3669 778 3244 343 
Q 2819 -91 2113 -91 
Q 1303 -91 875 529 
Q 447 1150 447 2328 
Q 447 3434 972 4092 
Q 1497 4750 2381 4750 
Q 2619 4750 2861 4703 
Q 3103 4656 3366 4563 
z
" transform="scale(0.015625)"/>
      </defs>
      <use xlink:href="#DejaVuSans-4b"/>
      <use xlink:href="#DejaVuSans-69" transform="translate(65.576172 0)"/>
      <use xlink:href="#DejaVuSans-6e" transform="translate(93.359375 0)"/>
      <use xlink:href="#DejaVuSans-67" transform="translate(156.738281 0)"/>
      <use xlink:href="#DejaVuSans-73" transform="translate(220.214844 0)"/>
      <use xlink:href="#DejaVuSans-6c" transform="translate(272.314453 0)"/>
      <use xlink:href="#DejaVuSans-65" transform="translate(300.097656 0)"/>
      <use xlink:href="#DejaVuSans-79" transform="translate(361.621094 0)"/>
      <use xlink:href="#DejaVuSans-31" transform="translate(420.800781 0)"/>
      <use xlink:href="#DejaVuSans-36" transform="translate(484.423828 0)"/>
      <use xlink:href="#DejaVuSans-42" transform="translate(548.046875 0)"/>
      <use xlink:href="#DejaVuSans-69" transform="translate(616.650391 0)"/>
      <use xlink:href="#DejaVuSans-6e" transform="translate(644.433594 0)"/>
      <use xlink:href="#DejaVuSans-73" transform="translate(707.8125 0)"/>
     </g>
    </g>
    <g id="patch_45">
     <path d="M 464.718999 58.156563 
L 484.718999 58.156563 
L 484.718999 51.156563 
L 464.718999 51.156563 
z
" style="fill: #ff7f0e"/>
    </g>
    <g id="text_11">
     <!-- Kingsley20Bins -->
     <g transform="translate(492.718999 58.156563) scale(0.1 -0.1)">
      <defs>
       <path id="DejaVuSans-32" d="M 1228 531 
L 3431 531 
L 3431 0 
L 469 0 
L 469 531 
Q 828 903 1448 1529 
Q 2069 2156 2228 2338 
Q 2531 2678 2651 2914 
Q 2772 3150 2772 3378 
Q 2772 3750 2511 3984 
Q 2250 4219 1831 4219 
Q 1534 4219 1204 4116 
Q 875 4013 500 3803 
L 500 4441 
Q 881 4594 1212 4672 
Q 1544 4750 1819 4750 
Q 2544 4750 2975 4387 
Q 3406 4025 3406 3419 
Q 3406 3131 3298 2873 
Q 3191 2616 2906 2266 
Q 2828 2175 2409 1742 
Q 1991 1309 1228 531 
z
" transform="scale(0.015625)"/>
      </defs>
      <use xlink:href="#DejaVuSans-4b"/>
      <use xlink:href="#DejaVuSans-69" transform="translate(65.576172 0)"/>
      <use xlink:href="#DejaVuSans-6e" transform="translate(93.359375 0)"/>
      <use xlink:href="#DejaVuSans-67" transform="translate(156.738281 0)"/>
      <use xlink:href="#DejaVuSans-73" transform="translate(220.214844 0)"/>
      <use xlink:href="#DejaVuSans-6c" transform="translate(272.314453 0)"/>
      <use xlink:href="#DejaVuSans-65" transform="translate(300.097656 0)"/>
      <use xlink:href="#DejaVuSans-79" transform="translate(361.621094 0)"/>
      <use xlink:href="#DejaVuSans-32" transform="translate(420.800781 0)"/>
      <use xlink:href="#DejaVuSans-30" transform="translate(484.423828 0)"/>
      <use xlink:href="#DejaVuSans-42" transform="translate(548.046875 0)"/>
      <use xlink:href="#DejaVuSans-69" transform="translate(616.650391 0)"/>
      <use xlink:href="#DejaVuSans-6e" transform="translate(644.433594 0)"/>
      <use xlink:href="#DejaVuSans-73" transform="translate(707.8125 0)"/>
     </g>
    </g>
    <g id="patch_46">
     <path d="M 464.718999 72.834688 
L 484.718999 72.834688 
L 484.718999 65.834688 
L 464.718999 65.834688 
z
" style="fill: #2ca02c"/>
    </g>
    <g id="text_12">
     <!-- Kingsley25Bins -->
     <g transform="translate(492.718999 72.834688) scale(0.1 -0.1)">
      <defs>
       <path id="DejaVuSans-35" d="M 691 4666 
L 3169 4666 
L 3169 4134 
L 1269 4134 
L 1269 2991 
Q 1406 3038 1543 3061 
Q 1681 3084 1819 3084 
Q 2600 3084 3056 2656 
Q 3513 2228 3513 1497 
Q 3513 744 3044 326 
Q 2575 -91 1722 -91 
Q 1428 -91 1123 -41 
Q 819 9 494 109 
L 494 744 
Q 775 591 1075 516 
Q 1375 441 1709 441 
Q 2250 441 2565 725 
Q 2881 1009 2881 1497 
Q 2881 1984 2565 2268 
Q 2250 2553 1709 2553 
Q 1456 2553 1204 2497 
Q 953 2441 691 2322 
L 691 4666 
z
" transform="scale(0.015625)"/>
      </defs>
      <use xlink:href="#DejaVuSans-4b"/>
      <use xlink:href="#DejaVuSans-69" transform="translate(65.576172 0)"/>
      <use xlink:href="#DejaVuSans-6e" transform="translate(93.359375 0)"/>
      <use xlink:href="#DejaVuSans-67" transform="translate(156.738281 0)"/>
      <use xlink:href="#DejaVuSans-73" transform="translate(220.214844 0)"/>
      <use xlink:href="#DejaVuSans-6c" transform="translate(272.314453 0)"/>
      <use xlink:href="#DejaVuSans-65" transform="translate(300.097656 0)"/>
      <use xlink:href="#DejaVuSans-79" transform="translate(361.621094 0)"/>
      <use xlink:href="#DejaVuSans-32" transform="translate(420.800781 0)"/>
      <use xlink:href="#DejaVuSans-35" transform="translate(484.423828 0)"/>
      <use xlink:href="#DejaVuSans-42" transform="translate(548.046875 0)"/>
      <use xlink:href="#DejaVuSans-69" transform="translate(616.650391 0)"/>
      <use xlink:href="#DejaVuSans-6e" transform="translate(644.433594 0)"/>
      <use xlink:href="#DejaVuSans-73" transform="translate(707.8125 0)"/>
     </g>
    </g>
    <g id="patch_47">
     <path d="M 464.718999 87.512813 
L 484.718999 87.512813 
L 484.718999 80.512813 
L 464.718999 80.512813 
z
" style="fill: #d62728"/>
    </g>
    <g id="text_13">
     <!-- KingsleyAlloc -->
     <g transform="translate(492.718999 87.512813) scale(0.1 -0.1)">
      <use xlink:href="#DejaVuSans-4b"/>
      <use xlink:href="#DejaVuSans-69" transform="translate(65.576172 0)"/>
      <use xlink:href="#DejaVuSans-6e" transform="translate(93.359375 0)"/>
      <use xlink:href="#DejaVuSans-67" transform="translate(156.738281 0)"/>
      <use xlink:href="#DejaVuSans-73" transform="translate(220.214844 0)"/>
      <use xlink:href="#DejaVuSans-6c" transform="translate(272.314453 0)"/>
      <use xlink:href="#DejaVuSans-65" transform="translate(300.097656 0)"/>
      <use xlink:href="#DejaVuSans-79" transform="translate(361.621094 0)"/>
      <use xlink:href="#DejaVuSans-41" transform="translate(420.800781 0)"/>
      <use xlink:href="#DejaVuSans-6c" transform="translate(489.208984 0)"/>
      <use xlink:href="#DejaVuSans-6c" transform="translate(516.992188 0)"/>
      <use xlink:href="#DejaVuSans-6f" transform="translate(544.775391 0)"/>
      <use xlink:href="#DejaVuSans-63" transform="translate(605.957031 0)"/>
     </g>
    </g>
    <g id="patch_48">
     <path d="M 464.718999 102.190938 
L 484.718999 102.190938 
L 484.718999 95.190938 
L 464.718999 95.190938 
z
" style="fill: #9467bd"/>
    </g>
    <g id="text_14">
     <!-- KingsleyBigChunk -->
     <g transform="translate(492.718999 102.190938) scale(0.1 -0.1)">
      <defs>
       <path id="DejaVuSans-43" d="M 4122 4306 
L 4122 3641 
Q 3803 3938 3442 4084 
Q 3081 4231 2675 4231 
Q 1875 4231 1450 3742 
Q 1025 3253 1025 2328 
Q 1025 1406 1450 917 
Q 1875 428 2675 428 
Q 3081 428 3442 575 
Q 3803 722 4122 1019 
L 4122 359 
Q 3791 134 3420 21 
Q 3050 -91 2638 -91 
Q 1578 -91 968 557 
Q 359 1206 359 2328 
Q 359 3453 968 4101 
Q 1578 4750 2638 4750 
Q 3056 4750 3426 4639 
Q 3797 4528 4122 4306 
z
" transform="scale(0.015625)"/>
      </defs>
      <use xlink:href="#DejaVuSans-4b"/>
      <use xlink:href="#DejaVuSans-69" transform="translate(65.576172 0)"/>
      <use xlink:href="#DejaVuSans-6e" transform="translate(93.359375 0)"/>
      <use xlink:href="#DejaVuSans-67" transform="translate(156.738281 0)"/>
      <use xlink:href="#DejaVuSans-73" transform="translate(220.214844 0)"/>
      <use xlink:href="#DejaVuSans-6c" transform="translate(272.314453 0)"/>
      <use xlink:href="#DejaVuSans-65" transform="translate(300.097656 0)"/>
      <use xlink:href="#DejaVuSans-79" transform="translate(361.621094 0)"/>
      <use xlink:href="#DejaVuSans-42" transform="translate(420.800781 0)"/>
      <use xlink:href="#DejaVuSans-69" transform="translate(489.404297 0)"/>
      <use xlink:href="#DejaVuSans-67" transform="translate(517.1875 0)"/>
      <use xlink:href="#DejaVuSans-43" transform="translate(580.664062 0)"/>
      <use xlink:href="#DejaVuSans-68" transform="translate(650.488281 0)"/>
      <use xlink:href="#DejaVuSans-75" transform="translate(713.867188 0)"/>
      <use xlink:href="#DejaVuSans-6e" transform="translate(777.246094 0)"/>
      <use xlink:href="#DejaVuSans-6b" transform="translate(840.625 0)"/>
     </g>
    </g>
    <g id="patch_49">
     <path d="M 464.718999 116.869063 
L 484.718999 116.869063 
L 484.718999 109.869063 
L 464.718999 109.869063 
z
" style="fill: #8c564b"/>
    </g>
    <g id="text_15">
     <!-- KingsleySLL -->
     <g transform="translate(492.718999 116.869063) scale(0.1 -0.1)">
      <defs>
       <path id="DejaVuSans-53" d="M 3425 4513 
L 3425 3897 
Q 3066 4069 2747 4153 
Q 2428 4238 2131 4238 
Q 1616 4238 1336 4038 
Q 1056 3838 1056 3469 
Q 1056 3159 1242 3001 
Q 1428 2844 1947 2747 
L 2328 2669 
Q 3034 2534 3370 2195 
Q 3706 1856 3706 1288 
Q 3706 609 3251 259 
Q 2797 -91 1919 -91 
Q 1588 -91 1214 -16 
Q 841 59 441 206 
L 441 856 
Q 825 641 1194 531 
Q 1563 422 1919 422 
Q 2459 422 2753 634 
Q 3047 847 3047 1241 
Q 3047 1584 2836 1778 
Q 2625 1972 2144 2069 
L 1759 2144 
Q 1053 2284 737 2584 
Q 422 2884 422 3419 
Q 422 4038 858 4394 
Q 1294 4750 2059 4750 
Q 2388 4750 2728 4690 
Q 3069 4631 3425 4513 
z
" transform="scale(0.015625)"/>
       <path id="DejaVuSans-4c" d="M 628 4666 
L 1259 4666 
L 1259 531 
L 3531 531 
L 3531 0 
L 628 0 
L 628 4666 
z
" transform="scale(0.015625)"/>
      </defs>
      <use xlink:href="#DejaVuSans-4b"/>
      <use xlink:href="#DejaVuSans-69" transform="translate(65.576172 0)"/>
      <use xlink:href="#DejaVuSans-6e" transform="translate(93.359375 0)"/>
      <use xlink:href="#DejaVuSans-67" transform="translate(156.738281 0)"/>
      <use xlink:href="#DejaVuSans-73" transform="translate(220.214844 0)"/>
      <use xlink:href="#DejaVuSans-6c" transform="translate(272.314453 0)"/>
      <use xlink:href="#DejaVuSans-65" transform="translate(300.097656 0)"/>
      <use xlink:href="#DejaVuSans-79" transform="translate(361.621094 0)"/>
      <use xlink:href="#DejaVuSans-53" transform="translate(420.800781 0)"/>
      <use xlink:href="#DejaVuSans-4c" transform="translate(484.277344 0)"/>
      <use xlink:href="#DejaVuSans-4c" transform="translate(539.990234 0)"/>
     </g>
    </g>
   </g>
  </g>
 </g>
 <defs>
  <clipPath id="p488aebc4de">
   <rect x="50.092685" y="26.88" width="947.107315" height="325.525938"/>
  </clipPath>
 </defs>
</svg>
