<?xml version="1.0" encoding="utf-8" standalone="no"?>
<!DOCTYPE svg PUBLIC "-//W3C//DTD SVG 1.1//EN"
  "http://www.w3.org/Graphics/SVG/1.1/DTD/svg11.dtd">
<svg xmlns:xlink="http://www.w3.org/1999/xlink" width="1296pt" height="432pt" viewBox="0 0 1296 432" xmlns="http://www.w3.org/2000/svg" version="1.1">
 <metadata>
  <rdf:RDF xmlns:dc="http://purl.org/dc/elements/1.1/" xmlns:cc="http://creativecommons.org/ns#" xmlns:rdf="http://www.w3.org/1999/02/22-rdf-syntax-ns#">
   <cc:Work>
    <dc:type rdf:resource="http://purl.org/dc/dcmitype/StillImage"/>
    <dc:date>2026-01-15T04:09:59.749606</dc:date>
    <dc:format>image/svg+xml</dc:format>
    <dc:creator>
     <cc:Agent>
      <dc:title>Matplotlib v3.10.8, https://matplotlib.org/</dc:title>
     </cc:Agent>
    </dc:creator>
   </cc:Work>
  </rdf:RDF>
 </metadata>
 <defs>
  <style type="text/css">*{stroke-linejoin: round; stroke-linecap: butt}</style>
 </defs>
 <g id="figure_1">
  <g id="patch_1">
   <path d="M 0 432 
L 1296 432 
L 1296 0 
L 0 0 
z
" style="fill: #ffffff"/>
  </g>
  <g id="axes_1">
   <g id="patch_2">
    <path d="M 50.137685 352.405938 
L 922.482 352.405938 
L 922.482 26.88 
L 50.137685 26.88 
z
" style="fill: #ffffff"/>
   </g>
   <g id="patch_3">
    <path d="M 89.789699 86490.187839 
L 95.184531 86490.187839 
L 95.184531 263.194814 
L 89.789699 263.194814 
z
" clip-path="url(#pbb0d6f8e44)" style="fill: #1f77b4"/>
   </g>
   <g id="patch_4">
    <path d="M 136.994478 86490.187839 
L 142.38931 86490.187839 
L 142.38931 256.673435 
L 136.994478 256.673435 
z
" clip-path="url(#pbb0d6f8e44)" style="fill: #1f77b4"/>
   </g>
   <g id="patch_5">
    <path d="M 184.199257 86490.187839 
L 189.594089 86490.187839 
L 189.594089 207.755936 
L 184.199257 207.755936 
z
" clip-path="url(#pbb0d6f8e44)" style="fill: #1f77b4"/>
   </g>
   <g id="patch_6">
    <path d="M 231.404036 86490.187839 
L 236.798868 86490.187839 
L 236.798868 313.278695 
L 231.404036 313.278695 
z
" clip-path="url(#pbb0d6f8e44)" style="fill: #1f77b4"/>
   </g>
   <g id="patch_7">
    <path d="M 278.608815 86490.187839 
L 284.003647 86490.187839 
L 284.003647 312.192992 
L 278.608815 312.192992 
z
" clip-path="url(#pbb0d6f8e44)" style="fill: #1f77b4"/>
   </g>
   <g id="patch_8">
    <path d="M 325.813594 86490.187839 
L 331.208426 86490.187839 
L 331.208426 325.990415 
L 325.813594 325.990415 
z
" clip-path="url(#pbb0d6f8e44)" style="fill: #1f77b4"/>
   </g>
   <g id="patch_9">
    <path d="M 373.018373 86490.187839 
L 378.413205 86490.187839 
L 378.413205 324.971719 
L 373.018373 324.971719 
z
" clip-path="url(#pbb0d6f8e44)" style="fill: #1f77b4"/>
   </g>
   <g id="patch_10">
    <path d="M 420.223152 86490.187839 
L 425.617984 86490.187839 
L 425.617984 336.604451 
L 420.223152 336.604451 
z
" clip-path="url(#pbb0d6f8e44)" style="fill: #1f77b4"/>
   </g>
   <g id="patch_11">
    <path d="M 467.427931 86490.187839 
L 472.822763 86490.187839 
L 472.822763 312.431542 
L 467.427931 312.431542 
z
" clip-path="url(#pbb0d6f8e44)" style="fill: #1f77b4"/>
   </g>
   <g id="patch_12">
    <path d="M 514.63271 86490.187839 
L 520.027542 86490.187839 
L 520.027542 235.394391 
L 514.63271 235.394391 
z
" clip-path="url(#pbb0d6f8e44)" style="fill: #1f77b4"/>
   </g>
   <g id="patch_13">
    <path d="M 561.837489 86490.187839 
L 567.232321 86490.187839 
L 567.232321 187.612655 
L 561.837489 187.612655 
z
" clip-path="url(#pbb0d6f8e44)" style="fill: #1f77b4"/>
   </g>
   <g id="patch_14">
    <path d="M 609.042268 86490.187839 
L 614.4371 86490.187839 
L 614.4371 194.855675 
L 609.042268 194.855675 
z
" clip-path="url(#pbb0d6f8e44)" style="fill: #1f77b4"/>
   </g>
   <g id="patch_15">
    <path d="M 656.247047 86490.187839 
L 661.641879 86490.187839 
L 661.641879 135.913542 
L 656.247047 135.913542 
z
" clip-path="url(#pbb0d6f8e44)" style="fill: #1f77b4"/>
   </g>
   <g id="patch_16">
    <path d="M 703.451826 86490.187839 
L 708.846657 86490.187839 
L 708.846657 220.720751 
L 703.451826 220.720751 
z
" clip-path="url(#pbb0d6f8e44)" style="fill: #1f77b4"/>
   </g>
   <g id="patch_17">
    <path d="M 750.656605 86490.187839 
L 756.051436 86490.187839 
L 756.051436 144.471153 
L 750.656605 144.471153 
z
" clip-path="url(#pbb0d6f8e44)" style="fill: #1f77b4"/>
   </g>
   <g id="patch_18">
    <path d="M 797.861384 86490.187839 
L 803.256215 86490.187839 
L 803.256215 148.573242 
L 797.861384 148.573242 
z
" clip-path="url(#pbb0d6f8e44)" style="fill: #1f77b4"/>
   </g>
   <g id="patch_19">
    <path d="M 845.066163 86490.187839 
L 850.460994 86490.187839 
L 850.460994 206.395882 
L 845.066163 206.395882 
z
" clip-path="url(#pbb0d6f8e44)" style="fill: #1f77b4"/>
   </g>
   <g id="patch_20">
    <path d="M 95.184531 86490.187839 
L 100.579363 86490.187839 
L 100.579363 68.375097 
L 95.184531 68.375097 
z
" clip-path="url(#pbb0d6f8e44)" style="fill: #ff7f0e"/>
   </g>
   <g id="patch_21">
    <path d="M 189.594089 86490.187839 
L 194.988921 86490.187839 
L 194.988921 206.806934 
L 189.594089 206.806934 
z
" clip-path="url(#pbb0d6f8e44)" style="fill: #ff7f0e"/>
   </g>
   <g id="patch_22">
    <path d="M 236.798868 86490.187839 
L 242.1937 86490.187839 
L 242.1937 312.91327 
L 236.798868 312.91327 
z
" clip-path="url(#pbb0d6f8e44)" style="fill: #ff7f0e"/>
   </g>
   <g id="patch_23">
    <path d="M 284.003647 86490.187839 
L 289.398479 86490.187839 
L 289.398479 312.471449 
L 284.003647 312.471449 
z
" clip-path="url(#pbb0d6f8e44)" style="fill: #ff7f0e"/>
   </g>
   <g id="patch_24">
    <path d="M 331.208426 86490.187839 
L 336.603258 86490.187839 
L 336.603258 50.79616 
L 331.208426 50.79616 
z
" clip-path="url(#pbb0d6f8e44)" style="fill: #ff7f0e"/>
   </g>
   <g id="patch_25">
    <path d="M 425.617984 86490.187839 
L 431.012816 86490.187839 
L 431.012816 41.676634 
L 425.617984 41.676634 
z
" clip-path="url(#pbb0d6f8e44)" style="fill: #ff7f0e"/>
   </g>
   <g id="patch_26">
    <path d="M 100.579363 86490.187839 
L 105.974195 86490.187839 
L 105.974195 255.295134 
L 100.579363 255.295134 
z
" clip-path="url(#pbb0d6f8e44)" style="fill: #2ca02c"/>
   </g>
   <g id="patch_27">
    <path d="M 194.988921 86490.187839 
L 200.383753 86490.187839 
L 200.383753 205.207223 
L 194.988921 205.207223 
z
" clip-path="url(#pbb0d6f8e44)" style="fill: #2ca02c"/>
   </g>
   <g id="patch_28">
    <path d="M 242.1937 86490.187839 
L 247.588532 86490.187839 
L 247.588532 312.872888 
L 242.1937 312.872888 
z
" clip-path="url(#pbb0d6f8e44)" style="fill: #2ca02c"/>
   </g>
   <g id="patch_29">
    <path d="M 289.398479 86490.187839 
L 294.793311 86490.187839 
L 294.793311 310.187078 
L 289.398479 310.187078 
z
" clip-path="url(#pbb0d6f8e44)" style="fill: #2ca02c"/>
   </g>
   <g id="patch_30">
    <path d="M 336.603258 86490.187839 
L 341.99809 86490.187839 
L 341.99809 300.544482 
L 336.603258 300.544482 
z
" clip-path="url(#pbb0d6f8e44)" style="fill: #2ca02c"/>
   </g>
   <g id="patch_31">
    <path d="M 431.012816 86490.187839 
L 436.407647 86490.187839 
L 436.407647 315.161537 
L 431.012816 315.161537 
z
" clip-path="url(#pbb0d6f8e44)" style="fill: #2ca02c"/>
   </g>
   <g id="patch_32">
    <path d="M 714.241489 86490.187839 
L 719.636321 86490.187839 
L 719.636321 79.970373 
L 714.241489 79.970373 
z
" clip-path="url(#pbb0d6f8e44)" style="fill: #2ca02c"/>
   </g>
   <g id="patch_33">
    <path d="M 105.974195 86490.187839 
L 111.369027 86490.187839 
L 111.369027 248.628154 
L 105.974195 248.628154 
z
" clip-path="url(#pbb0d6f8e44)" style="fill: #d62728"/>
   </g>
   <g id="patch_34">
    <path d="M 200.383753 86490.187839 
L 205.778585 86490.187839 
L 205.778585 205.177987 
L 200.383753 205.177987 
z
" clip-path="url(#pbb0d6f8e44)" style="fill: #d62728"/>
   </g>
   <g id="patch_35">
    <path d="M 247.588532 86490.187839 
L 252.983364 86490.187839 
L 252.983364 311.798767 
L 247.588532 311.798767 
z
" clip-path="url(#pbb0d6f8e44)" style="fill: #d62728"/>
   </g>
   <g id="patch_36">
    <path d="M 294.793311 86490.187839 
L 300.188142 86490.187839 
L 300.188142 312.671628 
L 294.793311 312.671628 
z
" clip-path="url(#pbb0d6f8e44)" style="fill: #d62728"/>
   </g>
   <g id="patch_37">
    <path d="M 341.99809 86490.187839 
L 347.392921 86490.187839 
L 347.392921 297.005874 
L 341.99809 297.005874 
z
" clip-path="url(#pbb0d6f8e44)" style="fill: #d62728"/>
   </g>
   <g id="patch_38">
    <path d="M 436.407647 86490.187839 
L 441.802479 86490.187839 
L 441.802479 312.431542 
L 436.407647 312.431542 
z
" clip-path="url(#pbb0d6f8e44)" style="fill: #d62728"/>
   </g>
   <g id="patch_39">
    <path d="M 719.636321 86490.187839 
L 725.031153 86490.187839 
L 725.031153 79.932342 
L 719.636321 79.932342 
z
" clip-path="url(#pbb0d6f8e44)" style="fill: #d62728"/>
   </g>
   <g id="patch_40">
    <path d="M 111.369027 86490.187839 
L 116.763859 86490.187839 
L 116.763859 254.595011 
L 111.369027 254.595011 
z
" clip-path="url(#pbb0d6f8e44)" style="fill: #9467bd"/>
   </g>
   <g id="patch_41">
    <path d="M 158.573806 86490.187839 
L 163.968637 86490.187839 
L 163.968637 250.68777 
L 158.573806 250.68777 
z
" clip-path="url(#pbb0d6f8e44)" style="fill: #9467bd"/>
   </g>
   <g id="patch_42">
    <path d="M 205.778585 86490.187839 
L 211.173416 86490.187839 
L 211.173416 204.617947 
L 205.778585 204.617947 
z
" clip-path="url(#pbb0d6f8e44)" style="fill: #9467bd"/>
   </g>
   <g id="patch_43">
    <path d="M 252.983364 86490.187839 
L 258.378195 86490.187839 
L 258.378195 313.442262 
L 252.983364 313.442262 
z
" clip-path="url(#pbb0d6f8e44)" style="fill: #9467bd"/>
   </g>
   <g id="patch_44">
    <path d="M 300.188142 86490.187839 
L 305.582974 86490.187839 
L 305.582974 310.526625 
L 300.188142 310.526625 
z
" clip-path="url(#pbb0d6f8e44)" style="fill: #9467bd"/>
   </g>
   <g id="patch_45">
    <path d="M 347.392921 86490.187839 
L 352.787753 86490.187839 
L 352.787753 300.169382 
L 347.392921 300.169382 
z
" clip-path="url(#pbb0d6f8e44)" style="fill: #9467bd"/>
   </g>
   <g id="patch_46">
    <path d="M 441.802479 86490.187839 
L 447.197311 86490.187839 
L 447.197311 310.337606 
L 441.802479 310.337606 
z
" clip-path="url(#pbb0d6f8e44)" style="fill: #9467bd"/>
   </g>
   <g id="patch_47">
    <path d="M 725.031153 86490.187839 
L 730.425985 86490.187839 
L 730.425985 77.861277 
L 725.031153 77.861277 
z
" clip-path="url(#pbb0d6f8e44)" style="fill: #9467bd"/>
   </g>
   <g id="patch_48">
    <path d="M 772.235932 86490.187839 
L 777.630764 86490.187839 
L 777.630764 127.475675 
L 772.235932 127.475675 
z
" clip-path="url(#pbb0d6f8e44)" style="fill: #9467bd"/>
   </g>
   <g id="patch_49">
    <path d="M 819.440711 86490.187839 
L 824.835543 86490.187839 
L 824.835543 120.161808 
L 819.440711 120.161808 
z
" clip-path="url(#pbb0d6f8e44)" style="fill: #9467bd"/>
   </g>
   <g id="patch_50">
    <path d="M 116.763859 86490.187839 
L 122.15869 86490.187839 
L 122.15869 247.871846 
L 116.763859 247.871846 
z
" clip-path="url(#pbb0d6f8e44)" style="fill: #8c564b"/>
   </g>
   <g id="patch_51">
    <path d="M 163.968637 86490.187839 
L 169.363469 86490.187839 
L 169.363469 243.81991 
L 163.968637 243.81991 
z
" clip-path="url(#pbb0d6f8e44)" style="fill: #8c564b"/>
   </g>
   <g id="patch_52">
    <path d="M 211.173416 86490.187839 
L 216.568248 86490.187839 
L 216.568248 205.164501 
L 211.173416 205.164501 
z
" clip-path="url(#pbb0d6f8e44)" style="fill: #8c564b"/>
   </g>
   <g id="patch_53">
    <path d="M 258.378195 86490.187839 
L 263.773027 86490.187839 
L 263.773027 311.564217 
L 258.378195 311.564217 
z
" clip-path="url(#pbb0d6f8e44)" style="fill: #8c564b"/>
   </g>
   <g id="patch_54">
    <path d="M 305.582974 86490.187839 
L 310.977806 86490.187839 
L 310.977806 309.627948 
L 305.582974 309.627948 
z
" clip-path="url(#pbb0d6f8e44)" style="fill: #8c564b"/>
   </g>
   <g id="patch_55">
    <path d="M 352.787753 86490.187839 
L 358.182585 86490.187839 
L 358.182585 296.560184 
L 352.787753 296.560184 
z
" clip-path="url(#pbb0d6f8e44)" style="fill: #8c564b"/>
   </g>
   <g id="patch_56">
    <path d="M 447.197311 86490.187839 
L 452.592143 86490.187839 
L 452.592143 307.752069 
L 447.197311 307.752069 
z
" clip-path="url(#pbb0d6f8e44)" style="fill: #8c564b"/>
   </g>
   <g id="patch_57">
    <path d="M 730.425985 86490.187839 
L 735.820817 86490.187839 
L 735.820817 77.350212 
L 730.425985 77.350212 
z
" clip-path="url(#pbb0d6f8e44)" style="fill: #8c564b"/>
   </g>
   <g id="patch_58">
    <path d="M 777.630764 86490.187839 
L 783.025596 86490.187839 
L 783.025596 116.53178 
L 777.630764 116.53178 
z
" clip-path="url(#pbb0d6f8e44)" style="fill: #8c564b"/>
   </g>
   <g id="patch_59">
    <path d="M 122.15869 86490.187839 
L 127.553522 86490.187839 
L 127.553522 263.269454 
L 122.15869 263.269454 
z
" clip-path="url(#pbb0d6f8e44)" style="fill: #e377c2"/>
   </g>
   <g id="patch_60">
    <path d="M 169.363469 86490.187839 
L 174.758301 86490.187839 
L 174.758301 256.673435 
L 169.363469 256.673435 
z
" clip-path="url(#pbb0d6f8e44)" style="fill: #e377c2"/>
   </g>
   <g id="patch_61">
    <path d="M 216.568248 86490.187839 
L 221.96308 86490.187839 
L 221.96308 207.775212 
L 216.568248 207.775212 
z
" clip-path="url(#pbb0d6f8e44)" style="fill: #e377c2"/>
   </g>
   <g id="patch_62">
    <path d="M 263.773027 86490.187839 
L 269.167859 86490.187839 
L 269.167859 313.197179 
L 263.773027 313.197179 
z
" clip-path="url(#pbb0d6f8e44)" style="fill: #e377c2"/>
   </g>
   <g id="patch_63">
    <path d="M 310.977806 86490.187839 
L 316.372638 86490.187839 
L 316.372638 313.524315 
L 310.977806 313.524315 
z
" clip-path="url(#pbb0d6f8e44)" style="fill: #e377c2"/>
   </g>
   <g id="patch_64">
    <path d="M 358.182585 86490.187839 
L 363.577417 86490.187839 
L 363.577417 325.477589 
L 358.182585 325.477589 
z
" clip-path="url(#pbb0d6f8e44)" style="fill: #e377c2"/>
   </g>
   <g id="patch_65">
    <path d="M 405.387364 86490.187839 
L 410.782196 86490.187839 
L 410.782196 323.980111 
L 405.387364 323.980111 
z
" clip-path="url(#pbb0d6f8e44)" style="fill: #e377c2"/>
   </g>
   <g id="patch_66">
    <path d="M 452.592143 86490.187839 
L 457.986975 86490.187839 
L 457.986975 337.609305 
L 452.592143 337.609305 
z
" clip-path="url(#pbb0d6f8e44)" style="fill: #e377c2"/>
   </g>
   <g id="patch_67">
    <path d="M 499.796922 86490.187839 
L 505.191754 86490.187839 
L 505.191754 313.730242 
L 499.796922 313.730242 
z
" clip-path="url(#pbb0d6f8e44)" style="fill: #e377c2"/>
   </g>
   <g id="patch_68">
    <path d="M 547.001701 86490.187839 
L 552.396533 86490.187839 
L 552.396533 235.724399 
L 547.001701 235.724399 
z
" clip-path="url(#pbb0d6f8e44)" style="fill: #e377c2"/>
   </g>
   <g id="patch_69">
    <path d="M 594.20648 86490.187839 
L 599.601312 86490.187839 
L 599.601312 187.206416 
L 594.20648 187.206416 
z
" clip-path="url(#pbb0d6f8e44)" style="fill: #e377c2"/>
   </g>
   <g id="patch_70">
    <path d="M 641.411259 86490.187839 
L 646.806091 86490.187839 
L 646.806091 194.741647 
L 641.411259 194.741647 
z
" clip-path="url(#pbb0d6f8e44)" style="fill: #e377c2"/>
   </g>
   <g id="patch_71">
    <path d="M 688.616038 86490.187839 
L 694.01087 86490.187839 
L 694.01087 138.772598 
L 688.616038 138.772598 
z
" clip-path="url(#pbb0d6f8e44)" style="fill: #e377c2"/>
   </g>
   <g id="patch_72">
    <path d="M 735.820817 86490.187839 
L 741.215649 86490.187839 
L 741.215649 219.974557 
L 735.820817 219.974557 
z
" clip-path="url(#pbb0d6f8e44)" style="fill: #e377c2"/>
   </g>
   <g id="patch_73">
    <path d="M 783.025596 86490.187839 
L 788.420428 86490.187839 
L 788.420428 144.471153 
L 783.025596 144.471153 
z
" clip-path="url(#pbb0d6f8e44)" style="fill: #e377c2"/>
   </g>
   <g id="patch_74">
    <path d="M 830.230375 86490.187839 
L 835.625207 86490.187839 
L 835.625207 155.279302 
L 830.230375 155.279302 
z
" clip-path="url(#pbb0d6f8e44)" style="fill: #e377c2"/>
   </g>
   <g id="patch_75">
    <path d="M 877.435154 86490.187839 
L 882.829986 86490.187839 
L 882.829986 207.49667 
L 877.435154 207.49667 
z
" clip-path="url(#pbb0d6f8e44)" style="fill: #e377c2"/>
   </g>
   <g id="matplotlib.axis_1">
    <g id="xtick_1">
     <g id="line2d_1">
      <defs>
       <path id="mb6eea6c9be" d="M 0 0 
L 0 3.5 
" style="stroke: #000000; stroke-width: 0.8"/>
      </defs>
      <g>
       <use xlink:href="#mb6eea6c9be" x="111.369027" y="352.405938" style="stroke: #000000; stroke-width: 0.8"/>
      </g>
     </g>
     <g id="text_1">
      <!-- alloc-test1 -->
      <g transform="translate(72.793037 401.884273) rotate(-45) scale(0.1 -0.1)">
       <defs>
        <path id="DejaVuSans-61" d="M 2194 1759 
Q 1497 1759 1228 1600 
Q 959 1441 959 1056 
Q 959 750 1161 570 
Q 1363 391 1709 391 
Q 2188 391 2477 730 
Q 2766 1069 2766 1631 
L 2766 1759 
L 2194 1759 
z
M 3341 1997 
L 3341 0 
L 2766 0 
L 2766 531 
Q 2569 213 2275 61 
Q 1981 -91 1556 -91 
Q 1019 -91 701 211 
Q 384 513 384 1019 
Q 384 1609 779 1909 
Q 1175 2209 1959 2209 
L 2766 2209 
L 2766 2266 
Q 2766 2663 2505 2880 
Q 2244 3097 1772 3097 
Q 1472 3097 1187 3025 
Q 903 2953 641 2809 
L 641 3341 
Q 956 3463 1253 3523 
Q 1550 3584 1831 3584 
Q 2591 3584 2966 3190 
Q 3341 2797 3341 1997 
z
" transform="scale(0.015625)"/>
        <path id="DejaVuSans-6c" d="M 603 4863 
L 1178 4863 
L 1178 0 
L 603 0 
L 603 4863 
z
" transform="scale(0.015625)"/>
        <path id="DejaVuSans-6f" d="M 1959 3097 
Q 1497 3097 1228 2736 
Q 959 2375 959 1747 
Q 959 1119 1226 758 
Q 1494 397 1959 397 
Q 2419 397 2687 759 
Q 2956 1122 2956 1747 
Q 2956 2369 2687 2733 
Q 2419 3097 1959 3097 
z
M 1959 3584 
Q 2709 3584 3137 3096 
Q 3566 2609 3566 1747 
Q 3566 888 3137 398 
Q 2709 -91 1959 -91 
Q 1206 -91 779 398 
Q 353 888 353 1747 
Q 353 2609 779 3096 
Q 1206 3584 1959 3584 
z
" transform="scale(0.015625)"/>
        <path id="DejaVuSans-63" d="M 3122 3366 
L 3122 2828 
Q 2878 2963 2633 3030 
Q 2388 3097 2138 3097 
Q 1578 3097 1268 2742 
Q 959 2388 959 1747 
Q 959 1106 1268 751 
Q 1578 397 2138 397 
Q 2388 397 2633 464 
Q 2878 531 3122 666 
L 3122 134 
Q 2881 22 2623 -34 
Q 2366 -91 2075 -91 
Q 1284 -91 818 406 
Q 353 903 353 1747 
Q 353 2603 823 3093 
Q 1294 3584 2113 3584 
Q 2378 3584 2631 3529 
Q 2884 3475 3122 3366 
z
" transform="scale(0.015625)"/>
        <path id="DejaVuSans-2d" d="M 313 2009 
L 1997 2009 
L 1997 1497 
L 313 1497 
L 313 2009 
z
" transform="scale(0.015625)"/>
        <path id="DejaVuSans-74" d="M 1172 4494 
L 1172 3500 
L 2356 3500 
L 2356 3053 
L 1172 3053 
L 1172 1153 
Q 1172 725 1289 603 
Q 1406 481 1766 481 
L 2356 481 
L 2356 0 
L 1766 0 
Q 1100 0 847 248 
Q 594 497 594 1153 
L 594 3053 
L 172 3053 
L 172 3500 
L 594 3500 
L 594 4494 
L 1172 4494 
z
" transform="scale(0.015625)"/>
        <path id="DejaVuSans-65" d="M 3597 1894 
L 3597 1613 
L 953 1613 
Q 991 1019 1311 708 
Q 1631 397 2203 397 
Q 2534 397 2845 478 
Q 3156 559 3463 722 
L 3463 178 
Q 3153 47 2828 -22 
Q 2503 -91 2169 -91 
Q 1331 -91 842 396 
Q 353 884 353 1716 
Q 353 2575 817 3079 
Q 1281 3584 2069 3584 
Q 2775 3584 3186 3129 
Q 3597 2675 3597 1894 
z
M 3022 2063 
Q 3016 2534 2758 2815 
Q 2500 3097 2075 3097 
Q 1594 3097 1305 2825 
Q 1016 2553 972 2059 
L 3022 2063 
z
" transform="scale(0.015625)"/>
        <path id="DejaVuSans-73" d="M 2834 3397 
L 2834 2853 
Q 2591 2978 2328 3040 
Q 2066 3103 1784 3103 
Q 1356 3103 1142 2972 
Q 928 2841 928 2578 
Q 928 2378 1081 2264 
Q 1234 2150 1697 2047 
L 1894 2003 
Q 2506 1872 2764 1633 
Q 3022 1394 3022 966 
Q 3022 478 2636 193 
Q 2250 -91 1575 -91 
Q 1294 -91 989 -36 
Q 684 19 347 128 
L 347 722 
Q 666 556 975 473 
Q 1284 391 1588 391 
Q 1994 391 2212 530 
Q 2431 669 2431 922 
Q 2431 1156 2273 1281 
Q 2116 1406 1581 1522 
L 1381 1569 
Q 847 1681 609 1914 
Q 372 2147 372 2553 
Q 372 3047 722 3315 
Q 1072 3584 1716 3584 
Q 2034 3584 2315 3537 
Q 2597 3491 2834 3397 
z
" transform="scale(0.015625)"/>
        <path id="DejaVuSans-31" d="M 794 531 
L 1825 531 
L 1825 4091 
L 703 3866 
L 703 4441 
L 1819 4666 
L 2450 4666 
L 2450 531 
L 3481 531 
L 3481 0 
L 794 0 
L 794 531 
z
" transform="scale(0.015625)"/>
       </defs>
       <use xlink:href="#DejaVuSans-61"/>
       <use xlink:href="#DejaVuSans-6c" transform="translate(61.279297 0)"/>
       <use xlink:href="#DejaVuSans-6c" transform="translate(89.0625 0)"/>
       <use xlink:href="#DejaVuSans-6f" transform="translate(116.845703 0)"/>
       <use xlink:href="#DejaVuSans-63" transform="translate(178.027344 0)"/>
       <use xlink:href="#DejaVuSans-2d" transform="translate(233.007812 0)"/>
       <use xlink:href="#DejaVuSans-74" transform="translate(269.091797 0)"/>
       <use xlink:href="#DejaVuSans-65" transform="translate(308.300781 0)"/>
       <use xlink:href="#DejaVuSans-73" transform="translate(369.824219 0)"/>
       <use xlink:href="#DejaVuSans-74" transform="translate(421.923828 0)"/>
       <use xlink:href="#DejaVuSans-31" transform="translate(461.132812 0)"/>
      </g>
     </g>
    </g>
    <g id="xtick_2">
     <g id="line2d_2">
      <g>
       <use xlink:href="#mb6eea6c9be" x="158.573806" y="352.405938" style="stroke: #000000; stroke-width: 0.8"/>
      </g>
     </g>
     <g id="text_2">
      <!-- alloc-testN -->
      <g transform="translate(119.20674 402.675349) rotate(-45) scale(0.1 -0.1)">
       <defs>
        <path id="DejaVuSans-4e" d="M 628 4666 
L 1478 4666 
L 3547 763 
L 3547 4666 
L 4159 4666 
L 4159 0 
L 3309 0 
L 1241 3903 
L 1241 0 
L 628 0 
L 628 4666 
z
" transform="scale(0.015625)"/>
       </defs>
       <use xlink:href="#DejaVuSans-61"/>
       <use xlink:href="#DejaVuSans-6c" transform="translate(61.279297 0)"/>
       <use xlink:href="#DejaVuSans-6c" transform="translate(89.0625 0)"/>
       <use xlink:href="#DejaVuSans-6f" transform="translate(116.845703 0)"/>
       <use xlink:href="#DejaVuSans-63" transform="translate(178.027344 0)"/>
       <use xlink:href="#DejaVuSans-2d" transform="translate(233.007812 0)"/>
       <use xlink:href="#DejaVuSans-74" transform="translate(269.091797 0)"/>
       <use xlink:href="#DejaVuSans-65" transform="translate(308.300781 0)"/>
       <use xlink:href="#DejaVuSans-73" transform="translate(369.824219 0)"/>
       <use xlink:href="#DejaVuSans-74" transform="translate(421.923828 0)"/>
       <use xlink:href="#DejaVuSans-4e" transform="translate(461.132812 0)"/>
      </g>
     </g>
    </g>
    <g id="xtick_3">
     <g id="line2d_3">
      <g>
       <use xlink:href="#mb6eea6c9be" x="205.778585" y="352.405938" style="stroke: #000000; stroke-width: 0.8"/>
      </g>
     </g>
     <g id="text_3">
      <!-- barnes -->
      <g transform="translate(180.186843 388.900025) rotate(-45) scale(0.1 -0.1)">
       <defs>
        <path id="DejaVuSans-62" d="M 3116 1747 
Q 3116 2381 2855 2742 
Q 2594 3103 2138 3103 
Q 1681 3103 1420 2742 
Q 1159 2381 1159 1747 
Q 1159 1113 1420 752 
Q 1681 391 2138 391 
Q 2594 391 2855 752 
Q 3116 1113 3116 1747 
z
M 1159 2969 
Q 1341 3281 1617 3432 
Q 1894 3584 2278 3584 
Q 2916 3584 3314 3078 
Q 3713 2572 3713 1747 
Q 3713 922 3314 415 
Q 2916 -91 2278 -91 
Q 1894 -91 1617 61 
Q 1341 213 1159 525 
L 1159 0 
L 581 0 
L 581 4863 
L 1159 4863 
L 1159 2969 
z
" transform="scale(0.015625)"/>
        <path id="DejaVuSans-72" d="M 2631 2963 
Q 2534 3019 2420 3045 
Q 2306 3072 2169 3072 
Q 1681 3072 1420 2755 
Q 1159 2438 1159 1844 
L 1159 0 
L 581 0 
L 581 3500 
L 1159 3500 
L 1159 2956 
Q 1341 3275 1631 3429 
Q 1922 3584 2338 3584 
Q 2397 3584 2469 3576 
Q 2541 3569 2628 3553 
L 2631 2963 
z
" transform="scale(0.015625)"/>
        <path id="DejaVuSans-6e" d="M 3513 2113 
L 3513 0 
L 2938 0 
L 2938 2094 
Q 2938 2591 2744 2837 
Q 2550 3084 2163 3084 
Q 1697 3084 1428 2787 
Q 1159 2491 1159 1978 
L 1159 0 
L 581 0 
L 581 3500 
L 1159 3500 
L 1159 2956 
Q 1366 3272 1645 3428 
Q 1925 3584 2291 3584 
Q 2894 3584 3203 3211 
Q 3513 2838 3513 2113 
z
" transform="scale(0.015625)"/>
       </defs>
       <use xlink:href="#DejaVuSans-62"/>
       <use xlink:href="#DejaVuSans-61" transform="translate(63.476562 0)"/>
       <use xlink:href="#DejaVuSans-72" transform="translate(124.755859 0)"/>
       <use xlink:href="#DejaVuSans-6e" transform="translate(164.119141 0)"/>
       <use xlink:href="#DejaVuSans-65" transform="translate(227.498047 0)"/>
       <use xlink:href="#DejaVuSans-73" transform="translate(289.021484 0)"/>
      </g>
     </g>
    </g>
    <g id="xtick_4">
     <g id="line2d_4">
      <g>
       <use xlink:href="#mb6eea6c9be" x="252.983364" y="352.405938" style="stroke: #000000; stroke-width: 0.8"/>
      </g>
     </g>
     <g id="text_4">
      <!-- cache-scratch1 -->
      <g transform="translate(197.568289 418.723358) rotate(-45) scale(0.1 -0.1)">
       <defs>
        <path id="DejaVuSans-68" d="M 3513 2113 
L 3513 0 
L 2938 0 
L 2938 2094 
Q 2938 2591 2744 2837 
Q 2550 3084 2163 3084 
Q 1697 3084 1428 2787 
Q 1159 2491 1159 1978 
L 1159 0 
L 581 0 
L 581 4863 
L 1159 4863 
L 1159 2956 
Q 1366 3272 1645 3428 
Q 1925 3584 2291 3584 
Q 2894 3584 3203 3211 
Q 3513 2838 3513 2113 
z
" transform="scale(0.015625)"/>
       </defs>
       <use xlink:href="#DejaVuSans-63"/>
       <use xlink:href="#DejaVuSans-61" transform="translate(54.980469 0)"/>
       <use xlink:href="#DejaVuSans-63" transform="translate(116.259766 0)"/>
       <use xlink:href="#DejaVuSans-68" transform="translate(171.240234 0)"/>
       <use xlink:href="#DejaVuSans-65" transform="translate(234.619141 0)"/>
       <use xlink:href="#DejaVuSans-2d" transform="translate(296.142578 0)"/>
       <use xlink:href="#DejaVuSans-73" transform="translate(332.226562 0)"/>
       <use xlink:href="#DejaVuSans-63" transform="translate(384.326172 0)"/>
       <use xlink:href="#DejaVuSans-72" transform="translate(439.306641 0)"/>
       <use xlink:href="#DejaVuSans-61" transform="translate(480.419922 0)"/>
       <use xlink:href="#DejaVuSans-74" transform="translate(541.699219 0)"/>
       <use xlink:href="#DejaVuSans-63" transform="translate(580.908203 0)"/>
       <use xlink:href="#DejaVuSans-68" transform="translate(635.888672 0)"/>
       <use xlink:href="#DejaVuSans-31" transform="translate(699.267578 0)"/>
      </g>
     </g>
    </g>
    <g id="xtick_5">
     <g id="line2d_5">
      <g>
       <use xlink:href="#mb6eea6c9be" x="300.188142" y="352.405938" style="stroke: #000000; stroke-width: 0.8"/>
      </g>
     </g>
     <g id="text_5">
      <!-- cache-scratchN -->
      <g transform="translate(243.981992 419.514434) rotate(-45) scale(0.1 -0.1)">
       <use xlink:href="#DejaVuSans-63"/>
       <use xlink:href="#DejaVuSans-61" transform="translate(54.980469 0)"/>
       <use xlink:href="#DejaVuSans-63" transform="translate(116.259766 0)"/>
       <use xlink:href="#DejaVuSans-68" transform="translate(171.240234 0)"/>
       <use xlink:href="#DejaVuSans-65" transform="translate(234.619141 0)"/>
       <use xlink:href="#DejaVuSans-2d" transform="translate(296.142578 0)"/>
       <use xlink:href="#DejaVuSans-73" transform="translate(332.226562 0)"/>
       <use xlink:href="#DejaVuSans-63" transform="translate(384.326172 0)"/>
       <use xlink:href="#DejaVuSans-72" transform="translate(439.306641 0)"/>
       <use xlink:href="#DejaVuSans-61" transform="translate(480.419922 0)"/>
       <use xlink:href="#DejaVuSans-74" transform="translate(541.699219 0)"/>
       <use xlink:href="#DejaVuSans-63" transform="translate(580.908203 0)"/>
       <use xlink:href="#DejaVuSans-68" transform="translate(635.888672 0)"/>
       <use xlink:href="#DejaVuSans-4e" transform="translate(699.267578 0)"/>
      </g>
     </g>
    </g>
    <g id="xtick_6">
     <g id="line2d_6">
      <g>
       <use xlink:href="#mb6eea6c9be" x="347.392921" y="352.405938" style="stroke: #000000; stroke-width: 0.8"/>
      </g>
     </g>
     <g id="text_6">
      <!-- cfrac -->
      <g transform="translate(328.417048 382.284157) rotate(-45) scale(0.1 -0.1)">
       <defs>
        <path id="DejaVuSans-66" d="M 2375 4863 
L 2375 4384 
L 1825 4384 
Q 1516 4384 1395 4259 
Q 1275 4134 1275 3809 
L 1275 3500 
L 2222 3500 
L 2222 3053 
L 1275 3053 
L 1275 0 
L 697 0 
L 697 3053 
L 147 3053 
L 147 3500 
L 697 3500 
L 697 3744 
Q 697 4328 969 4595 
Q 1241 4863 1831 4863 
L 2375 4863 
z
" transform="scale(0.015625)"/>
       </defs>
       <use xlink:href="#DejaVuSans-63"/>
       <use xlink:href="#DejaVuSans-66" transform="translate(54.980469 0)"/>
       <use xlink:href="#DejaVuSans-72" transform="translate(90.185547 0)"/>
       <use xlink:href="#DejaVuSans-61" transform="translate(131.298828 0)"/>
       <use xlink:href="#DejaVuSans-63" transform="translate(192.578125 0)"/>
      </g>
     </g>
    </g>
    <g id="xtick_7">
     <g id="line2d_7">
      <g>
       <use xlink:href="#mb6eea6c9be" x="394.5977" y="352.405938" style="stroke: #000000; stroke-width: 0.8"/>
      </g>
     </g>
     <g id="text_7">
      <!-- espresso -->
      <g transform="translate(361.811148 396.094837) rotate(-45) scale(0.1 -0.1)">
       <defs>
        <path id="DejaVuSans-70" d="M 1159 525 
L 1159 -1331 
L 581 -1331 
L 581 3500 
L 1159 3500 
L 1159 2969 
Q 1341 3281 1617 3432 
Q 1894 3584 2278 3584 
Q 2916 3584 3314 3078 
Q 3713 2572 3713 1747 
Q 3713 922 3314 415 
Q 2916 -91 2278 -91 
Q 1894 -91 1617 61 
Q 1341 213 1159 525 
z
M 3116 1747 
Q 3116 2381 2855 2742 
Q 2594 3103 2138 3103 
Q 1681 3103 1420 2742 
Q 1159 2381 1159 1747 
Q 1159 1113 1420 752 
Q 1681 391 2138 391 
Q 2594 391 2855 752 
Q 3116 1113 3116 1747 
z
" transform="scale(0.015625)"/>
       </defs>
       <use xlink:href="#DejaVuSans-65"/>
       <use xlink:href="#DejaVuSans-73" transform="translate(61.523438 0)"/>
       <use xlink:href="#DejaVuSans-70" transform="translate(113.623047 0)"/>
       <use xlink:href="#DejaVuSans-72" transform="translate(177.099609 0)"/>
       <use xlink:href="#DejaVuSans-65" transform="translate(215.962891 0)"/>
       <use xlink:href="#DejaVuSans-73" transform="translate(277.486328 0)"/>
       <use xlink:href="#DejaVuSans-73" transform="translate(329.585938 0)"/>
       <use xlink:href="#DejaVuSans-6f" transform="translate(381.685547 0)"/>
      </g>
     </g>
    </g>
    <g id="xtick_8">
     <g id="line2d_8">
      <g>
       <use xlink:href="#mb6eea6c9be" x="441.802479" y="352.405938" style="stroke: #000000; stroke-width: 0.8"/>
      </g>
     </g>
     <g id="text_8">
      <!-- glibc-simple -->
      <g transform="translate(397.645871 407.464893) rotate(-45) scale(0.1 -0.1)">
       <defs>
        <path id="DejaVuSans-67" d="M 2906 1791 
Q 2906 2416 2648 2759 
Q 2391 3103 1925 3103 
Q 1463 3103 1205 2759 
Q 947 2416 947 1791 
Q 947 1169 1205 825 
Q 1463 481 1925 481 
Q 2391 481 2648 825 
Q 2906 1169 2906 1791 
z
M 3481 434 
Q 3481 -459 3084 -895 
Q 2688 -1331 1869 -1331 
Q 1566 -1331 1297 -1286 
Q 1028 -1241 775 -1147 
L 775 -588 
Q 1028 -725 1275 -790 
Q 1522 -856 1778 -856 
Q 2344 -856 2625 -561 
Q 2906 -266 2906 331 
L 2906 616 
Q 2728 306 2450 153 
Q 2172 0 1784 0 
Q 1141 0 747 490 
Q 353 981 353 1791 
Q 353 2603 747 3093 
Q 1141 3584 1784 3584 
Q 2172 3584 2450 3431 
Q 2728 3278 2906 2969 
L 2906 3500 
L 3481 3500 
L 3481 434 
z
" transform="scale(0.015625)"/>
        <path id="DejaVuSans-69" d="M 603 3500 
L 1178 3500 
L 1178 0 
L 603 0 
L 603 3500 
z
M 603 4863 
L 1178 4863 
L 1178 4134 
L 603 4134 
L 603 4863 
z
" transform="scale(0.015625)"/>
        <path id="DejaVuSans-6d" d="M 3328 2828 
Q 3544 3216 3844 3400 
Q 4144 3584 4550 3584 
Q 5097 3584 5394 3201 
Q 5691 2819 5691 2113 
L 5691 0 
L 5113 0 
L 5113 2094 
Q 5113 2597 4934 2840 
Q 4756 3084 4391 3084 
Q 3944 3084 3684 2787 
Q 3425 2491 3425 1978 
L 3425 0 
L 2847 0 
L 2847 2094 
Q 2847 2600 2669 2842 
Q 2491 3084 2119 3084 
Q 1678 3084 1418 2786 
Q 1159 2488 1159 1978 
L 1159 0 
L 581 0 
L 581 3500 
L 1159 3500 
L 1159 2956 
Q 1356 3278 1631 3431 
Q 1906 3584 2284 3584 
Q 2666 3584 2933 3390 
Q 3200 3197 3328 2828 
z
" transform="scale(0.015625)"/>
       </defs>
       <use xlink:href="#DejaVuSans-67"/>
       <use xlink:href="#DejaVuSans-6c" transform="translate(63.476562 0)"/>
       <use xlink:href="#DejaVuSans-69" transform="translate(91.259766 0)"/>
       <use xlink:href="#DejaVuSans-62" transform="translate(119.042969 0)"/>
       <use xlink:href="#DejaVuSans-63" transform="translate(182.519531 0)"/>
       <use xlink:href="#DejaVuSans-2d" transform="translate(237.5 0)"/>
       <use xlink:href="#DejaVuSans-73" transform="translate(273.583984 0)"/>
       <use xlink:href="#DejaVuSans-69" transform="translate(325.683594 0)"/>
       <use xlink:href="#DejaVuSans-6d" transform="translate(353.466797 0)"/>
       <use xlink:href="#DejaVuSans-70" transform="translate(450.878906 0)"/>
       <use xlink:href="#DejaVuSans-6c" transform="translate(514.355469 0)"/>
       <use xlink:href="#DejaVuSans-65" transform="translate(542.138672 0)"/>
      </g>
     </g>
    </g>
    <g id="xtick_9">
     <g id="line2d_9">
      <g>
       <use xlink:href="#mb6eea6c9be" x="489.007258" y="352.405938" style="stroke: #000000; stroke-width: 0.8"/>
      </g>
     </g>
     <g id="text_9">
      <!-- glibc-thread -->
      <g transform="translate(445.016378 407.299165) rotate(-45) scale(0.1 -0.1)">
       <defs>
        <path id="DejaVuSans-64" d="M 2906 2969 
L 2906 4863 
L 3481 4863 
L 3481 0 
L 2906 0 
L 2906 525 
Q 2725 213 2448 61 
Q 2172 -91 1784 -91 
Q 1150 -91 751 415 
Q 353 922 353 1747 
Q 353 2572 751 3078 
Q 1150 3584 1784 3584 
Q 2172 3584 2448 3432 
Q 2725 3281 2906 2969 
z
M 947 1747 
Q 947 1113 1208 752 
Q 1469 391 1925 391 
Q 2381 391 2643 752 
Q 2906 1113 2906 1747 
Q 2906 2381 2643 2742 
Q 2381 3103 1925 3103 
Q 1469 3103 1208 2742 
Q 947 2381 947 1747 
z
" transform="scale(0.015625)"/>
       </defs>
       <use xlink:href="#DejaVuSans-67"/>
       <use xlink:href="#DejaVuSans-6c" transform="translate(63.476562 0)"/>
       <use xlink:href="#DejaVuSans-69" transform="translate(91.259766 0)"/>
       <use xlink:href="#DejaVuSans-62" transform="translate(119.042969 0)"/>
       <use xlink:href="#DejaVuSans-63" transform="translate(182.519531 0)"/>
       <use xlink:href="#DejaVuSans-2d" transform="translate(237.5 0)"/>
       <use xlink:href="#DejaVuSans-74" transform="translate(273.583984 0)"/>
       <use xlink:href="#DejaVuSans-68" transform="translate(312.792969 0)"/>
       <use xlink:href="#DejaVuSans-72" transform="translate(376.171875 0)"/>
       <use xlink:href="#DejaVuSans-65" transform="translate(415.035156 0)"/>
       <use xlink:href="#DejaVuSans-61" transform="translate(476.558594 0)"/>
       <use xlink:href="#DejaVuSans-64" transform="translate(537.837891 0)"/>
      </g>
     </g>
    </g>
    <g id="xtick_10">
     <g id="line2d_10">
      <g>
       <use xlink:href="#mb6eea6c9be" x="536.212037" y="352.405938" style="stroke: #000000; stroke-width: 0.8"/>
      </g>
     </g>
     <g id="text_10">
      <!-- gs -->
      <g transform="translate(526.568869 372.951453) rotate(-45) scale(0.1 -0.1)">
       <use xlink:href="#DejaVuSans-67"/>
       <use xlink:href="#DejaVuSans-73" transform="translate(63.476562 0)"/>
      </g>
     </g>
    </g>
    <g id="xtick_11">
     <g id="line2d_11">
      <g>
       <use xlink:href="#mb6eea6c9be" x="583.416816" y="352.405938" style="stroke: #000000; stroke-width: 0.8"/>
      </g>
     </g>
     <g id="text_11">
      <!-- larsonN-sized -->
      <g transform="translate(534.209918 412.515182) rotate(-45) scale(0.1 -0.1)">
       <defs>
        <path id="DejaVuSans-7a" d="M 353 3500 
L 3084 3500 
L 3084 2975 
L 922 459 
L 3084 459 
L 3084 0 
L 275 0 
L 275 525 
L 2438 3041 
L 353 3041 
L 353 3500 
z
" transform="scale(0.015625)"/>
       </defs>
       <use xlink:href="#DejaVuSans-6c"/>
       <use xlink:href="#DejaVuSans-61" transform="translate(27.783203 0)"/>
       <use xlink:href="#DejaVuSans-72" transform="translate(89.0625 0)"/>
       <use xlink:href="#DejaVuSans-73" transform="translate(130.175781 0)"/>
       <use xlink:href="#DejaVuSans-6f" transform="translate(182.275391 0)"/>
       <use xlink:href="#DejaVuSans-6e" transform="translate(243.457031 0)"/>
       <use xlink:href="#DejaVuSans-4e" transform="translate(306.835938 0)"/>
       <use xlink:href="#DejaVuSans-2d" transform="translate(381.640625 0)"/>
       <use xlink:href="#DejaVuSans-73" transform="translate(417.724609 0)"/>
       <use xlink:href="#DejaVuSans-69" transform="translate(469.824219 0)"/>
       <use xlink:href="#DejaVuSans-7a" transform="translate(497.607422 0)"/>
       <use xlink:href="#DejaVuSans-65" transform="translate(550.097656 0)"/>
       <use xlink:href="#DejaVuSans-64" transform="translate(611.621094 0)"/>
      </g>
     </g>
    </g>
    <g id="xtick_12">
     <g id="line2d_12">
      <g>
       <use xlink:href="#mb6eea6c9be" x="630.621595" y="352.405938" style="stroke: #000000; stroke-width: 0.8"/>
      </g>
     </g>
     <g id="text_12">
      <!-- lua -->
      <g transform="translate(618.372075 375.557804) rotate(-45) scale(0.1 -0.1)">
       <defs>
        <path id="DejaVuSans-75" d="M 544 1381 
L 544 3500 
L 1119 3500 
L 1119 1403 
Q 1119 906 1312 657 
Q 1506 409 1894 409 
Q 2359 409 2629 706 
Q 2900 1003 2900 1516 
L 2900 3500 
L 3475 3500 
L 3475 0 
L 2900 0 
L 2900 538 
Q 2691 219 2414 64 
Q 2138 -91 1772 -91 
Q 1169 -91 856 284 
Q 544 659 544 1381 
z
M 1991 3584 
L 1991 3584 
z
" transform="scale(0.015625)"/>
       </defs>
       <use xlink:href="#DejaVuSans-6c"/>
       <use xlink:href="#DejaVuSans-75" transform="translate(27.783203 0)"/>
       <use xlink:href="#DejaVuSans-61" transform="translate(91.162109 0)"/>
      </g>
     </g>
    </g>
    <g id="xtick_13">
     <g id="line2d_13">
      <g>
       <use xlink:href="#mb6eea6c9be" x="677.826374" y="352.405938" style="stroke: #000000; stroke-width: 0.8"/>
      </g>
     </g>
     <g id="text_13">
      <!-- mstressN -->
      <g transform="translate(643.256587 397.878072) rotate(-45) scale(0.1 -0.1)">
       <use xlink:href="#DejaVuSans-6d"/>
       <use xlink:href="#DejaVuSans-73" transform="translate(97.412109 0)"/>
       <use xlink:href="#DejaVuSans-74" transform="translate(149.511719 0)"/>
       <use xlink:href="#DejaVuSans-72" transform="translate(188.720703 0)"/>
       <use xlink:href="#DejaVuSans-65" transform="translate(227.583984 0)"/>
       <use xlink:href="#DejaVuSans-73" transform="translate(289.107422 0)"/>
       <use xlink:href="#DejaVuSans-73" transform="translate(341.207031 0)"/>
       <use xlink:href="#DejaVuSans-4e" transform="translate(393.306641 0)"/>
      </g>
     </g>
    </g>
    <g id="xtick_14">
     <g id="line2d_14">
      <g>
       <use xlink:href="#mb6eea6c9be" x="725.031153" y="352.405938" style="stroke: #000000; stroke-width: 0.8"/>
      </g>
     </g>
     <g id="text_14">
      <!-- rptestN -->
      <g transform="translate(697.295995 391.043443) rotate(-45) scale(0.1 -0.1)">
       <use xlink:href="#DejaVuSans-72"/>
       <use xlink:href="#DejaVuSans-70" transform="translate(41.113281 0)"/>
       <use xlink:href="#DejaVuSans-74" transform="translate(104.589844 0)"/>
       <use xlink:href="#DejaVuSans-65" transform="translate(143.798828 0)"/>
       <use xlink:href="#DejaVuSans-73" transform="translate(205.322266 0)"/>
       <use xlink:href="#DejaVuSans-74" transform="translate(257.421875 0)"/>
       <use xlink:href="#DejaVuSans-4e" transform="translate(296.630859 0)"/>
      </g>
     </g>
    </g>
    <g id="xtick_15">
     <g id="line2d_15">
      <g>
       <use xlink:href="#mb6eea6c9be" x="772.235932" y="352.405938" style="stroke: #000000; stroke-width: 0.8"/>
      </g>
     </g>
     <g id="text_15">
      <!-- sh6benchN -->
      <g transform="translate(731.120987 404.423229) rotate(-45) scale(0.1 -0.1)">
       <defs>
        <path id="DejaVuSans-36" d="M 2113 2584 
Q 1688 2584 1439 2293 
Q 1191 2003 1191 1497 
Q 1191 994 1439 701 
Q 1688 409 2113 409 
Q 2538 409 2786 701 
Q 3034 994 3034 1497 
Q 3034 2003 2786 2293 
Q 2538 2584 2113 2584 
z
M 3366 4563 
L 3366 3988 
Q 3128 4100 2886 4159 
Q 2644 4219 2406 4219 
Q 1781 4219 1451 3797 
Q 1122 3375 1075 2522 
Q 1259 2794 1537 2939 
Q 1816 3084 2150 3084 
Q 2853 3084 3261 2657 
Q 3669 2231 3669 1497 
Q 3669 778 3244 343 
Q 2819 -91 2113 -91 
Q 1303 -91 875 529 
Q 447 1150 447 2328 
Q 447 3434 972 4092 
Q 1497 4750 2381 4750 
Q 2619 4750 2861 4703 
Q 3103 4656 3366 4563 
z
" transform="scale(0.015625)"/>
       </defs>
       <use xlink:href="#DejaVuSans-73"/>
       <use xlink:href="#DejaVuSans-68" transform="translate(52.099609 0)"/>
       <use xlink:href="#DejaVuSans-36" transform="translate(115.478516 0)"/>
       <use xlink:href="#DejaVuSans-62" transform="translate(179.101562 0)"/>
       <use xlink:href="#DejaVuSans-65" transform="translate(242.578125 0)"/>
       <use xlink:href="#DejaVuSans-6e" transform="translate(304.101562 0)"/>
       <use xlink:href="#DejaVuSans-63" transform="translate(367.480469 0)"/>
       <use xlink:href="#DejaVuSans-68" transform="translate(422.460938 0)"/>
       <use xlink:href="#DejaVuSans-4e" transform="translate(485.839844 0)"/>
      </g>
     </g>
    </g>
    <g id="xtick_16">
     <g id="line2d_16">
      <g>
       <use xlink:href="#mb6eea6c9be" x="819.440711" y="352.405938" style="stroke: #000000; stroke-width: 0.8"/>
      </g>
     </g>
     <g id="text_16">
      <!-- sh8benchN -->
      <g transform="translate(778.325766 404.423229) rotate(-45) scale(0.1 -0.1)">
       <defs>
        <path id="DejaVuSans-38" d="M 2034 2216 
Q 1584 2216 1326 1975 
Q 1069 1734 1069 1313 
Q 1069 891 1326 650 
Q 1584 409 2034 409 
Q 2484 409 2743 651 
Q 3003 894 3003 1313 
Q 3003 1734 2745 1975 
Q 2488 2216 2034 2216 
z
M 1403 2484 
Q 997 2584 770 2862 
Q 544 3141 544 3541 
Q 544 4100 942 4425 
Q 1341 4750 2034 4750 
Q 2731 4750 3128 4425 
Q 3525 4100 3525 3541 
Q 3525 3141 3298 2862 
Q 3072 2584 2669 2484 
Q 3125 2378 3379 2068 
Q 3634 1759 3634 1313 
Q 3634 634 3220 271 
Q 2806 -91 2034 -91 
Q 1263 -91 848 271 
Q 434 634 434 1313 
Q 434 1759 690 2068 
Q 947 2378 1403 2484 
z
M 1172 3481 
Q 1172 3119 1398 2916 
Q 1625 2713 2034 2713 
Q 2441 2713 2670 2916 
Q 2900 3119 2900 3481 
Q 2900 3844 2670 4047 
Q 2441 4250 2034 4250 
Q 1625 4250 1398 4047 
Q 1172 3844 1172 3481 
z
" transform="scale(0.015625)"/>
       </defs>
       <use xlink:href="#DejaVuSans-73"/>
       <use xlink:href="#DejaVuSans-68" transform="translate(52.099609 0)"/>
       <use xlink:href="#DejaVuSans-38" transform="translate(115.478516 0)"/>
       <use xlink:href="#DejaVuSans-62" transform="translate(179.101562 0)"/>
       <use xlink:href="#DejaVuSans-65" transform="translate(242.578125 0)"/>
       <use xlink:href="#DejaVuSans-6e" transform="translate(304.101562 0)"/>
       <use xlink:href="#DejaVuSans-63" transform="translate(367.480469 0)"/>
       <use xlink:href="#DejaVuSans-68" transform="translate(422.460938 0)"/>
       <use xlink:href="#DejaVuSans-4e" transform="translate(485.839844 0)"/>
      </g>
     </g>
    </g>
    <g id="xtick_17">
     <g id="line2d_17">
      <g>
       <use xlink:href="#mb6eea6c9be" x="866.64549" y="352.405938" style="stroke: #000000; stroke-width: 0.8"/>
      </g>
     </g>
     <g id="text_17">
      <!-- xmalloc-testN -->
      <g transform="translate(816.205575 413.748199) rotate(-45) scale(0.1 -0.1)">
       <defs>
        <path id="DejaVuSans-78" d="M 3513 3500 
L 2247 1797 
L 3578 0 
L 2900 0 
L 1881 1375 
L 863 0 
L 184 0 
L 1544 1831 
L 300 3500 
L 978 3500 
L 1906 2253 
L 2834 3500 
L 3513 3500 
z
" transform="scale(0.015625)"/>
       </defs>
       <use xlink:href="#DejaVuSans-78"/>
       <use xlink:href="#DejaVuSans-6d" transform="translate(59.179688 0)"/>
       <use xlink:href="#DejaVuSans-61" transform="translate(156.591797 0)"/>
       <use xlink:href="#DejaVuSans-6c" transform="translate(217.871094 0)"/>
       <use xlink:href="#DejaVuSans-6c" transform="translate(245.654297 0)"/>
       <use xlink:href="#DejaVuSans-6f" transform="translate(273.4375 0)"/>
       <use xlink:href="#DejaVuSans-63" transform="translate(334.619141 0)"/>
       <use xlink:href="#DejaVuSans-2d" transform="translate(389.599609 0)"/>
       <use xlink:href="#DejaVuSans-74" transform="translate(425.683594 0)"/>
       <use xlink:href="#DejaVuSans-65" transform="translate(464.892578 0)"/>
       <use xlink:href="#DejaVuSans-73" transform="translate(526.416016 0)"/>
       <use xlink:href="#DejaVuSans-74" transform="translate(578.515625 0)"/>
       <use xlink:href="#DejaVuSans-4e" transform="translate(617.724609 0)"/>
      </g>
     </g>
    </g>
   </g>
   <g id="matplotlib.axis_2">
    <g id="ytick_1">
     <g id="line2d_18">
      <defs>
       <path id="m48651a428f" d="M 0 0 
L -3.5 0 
" style="stroke: #000000; stroke-width: 0.8"/>
      </defs>
      <g>
       <use xlink:href="#m48651a428f" x="50.137685" y="275.753621" style="stroke: #000000; stroke-width: 0.8"/>
      </g>
     </g>
     <g id="text_18">
      <!-- $\mathdefault{10^{4}}$ -->
      <g transform="translate(25.537685 279.552839) scale(0.1 -0.1)">
       <defs>
        <path id="DejaVuSans-30" d="M 2034 4250 
Q 1547 4250 1301 3770 
Q 1056 3291 1056 2328 
Q 1056 1369 1301 889 
Q 1547 409 2034 409 
Q 2525 409 2770 889 
Q 3016 1369 3016 2328 
Q 3016 3291 2770 3770 
Q 2525 4250 2034 4250 
z
M 2034 4750 
Q 2819 4750 3233 4129 
Q 3647 3509 3647 2328 
Q 3647 1150 3233 529 
Q 2819 -91 2034 -91 
Q 1250 -91 836 529 
Q 422 1150 422 2328 
Q 422 3509 836 4129 
Q 1250 4750 2034 4750 
z
" transform="scale(0.015625)"/>
        <path id="DejaVuSans-34" d="M 2419 4116 
L 825 1625 
L 2419 1625 
L 2419 4116 
z
M 2253 4666 
L 3047 4666 
L 3047 1625 
L 3713 1625 
L 3713 1100 
L 3047 1100 
L 3047 0 
L 2419 0 
L 2419 1100 
L 313 1100 
L 313 1709 
L 2253 4666 
z
" transform="scale(0.015625)"/>
       </defs>
       <use xlink:href="#DejaVuSans-31" transform="translate(0 0.684375)"/>
       <use xlink:href="#DejaVuSans-30" transform="translate(63.623047 0.684375)"/>
       <use xlink:href="#DejaVuSans-34" transform="translate(128.203125 38.965625) scale(0.7)"/>
      </g>
     </g>
    </g>
    <g id="ytick_2">
     <g id="line2d_19">
      <g>
       <use xlink:href="#m48651a428f" x="50.137685" y="189.88267" style="stroke: #000000; stroke-width: 0.8"/>
      </g>
     </g>
     <g id="text_19">
      <!-- $\mathdefault{10^{5}}$ -->
      <g transform="translate(25.537685 193.681889) scale(0.1 -0.1)">
       <defs>
        <path id="DejaVuSans-35" d="M 691 4666 
L 3169 4666 
L 3169 4134 
L 1269 4134 
L 1269 2991 
Q 1406 3038 1543 3061 
Q 1681 3084 1819 3084 
Q 2600 3084 3056 2656 
Q 3513 2228 3513 1497 
Q 3513 744 3044 326 
Q 2575 -91 1722 -91 
Q 1428 -91 1123 -41 
Q 819 9 494 109 
L 494 744 
Q 775 591 1075 516 
Q 1375 441 1709 441 
Q 2250 441 2565 725 
Q 2881 1009 2881 1497 
Q 2881 1984 2565 2268 
Q 2250 2553 1709 2553 
Q 1456 2553 1204 2497 
Q 953 2441 691 2322 
L 691 4666 
z
" transform="scale(0.015625)"/>
       </defs>
       <use xlink:href="#DejaVuSans-31" transform="translate(0 0.684375)"/>
       <use xlink:href="#DejaVuSans-30" transform="translate(63.623047 0.684375)"/>
       <use xlink:href="#DejaVuSans-35" transform="translate(128.203125 38.965625) scale(0.7)"/>
      </g>
     </g>
    </g>
    <g id="ytick_3">
     <g id="line2d_20">
      <g>
       <use xlink:href="#m48651a428f" x="50.137685" y="104.01172" style="stroke: #000000; stroke-width: 0.8"/>
      </g>
     </g>
     <g id="text_20">
      <!-- $\mathdefault{10^{6}}$ -->
      <g transform="translate(25.537685 107.810939) scale(0.1 -0.1)">
       <use xlink:href="#DejaVuSans-31" transform="translate(0 0.765625)"/>
       <use xlink:href="#DejaVuSans-30" transform="translate(63.623047 0.765625)"/>
       <use xlink:href="#DejaVuSans-36" transform="translate(128.203125 39.046875) scale(0.7)"/>
      </g>
     </g>
    </g>
    <g id="ytick_4">
     <g id="line2d_21">
      <defs>
       <path id="m5eea6b611f" d="M 0 0 
L -2 0 
" style="stroke: #000000; stroke-width: 0.6"/>
      </defs>
      <g>
       <use xlink:href="#m5eea6b611f" x="50.137685" y="335.774839" style="stroke: #000000; stroke-width: 0.6"/>
      </g>
     </g>
    </g>
    <g id="ytick_5">
     <g id="line2d_22">
      <g>
       <use xlink:href="#m5eea6b611f" x="50.137685" y="320.653716" style="stroke: #000000; stroke-width: 0.6"/>
      </g>
     </g>
    </g>
    <g id="ytick_6">
     <g id="line2d_23">
      <g>
       <use xlink:href="#m5eea6b611f" x="50.137685" y="309.925107" style="stroke: #000000; stroke-width: 0.6"/>
      </g>
     </g>
    </g>
    <g id="ytick_7">
     <g id="line2d_24">
      <g>
       <use xlink:href="#m5eea6b611f" x="50.137685" y="301.603353" style="stroke: #000000; stroke-width: 0.6"/>
      </g>
     </g>
    </g>
    <g id="ytick_8">
     <g id="line2d_25">
      <g>
       <use xlink:href="#m5eea6b611f" x="50.137685" y="294.803984" style="stroke: #000000; stroke-width: 0.6"/>
      </g>
     </g>
    </g>
    <g id="ytick_9">
     <g id="line2d_26">
      <g>
       <use xlink:href="#m5eea6b611f" x="50.137685" y="289.055199" style="stroke: #000000; stroke-width: 0.6"/>
      </g>
     </g>
    </g>
    <g id="ytick_10">
     <g id="line2d_27">
      <g>
       <use xlink:href="#m5eea6b611f" x="50.137685" y="284.075376" style="stroke: #000000; stroke-width: 0.6"/>
      </g>
     </g>
    </g>
    <g id="ytick_11">
     <g id="line2d_28">
      <g>
       <use xlink:href="#m5eea6b611f" x="50.137685" y="279.68286" style="stroke: #000000; stroke-width: 0.6"/>
      </g>
     </g>
    </g>
    <g id="ytick_12">
     <g id="line2d_29">
      <g>
       <use xlink:href="#m5eea6b611f" x="50.137685" y="249.903889" style="stroke: #000000; stroke-width: 0.6"/>
      </g>
     </g>
    </g>
    <g id="ytick_13">
     <g id="line2d_30">
      <g>
       <use xlink:href="#m5eea6b611f" x="50.137685" y="234.782765" style="stroke: #000000; stroke-width: 0.6"/>
      </g>
     </g>
    </g>
    <g id="ytick_14">
     <g id="line2d_31">
      <g>
       <use xlink:href="#m5eea6b611f" x="50.137685" y="224.054157" style="stroke: #000000; stroke-width: 0.6"/>
      </g>
     </g>
    </g>
    <g id="ytick_15">
     <g id="line2d_32">
      <g>
       <use xlink:href="#m5eea6b611f" x="50.137685" y="215.732402" style="stroke: #000000; stroke-width: 0.6"/>
      </g>
     </g>
    </g>
    <g id="ytick_16">
     <g id="line2d_33">
      <g>
       <use xlink:href="#m5eea6b611f" x="50.137685" y="208.933033" style="stroke: #000000; stroke-width: 0.6"/>
      </g>
     </g>
    </g>
    <g id="ytick_17">
     <g id="line2d_34">
      <g>
       <use xlink:href="#m5eea6b611f" x="50.137685" y="203.184249" style="stroke: #000000; stroke-width: 0.6"/>
      </g>
     </g>
    </g>
    <g id="ytick_18">
     <g id="line2d_35">
      <g>
       <use xlink:href="#m5eea6b611f" x="50.137685" y="198.204425" style="stroke: #000000; stroke-width: 0.6"/>
      </g>
     </g>
    </g>
    <g id="ytick_19">
     <g id="line2d_36">
      <g>
       <use xlink:href="#m5eea6b611f" x="50.137685" y="193.811909" style="stroke: #000000; stroke-width: 0.6"/>
      </g>
     </g>
    </g>
    <g id="ytick_20">
     <g id="line2d_37">
      <g>
       <use xlink:href="#m5eea6b611f" x="50.137685" y="164.032938" style="stroke: #000000; stroke-width: 0.6"/>
      </g>
     </g>
    </g>
    <g id="ytick_21">
     <g id="line2d_38">
      <g>
       <use xlink:href="#m5eea6b611f" x="50.137685" y="148.911815" style="stroke: #000000; stroke-width: 0.6"/>
      </g>
     </g>
    </g>
    <g id="ytick_22">
     <g id="line2d_39">
      <g>
       <use xlink:href="#m5eea6b611f" x="50.137685" y="138.183207" style="stroke: #000000; stroke-width: 0.6"/>
      </g>
     </g>
    </g>
    <g id="ytick_23">
     <g id="line2d_40">
      <g>
       <use xlink:href="#m5eea6b611f" x="50.137685" y="129.861452" style="stroke: #000000; stroke-width: 0.6"/>
      </g>
     </g>
    </g>
    <g id="ytick_24">
     <g id="line2d_41">
      <g>
       <use xlink:href="#m5eea6b611f" x="50.137685" y="123.062083" style="stroke: #000000; stroke-width: 0.6"/>
      </g>
     </g>
    </g>
    <g id="ytick_25">
     <g id="line2d_42">
      <g>
       <use xlink:href="#m5eea6b611f" x="50.137685" y="117.313298" style="stroke: #000000; stroke-width: 0.6"/>
      </g>
     </g>
    </g>
    <g id="ytick_26">
     <g id="line2d_43">
      <g>
       <use xlink:href="#m5eea6b611f" x="50.137685" y="112.333475" style="stroke: #000000; stroke-width: 0.6"/>
      </g>
     </g>
    </g>
    <g id="ytick_27">
     <g id="line2d_44">
      <g>
       <use xlink:href="#m5eea6b611f" x="50.137685" y="107.940959" style="stroke: #000000; stroke-width: 0.6"/>
      </g>
     </g>
    </g>
    <g id="ytick_28">
     <g id="line2d_45">
      <g>
       <use xlink:href="#m5eea6b611f" x="50.137685" y="78.161988" style="stroke: #000000; stroke-width: 0.6"/>
      </g>
     </g>
    </g>
    <g id="ytick_29">
     <g id="line2d_46">
      <g>
       <use xlink:href="#m5eea6b611f" x="50.137685" y="63.040864" style="stroke: #000000; stroke-width: 0.6"/>
      </g>
     </g>
    </g>
    <g id="ytick_30">
     <g id="line2d_47">
      <g>
       <use xlink:href="#m5eea6b611f" x="50.137685" y="52.312256" style="stroke: #000000; stroke-width: 0.6"/>
      </g>
     </g>
    </g>
    <g id="ytick_31">
     <g id="line2d_48">
      <g>
       <use xlink:href="#m5eea6b611f" x="50.137685" y="43.990501" style="stroke: #000000; stroke-width: 0.6"/>
      </g>
     </g>
    </g>
    <g id="ytick_32">
     <g id="line2d_49">
      <g>
       <use xlink:href="#m5eea6b611f" x="50.137685" y="37.191132" style="stroke: #000000; stroke-width: 0.6"/>
      </g>
     </g>
    </g>
    <g id="ytick_33">
     <g id="line2d_50">
      <g>
       <use xlink:href="#m5eea6b611f" x="50.137685" y="31.442348" style="stroke: #000000; stroke-width: 0.6"/>
      </g>
     </g>
    </g>
    <g id="text_21">
     <!-- Average Memory (KB, log scale) -->
     <g transform="translate(19.457997 269.573438) rotate(-90) scale(0.1 -0.1)">
      <defs>
       <path id="DejaVuSans-41" d="M 2188 4044 
L 1331 1722 
L 3047 1722 
L 2188 4044 
z
M 1831 4666 
L 2547 4666 
L 4325 0 
L 3669 0 
L 3244 1197 
L 1141 1197 
L 716 0 
L 50 0 
L 1831 4666 
z
" transform="scale(0.015625)"/>
       <path id="DejaVuSans-76" d="M 191 3500 
L 800 3500 
L 1894 563 
L 2988 3500 
L 3597 3500 
L 2284 0 
L 1503 0 
L 191 3500 
z
" transform="scale(0.015625)"/>
       <path id="DejaVuSans-20" transform="scale(0.015625)"/>
       <path id="DejaVuSans-4d" d="M 628 4666 
L 1569 4666 
L 2759 1491 
L 3956 4666 
L 4897 4666 
L 4897 0 
L 4281 0 
L 4281 4097 
L 3078 897 
L 2444 897 
L 1241 4097 
L 1241 0 
L 628 0 
L 628 4666 
z
" transform="scale(0.015625)"/>
       <path id="DejaVuSans-79" d="M 2059 -325 
Q 1816 -950 1584 -1140 
Q 1353 -1331 966 -1331 
L 506 -1331 
L 506 -850 
L 844 -850 
Q 1081 -850 1212 -737 
Q 1344 -625 1503 -206 
L 1606 56 
L 191 3500 
L 800 3500 
L 1894 763 
L 2988 3500 
L 3597 3500 
L 2059 -325 
z
" transform="scale(0.015625)"/>
       <path id="DejaVuSans-28" d="M 1984 4856 
Q 1566 4138 1362 3434 
Q 1159 2731 1159 2009 
Q 1159 1288 1364 580 
Q 1569 -128 1984 -844 
L 1484 -844 
Q 1016 -109 783 600 
Q 550 1309 550 2009 
Q 550 2706 781 3412 
Q 1013 4119 1484 4856 
L 1984 4856 
z
" transform="scale(0.015625)"/>
       <path id="DejaVuSans-4b" d="M 628 4666 
L 1259 4666 
L 1259 2694 
L 3353 4666 
L 4166 4666 
L 1850 2491 
L 4331 0 
L 3500 0 
L 1259 2247 
L 1259 0 
L 628 0 
L 628 4666 
z
" transform="scale(0.015625)"/>
       <path id="DejaVuSans-42" d="M 1259 2228 
L 1259 519 
L 2272 519 
Q 2781 519 3026 730 
Q 3272 941 3272 1375 
Q 3272 1813 3026 2020 
Q 2781 2228 2272 2228 
L 1259 2228 
z
M 1259 4147 
L 1259 2741 
L 2194 2741 
Q 2656 2741 2882 2914 
Q 3109 3088 3109 3444 
Q 3109 3797 2882 3972 
Q 2656 4147 2194 4147 
L 1259 4147 
z
M 628 4666 
L 2241 4666 
Q 2963 4666 3353 4366 
Q 3744 4066 3744 3513 
Q 3744 3084 3544 2831 
Q 3344 2578 2956 2516 
Q 3422 2416 3680 2098 
Q 3938 1781 3938 1306 
Q 3938 681 3513 340 
Q 3088 0 2303 0 
L 628 0 
L 628 4666 
z
" transform="scale(0.015625)"/>
       <path id="DejaVuSans-2c" d="M 750 794 
L 1409 794 
L 1409 256 
L 897 -744 
L 494 -744 
L 750 256 
L 750 794 
z
" transform="scale(0.015625)"/>
       <path id="DejaVuSans-29" d="M 513 4856 
L 1013 4856 
Q 1481 4119 1714 3412 
Q 1947 2706 1947 2009 
Q 1947 1309 1714 600 
Q 1481 -109 1013 -844 
L 513 -844 
Q 928 -128 1133 580 
Q 1338 1288 1338 2009 
Q 1338 2731 1133 3434 
Q 928 4138 513 4856 
z
" transform="scale(0.015625)"/>
      </defs>
      <use xlink:href="#DejaVuSans-41"/>
      <use xlink:href="#DejaVuSans-76" transform="translate(62.533203 0)"/>
      <use xlink:href="#DejaVuSans-65" transform="translate(121.712891 0)"/>
      <use xlink:href="#DejaVuSans-72" transform="translate(183.236328 0)"/>
      <use xlink:href="#DejaVuSans-61" transform="translate(224.349609 0)"/>
      <use xlink:href="#DejaVuSans-67" transform="translate(285.628906 0)"/>
      <use xlink:href="#DejaVuSans-65" transform="translate(349.105469 0)"/>
      <use xlink:href="#DejaVuSans-20" transform="translate(410.628906 0)"/>
      <use xlink:href="#DejaVuSans-4d" transform="translate(442.416016 0)"/>
      <use xlink:href="#DejaVuSans-65" transform="translate(528.695312 0)"/>
      <use xlink:href="#DejaVuSans-6d" transform="translate(590.21875 0)"/>
      <use xlink:href="#DejaVuSans-6f" transform="translate(687.630859 0)"/>
      <use xlink:href="#DejaVuSans-72" transform="translate(748.8125 0)"/>
      <use xlink:href="#DejaVuSans-79" transform="translate(789.925781 0)"/>
      <use xlink:href="#DejaVuSans-20" transform="translate(849.105469 0)"/>
      <use xlink:href="#DejaVuSans-28" transform="translate(880.892578 0)"/>
      <use xlink:href="#DejaVuSans-4b" transform="translate(919.90625 0)"/>
      <use xlink:href="#DejaVuSans-42" transform="translate(985.482422 0)"/>
      <use xlink:href="#DejaVuSans-2c" transform="translate(1054.085938 0)"/>
      <use xlink:href="#DejaVuSans-20" transform="translate(1085.873047 0)"/>
      <use xlink:href="#DejaVuSans-6c" transform="translate(1117.660156 0)"/>
      <use xlink:href="#DejaVuSans-6f" transform="translate(1145.443359 0)"/>
      <use xlink:href="#DejaVuSans-67" transform="translate(1206.625 0)"/>
      <use xlink:href="#DejaVuSans-20" transform="translate(1270.101562 0)"/>
      <use xlink:href="#DejaVuSans-73" transform="translate(1301.888672 0)"/>
      <use xlink:href="#DejaVuSans-63" transform="translate(1353.988281 0)"/>
      <use xlink:href="#DejaVuSans-61" transform="translate(1408.96875 0)"/>
      <use xlink:href="#DejaVuSans-6c" transform="translate(1470.248047 0)"/>
      <use xlink:href="#DejaVuSans-65" transform="translate(1498.03125 0)"/>
      <use xlink:href="#DejaVuSans-29" transform="translate(1559.554688 0)"/>
     </g>
    </g>
   </g>
   <g id="patch_76">
    <path d="M 50.137685 352.405938 
L 50.137685 26.88 
" style="fill: none; stroke: #000000; stroke-width: 0.8; stroke-linejoin: miter; stroke-linecap: square"/>
   </g>
   <g id="patch_77">
    <path d="M 922.482 352.405938 
L 922.482 26.88 
" style="fill: none; stroke: #000000; stroke-width: 0.8; stroke-linejoin: miter; stroke-linecap: square"/>
   </g>
   <g id="patch_78">
    <path d="M 50.137685 352.405938 
L 922.482 352.405938 
" style="fill: none; stroke: #000000; stroke-width: 0.8; stroke-linejoin: miter; stroke-linecap: square"/>
   </g>
   <g id="patch_79">
    <path d="M 50.137685 26.88 
L 922.482 26.88 
" style="fill: none; stroke: #000000; stroke-width: 0.8; stroke-linejoin: miter; stroke-linecap: square"/>
   </g>
   <g id="text_22">
    <!-- Average Memory Usage per Benchmark -->
    <g transform="translate(366.803905 20.88) scale(0.12 -0.12)">
     <defs>
      <path id="DejaVuSans-55" d="M 556 4666 
L 1191 4666 
L 1191 1831 
Q 1191 1081 1462 751 
Q 1734 422 2344 422 
Q 2950 422 3222 751 
Q 3494 1081 3494 1831 
L 3494 4666 
L 4128 4666 
L 4128 1753 
Q 4128 841 3676 375 
Q 3225 -91 2344 -91 
Q 1459 -91 1007 375 
Q 556 841 556 1753 
L 556 4666 
z
" transform="scale(0.015625)"/>
      <path id="DejaVuSans-6b" d="M 581 4863 
L 1159 4863 
L 1159 1991 
L 2875 3500 
L 3609 3500 
L 1753 1863 
L 3688 0 
L 2938 0 
L 1159 1709 
L 1159 0 
L 581 0 
L 581 4863 
z
" transform="scale(0.015625)"/>
     </defs>
     <use xlink:href="#DejaVuSans-41"/>
     <use xlink:href="#DejaVuSans-76" transform="translate(62.533203 0)"/>
     <use xlink:href="#DejaVuSans-65" transform="translate(121.712891 0)"/>
     <use xlink:href="#DejaVuSans-72" transform="translate(183.236328 0)"/>
     <use xlink:href="#DejaVuSans-61" transform="translate(224.349609 0)"/>
     <use xlink:href="#DejaVuSans-67" transform="translate(285.628906 0)"/>
     <use xlink:href="#DejaVuSans-65" transform="translate(349.105469 0)"/>
     <use xlink:href="#DejaVuSans-20" transform="translate(410.628906 0)"/>
     <use xlink:href="#DejaVuSans-4d" transform="translate(442.416016 0)"/>
     <use xlink:href="#DejaVuSans-65" transform="translate(528.695312 0)"/>
     <use xlink:href="#DejaVuSans-6d" transform="translate(590.21875 0)"/>
     <use xlink:href="#DejaVuSans-6f" transform="translate(687.630859 0)"/>
     <use xlink:href="#DejaVuSans-72" transform="translate(748.8125 0)"/>
     <use xlink:href="#DejaVuSans-79" transform="translate(789.925781 0)"/>
     <use xlink:href="#DejaVuSans-20" transform="translate(849.105469 0)"/>
     <use xlink:href="#DejaVuSans-55" transform="translate(880.892578 0)"/>
     <use xlink:href="#DejaVuSans-73" transform="translate(954.085938 0)"/>
     <use xlink:href="#DejaVuSans-61" transform="translate(1006.185547 0)"/>
     <use xlink:href="#DejaVuSans-67" transform="translate(1067.464844 0)"/>
     <use xlink:href="#DejaVuSans-65" transform="translate(1130.941406 0)"/>
     <use xlink:href="#DejaVuSans-20" transform="translate(1192.464844 0)"/>
     <use xlink:href="#DejaVuSans-70" transform="translate(1224.251953 0)"/>
     <use xlink:href="#DejaVuSans-65" transform="translate(1287.728516 0)"/>
     <use xlink:href="#DejaVuSans-72" transform="translate(1349.251953 0)"/>
     <use xlink:href="#DejaVuSans-20" transform="translate(1390.365234 0)"/>
     <use xlink:href="#DejaVuSans-42" transform="translate(1422.152344 0)"/>
     <use xlink:href="#DejaVuSans-65" transform="translate(1490.755859 0)"/>
     <use xlink:href="#DejaVuSans-6e" transform="translate(1552.279297 0)"/>
     <use xlink:href="#DejaVuSans-63" transform="translate(1615.658203 0)"/>
     <use xlink:href="#DejaVuSans-68" transform="translate(1670.638672 0)"/>
     <use xlink:href="#DejaVuSans-6d" transform="translate(1734.017578 0)"/>
     <use xlink:href="#DejaVuSans-61" transform="translate(1831.429688 0)"/>
     <use xlink:href="#DejaVuSans-72" transform="translate(1892.708984 0)"/>
     <use xlink:href="#DejaVuSans-6b" transform="translate(1933.822266 0)"/>
    </g>
   </g>
   <g id="legend_1">
    <g id="patch_80">
     <path d="M 941.928886 242.516407 
L 1086.227324 242.516407 
Q 1088.227324 242.516407 1088.227324 240.516407 
L 1088.227324 138.769532 
Q 1088.227324 136.769532 1086.227324 136.769532 
L 941.928886 136.769532 
Q 939.928886 136.769532 939.928886 138.769532 
L 939.928886 240.516407 
Q 939.928886 242.516407 941.928886 242.516407 
z
" style="fill: #ffffff; opacity: 0.8; stroke: #cccccc; stroke-linejoin: miter"/>
    </g>
    <g id="patch_81">
     <path d="M 943.928886 148.367969 
L 963.928886 148.367969 
L 963.928886 141.367969 
L 943.928886 141.367969 
z
" style="fill: #1f77b4"/>
    </g>
    <g id="text_23">
     <!-- mi -->
     <g transform="translate(971.928886 148.367969) scale(0.1 -0.1)">
      <use xlink:href="#DejaVuSans-6d"/>
      <use xlink:href="#DejaVuSans-69" transform="translate(97.412109 0)"/>
     </g>
    </g>
    <g id="patch_82">
     <path d="M 943.928886 163.046094 
L 963.928886 163.046094 
L 963.928886 156.046094 
L 943.928886 156.046094 
z
" style="fill: #ff7f0e"/>
    </g>
    <g id="text_24">
     <!-- segpt-16 -->
     <g transform="translate(971.928886 163.046094) scale(0.1 -0.1)">
      <use xlink:href="#DejaVuSans-73"/>
      <use xlink:href="#DejaVuSans-65" transform="translate(52.099609 0)"/>
      <use xlink:href="#DejaVuSans-67" transform="translate(113.623047 0)"/>
      <use xlink:href="#DejaVuSans-70" transform="translate(177.099609 0)"/>
      <use xlink:href="#DejaVuSans-74" transform="translate(240.576172 0)"/>
      <use xlink:href="#DejaVuSans-2d" transform="translate(279.785156 0)"/>
      <use xlink:href="#DejaVuSans-31" transform="translate(315.869141 0)"/>
      <use xlink:href="#DejaVuSans-36" transform="translate(379.492188 0)"/>
     </g>
    </g>
    <g id="patch_83">
     <path d="M 943.928886 177.724219 
L 963.928886 177.724219 
L 963.928886 170.724219 
L 943.928886 170.724219 
z
" style="fill: #2ca02c"/>
    </g>
    <g id="text_25">
     <!-- strictseglocked-16 -->
     <g transform="translate(971.928886 177.724219) scale(0.1 -0.1)">
      <use xlink:href="#DejaVuSans-73"/>
      <use xlink:href="#DejaVuSans-74" transform="translate(52.099609 0)"/>
      <use xlink:href="#DejaVuSans-72" transform="translate(91.308594 0)"/>
      <use xlink:href="#DejaVuSans-69" transform="translate(132.421875 0)"/>
      <use xlink:href="#DejaVuSans-63" transform="translate(160.205078 0)"/>
      <use xlink:href="#DejaVuSans-74" transform="translate(215.185547 0)"/>
      <use xlink:href="#DejaVuSans-73" transform="translate(254.394531 0)"/>
      <use xlink:href="#DejaVuSans-65" transform="translate(306.494141 0)"/>
      <use xlink:href="#DejaVuSans-67" transform="translate(368.017578 0)"/>
      <use xlink:href="#DejaVuSans-6c" transform="translate(431.494141 0)"/>
      <use xlink:href="#DejaVuSans-6f" transform="translate(459.277344 0)"/>
      <use xlink:href="#DejaVuSans-63" transform="translate(520.458984 0)"/>
      <use xlink:href="#DejaVuSans-6b" transform="translate(575.439453 0)"/>
      <use xlink:href="#DejaVuSans-65" transform="translate(629.724609 0)"/>
      <use xlink:href="#DejaVuSans-64" transform="translate(691.248047 0)"/>
      <use xlink:href="#DejaVuSans-2d" transform="translate(754.724609 0)"/>
      <use xlink:href="#DejaVuSans-31" transform="translate(790.808594 0)"/>
      <use xlink:href="#DejaVuSans-36" transform="translate(854.431641 0)"/>
     </g>
    </g>
    <g id="patch_84">
     <path d="M 943.928886 192.402344 
L 963.928886 192.402344 
L 963.928886 185.402344 
L 943.928886 185.402344 
z
" style="fill: #d62728"/>
    </g>
    <g id="text_26">
     <!-- strictseglockedcustom -->
     <g transform="translate(971.928886 192.402344) scale(0.1 -0.1)">
      <use xlink:href="#DejaVuSans-73"/>
      <use xlink:href="#DejaVuSans-74" transform="translate(52.099609 0)"/>
      <use xlink:href="#DejaVuSans-72" transform="translate(91.308594 0)"/>
      <use xlink:href="#DejaVuSans-69" transform="translate(132.421875 0)"/>
      <use xlink:href="#DejaVuSans-63" transform="translate(160.205078 0)"/>
      <use xlink:href="#DejaVuSans-74" transform="translate(215.185547 0)"/>
      <use xlink:href="#DejaVuSans-73" transform="translate(254.394531 0)"/>
      <use xlink:href="#DejaVuSans-65" transform="translate(306.494141 0)"/>
      <use xlink:href="#DejaVuSans-67" transform="translate(368.017578 0)"/>
      <use xlink:href="#DejaVuSans-6c" transform="translate(431.494141 0)"/>
      <use xlink:href="#DejaVuSans-6f" transform="translate(459.277344 0)"/>
      <use xlink:href="#DejaVuSans-63" transform="translate(520.458984 0)"/>
      <use xlink:href="#DejaVuSans-6b" transform="translate(575.439453 0)"/>
      <use xlink:href="#DejaVuSans-65" transform="translate(629.724609 0)"/>
      <use xlink:href="#DejaVuSans-64" transform="translate(691.248047 0)"/>
      <use xlink:href="#DejaVuSans-63" transform="translate(754.724609 0)"/>
      <use xlink:href="#DejaVuSans-75" transform="translate(809.705078 0)"/>
      <use xlink:href="#DejaVuSans-73" transform="translate(873.083984 0)"/>
      <use xlink:href="#DejaVuSans-74" transform="translate(925.183594 0)"/>
      <use xlink:href="#DejaVuSans-6f" transform="translate(964.392578 0)"/>
      <use xlink:href="#DejaVuSans-6d" transform="translate(1025.574219 0)"/>
     </g>
    </g>
    <g id="patch_85">
     <path d="M 943.928886 207.080469 
L 963.928886 207.080469 
L 963.928886 200.080469 
L 943.928886 200.080469 
z
" style="fill: #9467bd"/>
    </g>
    <g id="text_27">
     <!-- strictsegpt-16 -->
     <g transform="translate(971.928886 207.080469) scale(0.1 -0.1)">
      <use xlink:href="#DejaVuSans-73"/>
      <use xlink:href="#DejaVuSans-74" transform="translate(52.099609 0)"/>
      <use xlink:href="#DejaVuSans-72" transform="translate(91.308594 0)"/>
      <use xlink:href="#DejaVuSans-69" transform="translate(132.421875 0)"/>
      <use xlink:href="#DejaVuSans-63" transform="translate(160.205078 0)"/>
      <use xlink:href="#DejaVuSans-74" transform="translate(215.185547 0)"/>
      <use xlink:href="#DejaVuSans-73" transform="translate(254.394531 0)"/>
      <use xlink:href="#DejaVuSans-65" transform="translate(306.494141 0)"/>
      <use xlink:href="#DejaVuSans-67" transform="translate(368.017578 0)"/>
      <use xlink:href="#DejaVuSans-70" transform="translate(431.494141 0)"/>
      <use xlink:href="#DejaVuSans-74" transform="translate(494.970703 0)"/>
      <use xlink:href="#DejaVuSans-2d" transform="translate(534.179688 0)"/>
      <use xlink:href="#DejaVuSans-31" transform="translate(570.263672 0)"/>
      <use xlink:href="#DejaVuSans-36" transform="translate(633.886719 0)"/>
     </g>
    </g>
    <g id="patch_86">
     <path d="M 943.928886 221.758594 
L 963.928886 221.758594 
L 963.928886 214.758594 
L 943.928886 214.758594 
z
" style="fill: #8c564b"/>
    </g>
    <g id="text_28">
     <!-- strictsegptcustom -->
     <g transform="translate(971.928886 221.758594) scale(0.1 -0.1)">
      <use xlink:href="#DejaVuSans-73"/>
      <use xlink:href="#DejaVuSans-74" transform="translate(52.099609 0)"/>
      <use xlink:href="#DejaVuSans-72" transform="translate(91.308594 0)"/>
      <use xlink:href="#DejaVuSans-69" transform="translate(132.421875 0)"/>
      <use xlink:href="#DejaVuSans-63" transform="translate(160.205078 0)"/>
      <use xlink:href="#DejaVuSans-74" transform="translate(215.185547 0)"/>
      <use xlink:href="#DejaVuSans-73" transform="translate(254.394531 0)"/>
      <use xlink:href="#DejaVuSans-65" transform="translate(306.494141 0)"/>
      <use xlink:href="#DejaVuSans-67" transform="translate(368.017578 0)"/>
      <use xlink:href="#DejaVuSans-70" transform="translate(431.494141 0)"/>
      <use xlink:href="#DejaVuSans-74" transform="translate(494.970703 0)"/>
      <use xlink:href="#DejaVuSans-63" transform="translate(534.179688 0)"/>
      <use xlink:href="#DejaVuSans-75" transform="translate(589.160156 0)"/>
      <use xlink:href="#DejaVuSans-73" transform="translate(652.539062 0)"/>
      <use xlink:href="#DejaVuSans-74" transform="translate(704.638672 0)"/>
      <use xlink:href="#DejaVuSans-6f" transform="translate(743.847656 0)"/>
      <use xlink:href="#DejaVuSans-6d" transform="translate(805.029297 0)"/>
     </g>
    </g>
    <g id="patch_87">
     <path d="M 943.928886 236.436719 
L 963.928886 236.436719 
L 963.928886 229.436719 
L 943.928886 229.436719 
z
" style="fill: #e377c2"/>
    </g>
    <g id="text_29">
     <!-- sys -->
     <g transform="translate(971.928886 236.436719) scale(0.1 -0.1)">
      <use xlink:href="#DejaVuSans-73"/>
      <use xlink:href="#DejaVuSans-79" transform="translate(52.099609 0)"/>
      <use xlink:href="#DejaVuSans-73" transform="translate(111.279297 0)"/>
     </g>
    </g>
   </g>
  </g>
 </g>
 <defs>
  <clipPath id="pbb0d6f8e44">
   <rect x="50.137685" y="26.88" width="872.344315" height="325.525938"/>
  </clipPath>
 </defs>
</svg>
