<?xml version="1.0" encoding="utf-8" standalone="no"?>
<!DOCTYPE svg PUBLIC "-//W3C//DTD SVG 1.1//EN"
  "http://www.w3.org/Graphics/SVG/1.1/DTD/svg11.dtd">
<svg xmlns:xlink="http://www.w3.org/1999/xlink" width="1008pt" height="432pt" viewBox="0 0 1008 432" xmlns="http://www.w3.org/2000/svg" version="1.1">
 <metadata>
  <rdf:RDF xmlns:dc="http://purl.org/dc/elements/1.1/" xmlns:cc="http://creativecommons.org/ns#" xmlns:rdf="http://www.w3.org/1999/02/22-rdf-syntax-ns#">
   <cc:Work>
    <dc:type rdf:resource="http://purl.org/dc/dcmitype/StillImage"/>
    <dc:date>2026-01-14T21:02:06.362085</dc:date>
    <dc:format>image/svg+xml</dc:format>
    <dc:creator>
     <cc:Agent>
      <dc:title>Matplotlib v3.10.8, https://matplotlib.org/</dc:title>
     </cc:Agent>
    </dc:creator>
   </cc:Work>
  </rdf:RDF>
 </metadata>
 <defs>
  <style type="text/css">*{stroke-linejoin: round; stroke-linecap: butt}</style>
 </defs>
 <g id="figure_1">
  <g id="patch_1">
   <path d="M 0 432 
L 1008 432 
L 1008 0 
L 0 0 
z
" style="fill: #ffffff"/>
  </g>
  <g id="axes_1">
   <g id="patch_2">
    <path d="M 55.772054 352.405938 
L 997.2 352.405938 
L 997.2 26.88 
L 55.772054 26.88 
z
" style="fill: #ffffff"/>
   </g>
   <g id="patch_3">
    <path d="M 98.564233 39110.257354 
L 116.394308 39110.257354 
L 116.394308 285.25765 
L 98.564233 285.25765 
z
" clip-path="url(#p660c077953)" style="fill: #1f77b4"/>
   </g>
   <g id="patch_4">
    <path d="M 232.289794 39110.257354 
L 250.119869 39110.257354 
L 250.119869 298.393453 
L 232.289794 298.393453 
z
" clip-path="url(#p660c077953)" style="fill: #1f77b4"/>
   </g>
   <g id="patch_5">
    <path d="M 299.152574 39110.257354 
L 316.982649 39110.257354 
L 316.982649 313.030876 
L 299.152574 313.030876 
z
" clip-path="url(#p660c077953)" style="fill: #1f77b4"/>
   </g>
   <g id="patch_6">
    <path d="M 366.015354 39110.257354 
L 383.845429 39110.257354 
L 383.845429 332.552385 
L 366.015354 332.552385 
z
" clip-path="url(#p660c077953)" style="fill: #1f77b4"/>
   </g>
   <g id="patch_7">
    <path d="M 432.878135 39110.257354 
L 450.708209 39110.257354 
L 450.708209 281.102641 
L 432.878135 281.102641 
z
" clip-path="url(#p660c077953)" style="fill: #1f77b4"/>
   </g>
   <g id="patch_8">
    <path d="M 499.740915 39110.257354 
L 517.57099 39110.257354 
L 517.57099 286.795958 
L 499.740915 286.795958 
z
" clip-path="url(#p660c077953)" style="fill: #1f77b4"/>
   </g>
   <g id="patch_9">
    <path d="M 566.603695 39110.257354 
L 584.43377 39110.257354 
L 584.43377 49.817352 
L 566.603695 49.817352 
z
" clip-path="url(#p660c077953)" style="fill: #1f77b4"/>
   </g>
   <g id="patch_10">
    <path d="M 633.466475 39110.257354 
L 651.29655 39110.257354 
L 651.29655 42.749964 
L 633.466475 42.749964 
z
" clip-path="url(#p660c077953)" style="fill: #1f77b4"/>
   </g>
   <g id="patch_11">
    <path d="M 700.329256 39110.257354 
L 718.15933 39110.257354 
L 718.15933 273.700718 
L 700.329256 273.700718 
z
" clip-path="url(#p660c077953)" style="fill: #1f77b4"/>
   </g>
   <g id="patch_12">
    <path d="M 116.394308 39110.257354 
L 134.224383 39110.257354 
L 134.224383 292.900784 
L 116.394308 292.900784 
z
" clip-path="url(#p660c077953)" style="fill: #ff7f0e"/>
   </g>
   <g id="patch_13">
    <path d="M 183.257088 39110.257354 
L 201.087163 39110.257354 
L 201.087163 275.811682 
L 183.257088 275.811682 
z
" clip-path="url(#p660c077953)" style="fill: #ff7f0e"/>
   </g>
   <g id="patch_14">
    <path d="M 250.119869 39110.257354 
L 267.949943 39110.257354 
L 267.949943 298.558656 
L 250.119869 298.558656 
z
" clip-path="url(#p660c077953)" style="fill: #ff7f0e"/>
   </g>
   <g id="patch_15">
    <path d="M 316.982649 39110.257354 
L 334.812724 39110.257354 
L 334.812724 307.558226 
L 316.982649 307.558226 
z
" clip-path="url(#p660c077953)" style="fill: #ff7f0e"/>
   </g>
   <g id="patch_16">
    <path d="M 383.845429 39110.257354 
L 401.675504 39110.257354 
L 401.675504 337.609305 
L 383.845429 337.609305 
z
" clip-path="url(#p660c077953)" style="fill: #ff7f0e"/>
   </g>
   <g id="patch_17">
    <path d="M 450.708209 39110.257354 
L 468.538284 39110.257354 
L 468.538284 291.262426 
L 450.708209 291.262426 
z
" clip-path="url(#p660c077953)" style="fill: #ff7f0e"/>
   </g>
   <g id="patch_18">
    <path d="M 517.57099 39110.257354 
L 535.401064 39110.257354 
L 535.401064 302.051104 
L 517.57099 302.051104 
z
" clip-path="url(#p660c077953)" style="fill: #ff7f0e"/>
   </g>
   <g id="patch_19">
    <path d="M 584.43377 39110.257354 
L 602.263845 39110.257354 
L 602.263845 158.560546 
L 584.43377 158.560546 
z
" clip-path="url(#p660c077953)" style="fill: #ff7f0e"/>
   </g>
   <g id="patch_20">
    <path d="M 651.29655 39110.257354 
L 669.126625 39110.257354 
L 669.126625 90.879213 
L 651.29655 90.879213 
z
" clip-path="url(#p660c077953)" style="fill: #ff7f0e"/>
   </g>
   <g id="patch_21">
    <path d="M 718.15933 39110.257354 
L 735.989405 39110.257354 
L 735.989405 285.860135 
L 718.15933 285.860135 
z
" clip-path="url(#p660c077953)" style="fill: #ff7f0e"/>
   </g>
   <g id="patch_22">
    <path d="M 785.022111 39110.257354 
L 802.852185 39110.257354 
L 802.852185 316.499591 
L 785.022111 316.499591 
z
" clip-path="url(#p660c077953)" style="fill: #ff7f0e"/>
   </g>
   <g id="patch_23">
    <path d="M 851.884891 39110.257354 
L 869.714966 39110.257354 
L 869.714966 296.38137 
L 851.884891 296.38137 
z
" clip-path="url(#p660c077953)" style="fill: #ff7f0e"/>
   </g>
   <g id="patch_24">
    <path d="M 918.747671 39110.257354 
L 936.577746 39110.257354 
L 936.577746 41.676634 
L 918.747671 41.676634 
z
" clip-path="url(#p660c077953)" style="fill: #ff7f0e"/>
   </g>
   <g id="patch_25">
    <path d="M 134.224383 39110.257354 
L 152.054457 39110.257354 
L 152.054457 292.375076 
L 134.224383 292.375076 
z
" clip-path="url(#p660c077953)" style="fill: #2ca02c"/>
   </g>
   <g id="patch_26">
    <path d="M 201.087163 39110.257354 
L 218.917238 39110.257354 
L 218.917238 271.32297 
L 201.087163 271.32297 
z
" clip-path="url(#p660c077953)" style="fill: #2ca02c"/>
   </g>
   <g id="patch_27">
    <path d="M 267.949943 39110.257354 
L 285.780018 39110.257354 
L 285.780018 298.393453 
L 267.949943 298.393453 
z
" clip-path="url(#p660c077953)" style="fill: #2ca02c"/>
   </g>
   <g id="patch_28">
    <path d="M 334.812724 39110.257354 
L 352.642798 39110.257354 
L 352.642798 312.453087 
L 334.812724 312.453087 
z
" clip-path="url(#p660c077953)" style="fill: #2ca02c"/>
   </g>
   <g id="patch_29">
    <path d="M 401.675504 39110.257354 
L 419.505579 39110.257354 
L 419.505579 337.609305 
L 401.675504 337.609305 
z
" clip-path="url(#p660c077953)" style="fill: #2ca02c"/>
   </g>
   <g id="patch_30">
    <path d="M 468.538284 39110.257354 
L 486.368359 39110.257354 
L 486.368359 290.732491 
L 468.538284 290.732491 
z
" clip-path="url(#p660c077953)" style="fill: #2ca02c"/>
   </g>
   <g id="patch_31">
    <path d="M 535.401064 39110.257354 
L 553.231139 39110.257354 
L 553.231139 302.675269 
L 535.401064 302.675269 
z
" clip-path="url(#p660c077953)" style="fill: #2ca02c"/>
   </g>
   <g id="patch_32">
    <path d="M 602.263845 39110.257354 
L 620.093919 39110.257354 
L 620.093919 158.585115 
L 602.263845 158.585115 
z
" clip-path="url(#p660c077953)" style="fill: #2ca02c"/>
   </g>
   <g id="patch_33">
    <path d="M 669.126625 39110.257354 
L 686.9567 39110.257354 
L 686.9567 90.060415 
L 669.126625 90.060415 
z
" clip-path="url(#p660c077953)" style="fill: #2ca02c"/>
   </g>
   <g id="patch_34">
    <path d="M 735.989405 39110.257354 
L 753.81948 39110.257354 
L 753.81948 286.746471 
L 735.989405 286.746471 
z
" clip-path="url(#p660c077953)" style="fill: #2ca02c"/>
   </g>
   <g id="patch_35">
    <path d="M 802.852185 39110.257354 
L 820.68226 39110.257354 
L 820.68226 315.792472 
L 802.852185 315.792472 
z
" clip-path="url(#p660c077953)" style="fill: #2ca02c"/>
   </g>
   <g id="patch_36">
    <path d="M 869.714966 39110.257354 
L 887.54504 39110.257354 
L 887.54504 294.715766 
L 869.714966 294.715766 
z
" clip-path="url(#p660c077953)" style="fill: #2ca02c"/>
   </g>
   <g id="patch_37">
    <path d="M 936.577746 39110.257354 
L 954.407821 39110.257354 
L 954.407821 41.735181 
L 936.577746 41.735181 
z
" clip-path="url(#p660c077953)" style="fill: #2ca02c"/>
   </g>
   <g id="matplotlib.axis_1">
    <g id="xtick_1">
     <g id="line2d_1">
      <defs>
       <path id="m462db7d4c7" d="M 0 0 
L 0 3.5 
" style="stroke: #000000; stroke-width: 0.8"/>
      </defs>
      <g>
       <use xlink:href="#m462db7d4c7" x="134.224383" y="352.405938" style="stroke: #000000; stroke-width: 0.8"/>
      </g>
     </g>
     <g id="text_1">
      <!-- alloc-test1 -->
      <g transform="translate(95.648393 401.884273) rotate(-45) scale(0.1 -0.1)">
       <defs>
        <path id="DejaVuSans-61" d="M 2194 1759 
Q 1497 1759 1228 1600 
Q 959 1441 959 1056 
Q 959 750 1161 570 
Q 1363 391 1709 391 
Q 2188 391 2477 730 
Q 2766 1069 2766 1631 
L 2766 1759 
L 2194 1759 
z
M 3341 1997 
L 3341 0 
L 2766 0 
L 2766 531 
Q 2569 213 2275 61 
Q 1981 -91 1556 -91 
Q 1019 -91 701 211 
Q 384 513 384 1019 
Q 384 1609 779 1909 
Q 1175 2209 1959 2209 
L 2766 2209 
L 2766 2266 
Q 2766 2663 2505 2880 
Q 2244 3097 1772 3097 
Q 1472 3097 1187 3025 
Q 903 2953 641 2809 
L 641 3341 
Q 956 3463 1253 3523 
Q 1550 3584 1831 3584 
Q 2591 3584 2966 3190 
Q 3341 2797 3341 1997 
z
" transform="scale(0.015625)"/>
        <path id="DejaVuSans-6c" d="M 603 4863 
L 1178 4863 
L 1178 0 
L 603 0 
L 603 4863 
z
" transform="scale(0.015625)"/>
        <path id="DejaVuSans-6f" d="M 1959 3097 
Q 1497 3097 1228 2736 
Q 959 2375 959 1747 
Q 959 1119 1226 758 
Q 1494 397 1959 397 
Q 2419 397 2687 759 
Q 2956 1122 2956 1747 
Q 2956 2369 2687 2733 
Q 2419 3097 1959 3097 
z
M 1959 3584 
Q 2709 3584 3137 3096 
Q 3566 2609 3566 1747 
Q 3566 888 3137 398 
Q 2709 -91 1959 -91 
Q 1206 -91 779 398 
Q 353 888 353 1747 
Q 353 2609 779 3096 
Q 1206 3584 1959 3584 
z
" transform="scale(0.015625)"/>
        <path id="DejaVuSans-63" d="M 3122 3366 
L 3122 2828 
Q 2878 2963 2633 3030 
Q 2388 3097 2138 3097 
Q 1578 3097 1268 2742 
Q 959 2388 959 1747 
Q 959 1106 1268 751 
Q 1578 397 2138 397 
Q 2388 397 2633 464 
Q 2878 531 3122 666 
L 3122 134 
Q 2881 22 2623 -34 
Q 2366 -91 2075 -91 
Q 1284 -91 818 406 
Q 353 903 353 1747 
Q 353 2603 823 3093 
Q 1294 3584 2113 3584 
Q 2378 3584 2631 3529 
Q 2884 3475 3122 3366 
z
" transform="scale(0.015625)"/>
        <path id="DejaVuSans-2d" d="M 313 2009 
L 1997 2009 
L 1997 1497 
L 313 1497 
L 313 2009 
z
" transform="scale(0.015625)"/>
        <path id="DejaVuSans-74" d="M 1172 4494 
L 1172 3500 
L 2356 3500 
L 2356 3053 
L 1172 3053 
L 1172 1153 
Q 1172 725 1289 603 
Q 1406 481 1766 481 
L 2356 481 
L 2356 0 
L 1766 0 
Q 1100 0 847 248 
Q 594 497 594 1153 
L 594 3053 
L 172 3053 
L 172 3500 
L 594 3500 
L 594 4494 
L 1172 4494 
z
" transform="scale(0.015625)"/>
        <path id="DejaVuSans-65" d="M 3597 1894 
L 3597 1613 
L 953 1613 
Q 991 1019 1311 708 
Q 1631 397 2203 397 
Q 2534 397 2845 478 
Q 3156 559 3463 722 
L 3463 178 
Q 3153 47 2828 -22 
Q 2503 -91 2169 -91 
Q 1331 -91 842 396 
Q 353 884 353 1716 
Q 353 2575 817 3079 
Q 1281 3584 2069 3584 
Q 2775 3584 3186 3129 
Q 3597 2675 3597 1894 
z
M 3022 2063 
Q 3016 2534 2758 2815 
Q 2500 3097 2075 3097 
Q 1594 3097 1305 2825 
Q 1016 2553 972 2059 
L 3022 2063 
z
" transform="scale(0.015625)"/>
        <path id="DejaVuSans-73" d="M 2834 3397 
L 2834 2853 
Q 2591 2978 2328 3040 
Q 2066 3103 1784 3103 
Q 1356 3103 1142 2972 
Q 928 2841 928 2578 
Q 928 2378 1081 2264 
Q 1234 2150 1697 2047 
L 1894 2003 
Q 2506 1872 2764 1633 
Q 3022 1394 3022 966 
Q 3022 478 2636 193 
Q 2250 -91 1575 -91 
Q 1294 -91 989 -36 
Q 684 19 347 128 
L 347 722 
Q 666 556 975 473 
Q 1284 391 1588 391 
Q 1994 391 2212 530 
Q 2431 669 2431 922 
Q 2431 1156 2273 1281 
Q 2116 1406 1581 1522 
L 1381 1569 
Q 847 1681 609 1914 
Q 372 2147 372 2553 
Q 372 3047 722 3315 
Q 1072 3584 1716 3584 
Q 2034 3584 2315 3537 
Q 2597 3491 2834 3397 
z
" transform="scale(0.015625)"/>
        <path id="DejaVuSans-31" d="M 794 531 
L 1825 531 
L 1825 4091 
L 703 3866 
L 703 4441 
L 1819 4666 
L 2450 4666 
L 2450 531 
L 3481 531 
L 3481 0 
L 794 0 
L 794 531 
z
" transform="scale(0.015625)"/>
       </defs>
       <use xlink:href="#DejaVuSans-61"/>
       <use xlink:href="#DejaVuSans-6c" transform="translate(61.279297 0)"/>
       <use xlink:href="#DejaVuSans-6c" transform="translate(89.0625 0)"/>
       <use xlink:href="#DejaVuSans-6f" transform="translate(116.845703 0)"/>
       <use xlink:href="#DejaVuSans-63" transform="translate(178.027344 0)"/>
       <use xlink:href="#DejaVuSans-2d" transform="translate(233.007812 0)"/>
       <use xlink:href="#DejaVuSans-74" transform="translate(269.091797 0)"/>
       <use xlink:href="#DejaVuSans-65" transform="translate(308.300781 0)"/>
       <use xlink:href="#DejaVuSans-73" transform="translate(369.824219 0)"/>
       <use xlink:href="#DejaVuSans-74" transform="translate(421.923828 0)"/>
       <use xlink:href="#DejaVuSans-31" transform="translate(461.132812 0)"/>
      </g>
     </g>
    </g>
    <g id="xtick_2">
     <g id="line2d_2">
      <g>
       <use xlink:href="#m462db7d4c7" x="201.087163" y="352.405938" style="stroke: #000000; stroke-width: 0.8"/>
      </g>
     </g>
     <g id="text_2">
      <!-- alloc-testN -->
      <g transform="translate(161.720098 402.675349) rotate(-45) scale(0.1 -0.1)">
       <defs>
        <path id="DejaVuSans-4e" d="M 628 4666 
L 1478 4666 
L 3547 763 
L 3547 4666 
L 4159 4666 
L 4159 0 
L 3309 0 
L 1241 3903 
L 1241 0 
L 628 0 
L 628 4666 
z
" transform="scale(0.015625)"/>
       </defs>
       <use xlink:href="#DejaVuSans-61"/>
       <use xlink:href="#DejaVuSans-6c" transform="translate(61.279297 0)"/>
       <use xlink:href="#DejaVuSans-6c" transform="translate(89.0625 0)"/>
       <use xlink:href="#DejaVuSans-6f" transform="translate(116.845703 0)"/>
       <use xlink:href="#DejaVuSans-63" transform="translate(178.027344 0)"/>
       <use xlink:href="#DejaVuSans-2d" transform="translate(233.007812 0)"/>
       <use xlink:href="#DejaVuSans-74" transform="translate(269.091797 0)"/>
       <use xlink:href="#DejaVuSans-65" transform="translate(308.300781 0)"/>
       <use xlink:href="#DejaVuSans-73" transform="translate(369.824219 0)"/>
       <use xlink:href="#DejaVuSans-74" transform="translate(421.923828 0)"/>
       <use xlink:href="#DejaVuSans-4e" transform="translate(461.132812 0)"/>
      </g>
     </g>
    </g>
    <g id="xtick_3">
     <g id="line2d_3">
      <g>
       <use xlink:href="#m462db7d4c7" x="267.949943" y="352.405938" style="stroke: #000000; stroke-width: 0.8"/>
      </g>
     </g>
     <g id="text_3">
      <!-- barnes -->
      <g transform="translate(242.358202 388.900025) rotate(-45) scale(0.1 -0.1)">
       <defs>
        <path id="DejaVuSans-62" d="M 3116 1747 
Q 3116 2381 2855 2742 
Q 2594 3103 2138 3103 
Q 1681 3103 1420 2742 
Q 1159 2381 1159 1747 
Q 1159 1113 1420 752 
Q 1681 391 2138 391 
Q 2594 391 2855 752 
Q 3116 1113 3116 1747 
z
M 1159 2969 
Q 1341 3281 1617 3432 
Q 1894 3584 2278 3584 
Q 2916 3584 3314 3078 
Q 3713 2572 3713 1747 
Q 3713 922 3314 415 
Q 2916 -91 2278 -91 
Q 1894 -91 1617 61 
Q 1341 213 1159 525 
L 1159 0 
L 581 0 
L 581 4863 
L 1159 4863 
L 1159 2969 
z
" transform="scale(0.015625)"/>
        <path id="DejaVuSans-72" d="M 2631 2963 
Q 2534 3019 2420 3045 
Q 2306 3072 2169 3072 
Q 1681 3072 1420 2755 
Q 1159 2438 1159 1844 
L 1159 0 
L 581 0 
L 581 3500 
L 1159 3500 
L 1159 2956 
Q 1341 3275 1631 3429 
Q 1922 3584 2338 3584 
Q 2397 3584 2469 3576 
Q 2541 3569 2628 3553 
L 2631 2963 
z
" transform="scale(0.015625)"/>
        <path id="DejaVuSans-6e" d="M 3513 2113 
L 3513 0 
L 2938 0 
L 2938 2094 
Q 2938 2591 2744 2837 
Q 2550 3084 2163 3084 
Q 1697 3084 1428 2787 
Q 1159 2491 1159 1978 
L 1159 0 
L 581 0 
L 581 3500 
L 1159 3500 
L 1159 2956 
Q 1366 3272 1645 3428 
Q 1925 3584 2291 3584 
Q 2894 3584 3203 3211 
Q 3513 2838 3513 2113 
z
" transform="scale(0.015625)"/>
       </defs>
       <use xlink:href="#DejaVuSans-62"/>
       <use xlink:href="#DejaVuSans-61" transform="translate(63.476562 0)"/>
       <use xlink:href="#DejaVuSans-72" transform="translate(124.755859 0)"/>
       <use xlink:href="#DejaVuSans-6e" transform="translate(164.119141 0)"/>
       <use xlink:href="#DejaVuSans-65" transform="translate(227.498047 0)"/>
       <use xlink:href="#DejaVuSans-73" transform="translate(289.021484 0)"/>
      </g>
     </g>
    </g>
    <g id="xtick_4">
     <g id="line2d_4">
      <g>
       <use xlink:href="#m462db7d4c7" x="334.812724" y="352.405938" style="stroke: #000000; stroke-width: 0.8"/>
      </g>
     </g>
     <g id="text_4">
      <!-- cache-scratch1 -->
      <g transform="translate(279.397649 418.723358) rotate(-45) scale(0.1 -0.1)">
       <defs>
        <path id="DejaVuSans-68" d="M 3513 2113 
L 3513 0 
L 2938 0 
L 2938 2094 
Q 2938 2591 2744 2837 
Q 2550 3084 2163 3084 
Q 1697 3084 1428 2787 
Q 1159 2491 1159 1978 
L 1159 0 
L 581 0 
L 581 4863 
L 1159 4863 
L 1159 2956 
Q 1366 3272 1645 3428 
Q 1925 3584 2291 3584 
Q 2894 3584 3203 3211 
Q 3513 2838 3513 2113 
z
" transform="scale(0.015625)"/>
       </defs>
       <use xlink:href="#DejaVuSans-63"/>
       <use xlink:href="#DejaVuSans-61" transform="translate(54.980469 0)"/>
       <use xlink:href="#DejaVuSans-63" transform="translate(116.259766 0)"/>
       <use xlink:href="#DejaVuSans-68" transform="translate(171.240234 0)"/>
       <use xlink:href="#DejaVuSans-65" transform="translate(234.619141 0)"/>
       <use xlink:href="#DejaVuSans-2d" transform="translate(296.142578 0)"/>
       <use xlink:href="#DejaVuSans-73" transform="translate(332.226562 0)"/>
       <use xlink:href="#DejaVuSans-63" transform="translate(384.326172 0)"/>
       <use xlink:href="#DejaVuSans-72" transform="translate(439.306641 0)"/>
       <use xlink:href="#DejaVuSans-61" transform="translate(480.419922 0)"/>
       <use xlink:href="#DejaVuSans-74" transform="translate(541.699219 0)"/>
       <use xlink:href="#DejaVuSans-63" transform="translate(580.908203 0)"/>
       <use xlink:href="#DejaVuSans-68" transform="translate(635.888672 0)"/>
       <use xlink:href="#DejaVuSans-31" transform="translate(699.267578 0)"/>
      </g>
     </g>
    </g>
    <g id="xtick_5">
     <g id="line2d_5">
      <g>
       <use xlink:href="#m462db7d4c7" x="401.675504" y="352.405938" style="stroke: #000000; stroke-width: 0.8"/>
      </g>
     </g>
     <g id="text_5">
      <!-- cache-scratchN -->
      <g transform="translate(345.469354 419.514434) rotate(-45) scale(0.1 -0.1)">
       <use xlink:href="#DejaVuSans-63"/>
       <use xlink:href="#DejaVuSans-61" transform="translate(54.980469 0)"/>
       <use xlink:href="#DejaVuSans-63" transform="translate(116.259766 0)"/>
       <use xlink:href="#DejaVuSans-68" transform="translate(171.240234 0)"/>
       <use xlink:href="#DejaVuSans-65" transform="translate(234.619141 0)"/>
       <use xlink:href="#DejaVuSans-2d" transform="translate(296.142578 0)"/>
       <use xlink:href="#DejaVuSans-73" transform="translate(332.226562 0)"/>
       <use xlink:href="#DejaVuSans-63" transform="translate(384.326172 0)"/>
       <use xlink:href="#DejaVuSans-72" transform="translate(439.306641 0)"/>
       <use xlink:href="#DejaVuSans-61" transform="translate(480.419922 0)"/>
       <use xlink:href="#DejaVuSans-74" transform="translate(541.699219 0)"/>
       <use xlink:href="#DejaVuSans-63" transform="translate(580.908203 0)"/>
       <use xlink:href="#DejaVuSans-68" transform="translate(635.888672 0)"/>
       <use xlink:href="#DejaVuSans-4e" transform="translate(699.267578 0)"/>
      </g>
     </g>
    </g>
    <g id="xtick_6">
     <g id="line2d_6">
      <g>
       <use xlink:href="#m462db7d4c7" x="468.538284" y="352.405938" style="stroke: #000000; stroke-width: 0.8"/>
      </g>
     </g>
     <g id="text_6">
      <!-- cfrac -->
      <g transform="translate(449.562411 382.284157) rotate(-45) scale(0.1 -0.1)">
       <defs>
        <path id="DejaVuSans-66" d="M 2375 4863 
L 2375 4384 
L 1825 4384 
Q 1516 4384 1395 4259 
Q 1275 4134 1275 3809 
L 1275 3500 
L 2222 3500 
L 2222 3053 
L 1275 3053 
L 1275 0 
L 697 0 
L 697 3053 
L 147 3053 
L 147 3500 
L 697 3500 
L 697 3744 
Q 697 4328 969 4595 
Q 1241 4863 1831 4863 
L 2375 4863 
z
" transform="scale(0.015625)"/>
       </defs>
       <use xlink:href="#DejaVuSans-63"/>
       <use xlink:href="#DejaVuSans-66" transform="translate(54.980469 0)"/>
       <use xlink:href="#DejaVuSans-72" transform="translate(90.185547 0)"/>
       <use xlink:href="#DejaVuSans-61" transform="translate(131.298828 0)"/>
       <use xlink:href="#DejaVuSans-63" transform="translate(192.578125 0)"/>
      </g>
     </g>
    </g>
    <g id="xtick_7">
     <g id="line2d_7">
      <g>
       <use xlink:href="#m462db7d4c7" x="535.401064" y="352.405938" style="stroke: #000000; stroke-width: 0.8"/>
      </g>
     </g>
     <g id="text_7">
      <!-- glibc-simple -->
      <g transform="translate(491.244456 407.464893) rotate(-45) scale(0.1 -0.1)">
       <defs>
        <path id="DejaVuSans-67" d="M 2906 1791 
Q 2906 2416 2648 2759 
Q 2391 3103 1925 3103 
Q 1463 3103 1205 2759 
Q 947 2416 947 1791 
Q 947 1169 1205 825 
Q 1463 481 1925 481 
Q 2391 481 2648 825 
Q 2906 1169 2906 1791 
z
M 3481 434 
Q 3481 -459 3084 -895 
Q 2688 -1331 1869 -1331 
Q 1566 -1331 1297 -1286 
Q 1028 -1241 775 -1147 
L 775 -588 
Q 1028 -725 1275 -790 
Q 1522 -856 1778 -856 
Q 2344 -856 2625 -561 
Q 2906 -266 2906 331 
L 2906 616 
Q 2728 306 2450 153 
Q 2172 0 1784 0 
Q 1141 0 747 490 
Q 353 981 353 1791 
Q 353 2603 747 3093 
Q 1141 3584 1784 3584 
Q 2172 3584 2450 3431 
Q 2728 3278 2906 2969 
L 2906 3500 
L 3481 3500 
L 3481 434 
z
" transform="scale(0.015625)"/>
        <path id="DejaVuSans-69" d="M 603 3500 
L 1178 3500 
L 1178 0 
L 603 0 
L 603 3500 
z
M 603 4863 
L 1178 4863 
L 1178 4134 
L 603 4134 
L 603 4863 
z
" transform="scale(0.015625)"/>
        <path id="DejaVuSans-6d" d="M 3328 2828 
Q 3544 3216 3844 3400 
Q 4144 3584 4550 3584 
Q 5097 3584 5394 3201 
Q 5691 2819 5691 2113 
L 5691 0 
L 5113 0 
L 5113 2094 
Q 5113 2597 4934 2840 
Q 4756 3084 4391 3084 
Q 3944 3084 3684 2787 
Q 3425 2491 3425 1978 
L 3425 0 
L 2847 0 
L 2847 2094 
Q 2847 2600 2669 2842 
Q 2491 3084 2119 3084 
Q 1678 3084 1418 2786 
Q 1159 2488 1159 1978 
L 1159 0 
L 581 0 
L 581 3500 
L 1159 3500 
L 1159 2956 
Q 1356 3278 1631 3431 
Q 1906 3584 2284 3584 
Q 2666 3584 2933 3390 
Q 3200 3197 3328 2828 
z
" transform="scale(0.015625)"/>
        <path id="DejaVuSans-70" d="M 1159 525 
L 1159 -1331 
L 581 -1331 
L 581 3500 
L 1159 3500 
L 1159 2969 
Q 1341 3281 1617 3432 
Q 1894 3584 2278 3584 
Q 2916 3584 3314 3078 
Q 3713 2572 3713 1747 
Q 3713 922 3314 415 
Q 2916 -91 2278 -91 
Q 1894 -91 1617 61 
Q 1341 213 1159 525 
z
M 3116 1747 
Q 3116 2381 2855 2742 
Q 2594 3103 2138 3103 
Q 1681 3103 1420 2742 
Q 1159 2381 1159 1747 
Q 1159 1113 1420 752 
Q 1681 391 2138 391 
Q 2594 391 2855 752 
Q 3116 1113 3116 1747 
z
" transform="scale(0.015625)"/>
       </defs>
       <use xlink:href="#DejaVuSans-67"/>
       <use xlink:href="#DejaVuSans-6c" transform="translate(63.476562 0)"/>
       <use xlink:href="#DejaVuSans-69" transform="translate(91.259766 0)"/>
       <use xlink:href="#DejaVuSans-62" transform="translate(119.042969 0)"/>
       <use xlink:href="#DejaVuSans-63" transform="translate(182.519531 0)"/>
       <use xlink:href="#DejaVuSans-2d" transform="translate(237.5 0)"/>
       <use xlink:href="#DejaVuSans-73" transform="translate(273.583984 0)"/>
       <use xlink:href="#DejaVuSans-69" transform="translate(325.683594 0)"/>
       <use xlink:href="#DejaVuSans-6d" transform="translate(353.466797 0)"/>
       <use xlink:href="#DejaVuSans-70" transform="translate(450.878906 0)"/>
       <use xlink:href="#DejaVuSans-6c" transform="translate(514.355469 0)"/>
       <use xlink:href="#DejaVuSans-65" transform="translate(542.138672 0)"/>
      </g>
     </g>
    </g>
    <g id="xtick_8">
     <g id="line2d_8">
      <g>
       <use xlink:href="#m462db7d4c7" x="602.263845" y="352.405938" style="stroke: #000000; stroke-width: 0.8"/>
      </g>
     </g>
     <g id="text_8">
      <!-- glibc-thread -->
      <g transform="translate(558.272964 407.299165) rotate(-45) scale(0.1 -0.1)">
       <defs>
        <path id="DejaVuSans-64" d="M 2906 2969 
L 2906 4863 
L 3481 4863 
L 3481 0 
L 2906 0 
L 2906 525 
Q 2725 213 2448 61 
Q 2172 -91 1784 -91 
Q 1150 -91 751 415 
Q 353 922 353 1747 
Q 353 2572 751 3078 
Q 1150 3584 1784 3584 
Q 2172 3584 2448 3432 
Q 2725 3281 2906 2969 
z
M 947 1747 
Q 947 1113 1208 752 
Q 1469 391 1925 391 
Q 2381 391 2643 752 
Q 2906 1113 2906 1747 
Q 2906 2381 2643 2742 
Q 2381 3103 1925 3103 
Q 1469 3103 1208 2742 
Q 947 2381 947 1747 
z
" transform="scale(0.015625)"/>
       </defs>
       <use xlink:href="#DejaVuSans-67"/>
       <use xlink:href="#DejaVuSans-6c" transform="translate(63.476562 0)"/>
       <use xlink:href="#DejaVuSans-69" transform="translate(91.259766 0)"/>
       <use xlink:href="#DejaVuSans-62" transform="translate(119.042969 0)"/>
       <use xlink:href="#DejaVuSans-63" transform="translate(182.519531 0)"/>
       <use xlink:href="#DejaVuSans-2d" transform="translate(237.5 0)"/>
       <use xlink:href="#DejaVuSans-74" transform="translate(273.583984 0)"/>
       <use xlink:href="#DejaVuSans-68" transform="translate(312.792969 0)"/>
       <use xlink:href="#DejaVuSans-72" transform="translate(376.171875 0)"/>
       <use xlink:href="#DejaVuSans-65" transform="translate(415.035156 0)"/>
       <use xlink:href="#DejaVuSans-61" transform="translate(476.558594 0)"/>
       <use xlink:href="#DejaVuSans-64" transform="translate(537.837891 0)"/>
      </g>
     </g>
    </g>
    <g id="xtick_9">
     <g id="line2d_9">
      <g>
       <use xlink:href="#m462db7d4c7" x="669.126625" y="352.405938" style="stroke: #000000; stroke-width: 0.8"/>
      </g>
     </g>
     <g id="text_9">
      <!-- larsonN-sized -->
      <g transform="translate(619.919727 412.515182) rotate(-45) scale(0.1 -0.1)">
       <defs>
        <path id="DejaVuSans-7a" d="M 353 3500 
L 3084 3500 
L 3084 2975 
L 922 459 
L 3084 459 
L 3084 0 
L 275 0 
L 275 525 
L 2438 3041 
L 353 3041 
L 353 3500 
z
" transform="scale(0.015625)"/>
       </defs>
       <use xlink:href="#DejaVuSans-6c"/>
       <use xlink:href="#DejaVuSans-61" transform="translate(27.783203 0)"/>
       <use xlink:href="#DejaVuSans-72" transform="translate(89.0625 0)"/>
       <use xlink:href="#DejaVuSans-73" transform="translate(130.175781 0)"/>
       <use xlink:href="#DejaVuSans-6f" transform="translate(182.275391 0)"/>
       <use xlink:href="#DejaVuSans-6e" transform="translate(243.457031 0)"/>
       <use xlink:href="#DejaVuSans-4e" transform="translate(306.835938 0)"/>
       <use xlink:href="#DejaVuSans-2d" transform="translate(381.640625 0)"/>
       <use xlink:href="#DejaVuSans-73" transform="translate(417.724609 0)"/>
       <use xlink:href="#DejaVuSans-69" transform="translate(469.824219 0)"/>
       <use xlink:href="#DejaVuSans-7a" transform="translate(497.607422 0)"/>
       <use xlink:href="#DejaVuSans-65" transform="translate(550.097656 0)"/>
       <use xlink:href="#DejaVuSans-64" transform="translate(611.621094 0)"/>
      </g>
     </g>
    </g>
    <g id="xtick_10">
     <g id="line2d_10">
      <g>
       <use xlink:href="#m462db7d4c7" x="735.989405" y="352.405938" style="stroke: #000000; stroke-width: 0.8"/>
      </g>
     </g>
     <g id="text_10">
      <!-- rptestN -->
      <g transform="translate(708.254246 391.043443) rotate(-45) scale(0.1 -0.1)">
       <use xlink:href="#DejaVuSans-72"/>
       <use xlink:href="#DejaVuSans-70" transform="translate(41.113281 0)"/>
       <use xlink:href="#DejaVuSans-74" transform="translate(104.589844 0)"/>
       <use xlink:href="#DejaVuSans-65" transform="translate(143.798828 0)"/>
       <use xlink:href="#DejaVuSans-73" transform="translate(205.322266 0)"/>
       <use xlink:href="#DejaVuSans-74" transform="translate(257.421875 0)"/>
       <use xlink:href="#DejaVuSans-4e" transform="translate(296.630859 0)"/>
      </g>
     </g>
    </g>
    <g id="xtick_11">
     <g id="line2d_11">
      <g>
       <use xlink:href="#m462db7d4c7" x="802.852185" y="352.405938" style="stroke: #000000; stroke-width: 0.8"/>
      </g>
     </g>
     <g id="text_11">
      <!-- sh6benchN -->
      <g transform="translate(761.737241 404.423229) rotate(-45) scale(0.1 -0.1)">
       <defs>
        <path id="DejaVuSans-36" d="M 2113 2584 
Q 1688 2584 1439 2293 
Q 1191 2003 1191 1497 
Q 1191 994 1439 701 
Q 1688 409 2113 409 
Q 2538 409 2786 701 
Q 3034 994 3034 1497 
Q 3034 2003 2786 2293 
Q 2538 2584 2113 2584 
z
M 3366 4563 
L 3366 3988 
Q 3128 4100 2886 4159 
Q 2644 4219 2406 4219 
Q 1781 4219 1451 3797 
Q 1122 3375 1075 2522 
Q 1259 2794 1537 2939 
Q 1816 3084 2150 3084 
Q 2853 3084 3261 2657 
Q 3669 2231 3669 1497 
Q 3669 778 3244 343 
Q 2819 -91 2113 -91 
Q 1303 -91 875 529 
Q 447 1150 447 2328 
Q 447 3434 972 4092 
Q 1497 4750 2381 4750 
Q 2619 4750 2861 4703 
Q 3103 4656 3366 4563 
z
" transform="scale(0.015625)"/>
       </defs>
       <use xlink:href="#DejaVuSans-73"/>
       <use xlink:href="#DejaVuSans-68" transform="translate(52.099609 0)"/>
       <use xlink:href="#DejaVuSans-36" transform="translate(115.478516 0)"/>
       <use xlink:href="#DejaVuSans-62" transform="translate(179.101562 0)"/>
       <use xlink:href="#DejaVuSans-65" transform="translate(242.578125 0)"/>
       <use xlink:href="#DejaVuSans-6e" transform="translate(304.101562 0)"/>
       <use xlink:href="#DejaVuSans-63" transform="translate(367.480469 0)"/>
       <use xlink:href="#DejaVuSans-68" transform="translate(422.460938 0)"/>
       <use xlink:href="#DejaVuSans-4e" transform="translate(485.839844 0)"/>
      </g>
     </g>
    </g>
    <g id="xtick_12">
     <g id="line2d_12">
      <g>
       <use xlink:href="#m462db7d4c7" x="869.714966" y="352.405938" style="stroke: #000000; stroke-width: 0.8"/>
      </g>
     </g>
     <g id="text_12">
      <!-- sh8benchN -->
      <g transform="translate(828.600021 404.423229) rotate(-45) scale(0.1 -0.1)">
       <defs>
        <path id="DejaVuSans-38" d="M 2034 2216 
Q 1584 2216 1326 1975 
Q 1069 1734 1069 1313 
Q 1069 891 1326 650 
Q 1584 409 2034 409 
Q 2484 409 2743 651 
Q 3003 894 3003 1313 
Q 3003 1734 2745 1975 
Q 2488 2216 2034 2216 
z
M 1403 2484 
Q 997 2584 770 2862 
Q 544 3141 544 3541 
Q 544 4100 942 4425 
Q 1341 4750 2034 4750 
Q 2731 4750 3128 4425 
Q 3525 4100 3525 3541 
Q 3525 3141 3298 2862 
Q 3072 2584 2669 2484 
Q 3125 2378 3379 2068 
Q 3634 1759 3634 1313 
Q 3634 634 3220 271 
Q 2806 -91 2034 -91 
Q 1263 -91 848 271 
Q 434 634 434 1313 
Q 434 1759 690 2068 
Q 947 2378 1403 2484 
z
M 1172 3481 
Q 1172 3119 1398 2916 
Q 1625 2713 2034 2713 
Q 2441 2713 2670 2916 
Q 2900 3119 2900 3481 
Q 2900 3844 2670 4047 
Q 2441 4250 2034 4250 
Q 1625 4250 1398 4047 
Q 1172 3844 1172 3481 
z
" transform="scale(0.015625)"/>
       </defs>
       <use xlink:href="#DejaVuSans-73"/>
       <use xlink:href="#DejaVuSans-68" transform="translate(52.099609 0)"/>
       <use xlink:href="#DejaVuSans-38" transform="translate(115.478516 0)"/>
       <use xlink:href="#DejaVuSans-62" transform="translate(179.101562 0)"/>
       <use xlink:href="#DejaVuSans-65" transform="translate(242.578125 0)"/>
       <use xlink:href="#DejaVuSans-6e" transform="translate(304.101562 0)"/>
       <use xlink:href="#DejaVuSans-63" transform="translate(367.480469 0)"/>
       <use xlink:href="#DejaVuSans-68" transform="translate(422.460938 0)"/>
       <use xlink:href="#DejaVuSans-4e" transform="translate(485.839844 0)"/>
      </g>
     </g>
    </g>
    <g id="xtick_13">
     <g id="line2d_13">
      <g>
       <use xlink:href="#m462db7d4c7" x="936.577746" y="352.405938" style="stroke: #000000; stroke-width: 0.8"/>
      </g>
     </g>
     <g id="text_13">
      <!-- xmalloc-testN -->
      <g transform="translate(886.13783 413.748199) rotate(-45) scale(0.1 -0.1)">
       <defs>
        <path id="DejaVuSans-78" d="M 3513 3500 
L 2247 1797 
L 3578 0 
L 2900 0 
L 1881 1375 
L 863 0 
L 184 0 
L 1544 1831 
L 300 3500 
L 978 3500 
L 1906 2253 
L 2834 3500 
L 3513 3500 
z
" transform="scale(0.015625)"/>
       </defs>
       <use xlink:href="#DejaVuSans-78"/>
       <use xlink:href="#DejaVuSans-6d" transform="translate(59.179688 0)"/>
       <use xlink:href="#DejaVuSans-61" transform="translate(156.591797 0)"/>
       <use xlink:href="#DejaVuSans-6c" transform="translate(217.871094 0)"/>
       <use xlink:href="#DejaVuSans-6c" transform="translate(245.654297 0)"/>
       <use xlink:href="#DejaVuSans-6f" transform="translate(273.4375 0)"/>
       <use xlink:href="#DejaVuSans-63" transform="translate(334.619141 0)"/>
       <use xlink:href="#DejaVuSans-2d" transform="translate(389.599609 0)"/>
       <use xlink:href="#DejaVuSans-74" transform="translate(425.683594 0)"/>
       <use xlink:href="#DejaVuSans-65" transform="translate(464.892578 0)"/>
       <use xlink:href="#DejaVuSans-73" transform="translate(526.416016 0)"/>
       <use xlink:href="#DejaVuSans-74" transform="translate(578.515625 0)"/>
       <use xlink:href="#DejaVuSans-4e" transform="translate(617.724609 0)"/>
      </g>
     </g>
    </g>
   </g>
   <g id="matplotlib.axis_2">
    <g id="ytick_1">
     <g id="line2d_14">
      <defs>
       <path id="m07edf413e7" d="M 0 0 
L -3.5 0 
" style="stroke: #000000; stroke-width: 0.8"/>
      </defs>
      <g>
       <use xlink:href="#m07edf413e7" x="55.772054" y="349.289199" style="stroke: #000000; stroke-width: 0.8"/>
      </g>
     </g>
     <g id="text_14">
      <!-- $\mathdefault{10^{-1}}$ -->
      <g transform="translate(25.272054 353.088418) scale(0.1 -0.1)">
       <defs>
        <path id="DejaVuSans-30" d="M 2034 4250 
Q 1547 4250 1301 3770 
Q 1056 3291 1056 2328 
Q 1056 1369 1301 889 
Q 1547 409 2034 409 
Q 2525 409 2770 889 
Q 3016 1369 3016 2328 
Q 3016 3291 2770 3770 
Q 2525 4250 2034 4250 
z
M 2034 4750 
Q 2819 4750 3233 4129 
Q 3647 3509 3647 2328 
Q 3647 1150 3233 529 
Q 2819 -91 2034 -91 
Q 1250 -91 836 529 
Q 422 1150 422 2328 
Q 422 3509 836 4129 
Q 1250 4750 2034 4750 
z
" transform="scale(0.015625)"/>
        <path id="DejaVuSans-2212" d="M 678 2272 
L 4684 2272 
L 4684 1741 
L 678 1741 
L 678 2272 
z
" transform="scale(0.015625)"/>
       </defs>
       <use xlink:href="#DejaVuSans-31" transform="translate(0 0.684375)"/>
       <use xlink:href="#DejaVuSans-30" transform="translate(63.623047 0.684375)"/>
       <use xlink:href="#DejaVuSans-2212" transform="translate(128.203125 38.965625) scale(0.7)"/>
       <use xlink:href="#DejaVuSans-31" transform="translate(186.855469 38.965625) scale(0.7)"/>
      </g>
     </g>
    </g>
    <g id="ytick_2">
     <g id="line2d_15">
      <g>
       <use xlink:href="#m07edf413e7" x="55.772054" y="310.489431" style="stroke: #000000; stroke-width: 0.8"/>
      </g>
     </g>
     <g id="text_15">
      <!-- $\mathdefault{10^{0}}$ -->
      <g transform="translate(31.172054 314.28865) scale(0.1 -0.1)">
       <use xlink:href="#DejaVuSans-31" transform="translate(0 0.765625)"/>
       <use xlink:href="#DejaVuSans-30" transform="translate(63.623047 0.765625)"/>
       <use xlink:href="#DejaVuSans-30" transform="translate(128.203125 39.046875) scale(0.7)"/>
      </g>
     </g>
    </g>
    <g id="ytick_3">
     <g id="line2d_16">
      <g>
       <use xlink:href="#m07edf413e7" x="55.772054" y="271.689663" style="stroke: #000000; stroke-width: 0.8"/>
      </g>
     </g>
     <g id="text_16">
      <!-- $\mathdefault{10^{1}}$ -->
      <g transform="translate(31.172054 275.488882) scale(0.1 -0.1)">
       <use xlink:href="#DejaVuSans-31" transform="translate(0 0.684375)"/>
       <use xlink:href="#DejaVuSans-30" transform="translate(63.623047 0.684375)"/>
       <use xlink:href="#DejaVuSans-31" transform="translate(128.203125 38.965625) scale(0.7)"/>
      </g>
     </g>
    </g>
    <g id="ytick_4">
     <g id="line2d_17">
      <g>
       <use xlink:href="#m07edf413e7" x="55.772054" y="232.889895" style="stroke: #000000; stroke-width: 0.8"/>
      </g>
     </g>
     <g id="text_17">
      <!-- $\mathdefault{10^{2}}$ -->
      <g transform="translate(31.172054 236.689114) scale(0.1 -0.1)">
       <defs>
        <path id="DejaVuSans-32" d="M 1228 531 
L 3431 531 
L 3431 0 
L 469 0 
L 469 531 
Q 828 903 1448 1529 
Q 2069 2156 2228 2338 
Q 2531 2678 2651 2914 
Q 2772 3150 2772 3378 
Q 2772 3750 2511 3984 
Q 2250 4219 1831 4219 
Q 1534 4219 1204 4116 
Q 875 4013 500 3803 
L 500 4441 
Q 881 4594 1212 4672 
Q 1544 4750 1819 4750 
Q 2544 4750 2975 4387 
Q 3406 4025 3406 3419 
Q 3406 3131 3298 2873 
Q 3191 2616 2906 2266 
Q 2828 2175 2409 1742 
Q 1991 1309 1228 531 
z
" transform="scale(0.015625)"/>
       </defs>
       <use xlink:href="#DejaVuSans-31" transform="translate(0 0.765625)"/>
       <use xlink:href="#DejaVuSans-30" transform="translate(63.623047 0.765625)"/>
       <use xlink:href="#DejaVuSans-32" transform="translate(128.203125 39.046875) scale(0.7)"/>
      </g>
     </g>
    </g>
    <g id="ytick_5">
     <g id="line2d_18">
      <g>
       <use xlink:href="#m07edf413e7" x="55.772054" y="194.090127" style="stroke: #000000; stroke-width: 0.8"/>
      </g>
     </g>
     <g id="text_18">
      <!-- $\mathdefault{10^{3}}$ -->
      <g transform="translate(31.172054 197.889346) scale(0.1 -0.1)">
       <defs>
        <path id="DejaVuSans-33" d="M 2597 2516 
Q 3050 2419 3304 2112 
Q 3559 1806 3559 1356 
Q 3559 666 3084 287 
Q 2609 -91 1734 -91 
Q 1441 -91 1130 -33 
Q 819 25 488 141 
L 488 750 
Q 750 597 1062 519 
Q 1375 441 1716 441 
Q 2309 441 2620 675 
Q 2931 909 2931 1356 
Q 2931 1769 2642 2001 
Q 2353 2234 1838 2234 
L 1294 2234 
L 1294 2753 
L 1863 2753 
Q 2328 2753 2575 2939 
Q 2822 3125 2822 3475 
Q 2822 3834 2567 4026 
Q 2313 4219 1838 4219 
Q 1578 4219 1281 4162 
Q 984 4106 628 3988 
L 628 4550 
Q 988 4650 1302 4700 
Q 1616 4750 1894 4750 
Q 2613 4750 3031 4423 
Q 3450 4097 3450 3541 
Q 3450 3153 3228 2886 
Q 3006 2619 2597 2516 
z
" transform="scale(0.015625)"/>
       </defs>
       <use xlink:href="#DejaVuSans-31" transform="translate(0 0.765625)"/>
       <use xlink:href="#DejaVuSans-30" transform="translate(63.623047 0.765625)"/>
       <use xlink:href="#DejaVuSans-33" transform="translate(128.203125 39.046875) scale(0.7)"/>
      </g>
     </g>
    </g>
    <g id="ytick_6">
     <g id="line2d_19">
      <g>
       <use xlink:href="#m07edf413e7" x="55.772054" y="155.290359" style="stroke: #000000; stroke-width: 0.8"/>
      </g>
     </g>
     <g id="text_19">
      <!-- $\mathdefault{10^{4}}$ -->
      <g transform="translate(31.172054 159.089578) scale(0.1 -0.1)">
       <defs>
        <path id="DejaVuSans-34" d="M 2419 4116 
L 825 1625 
L 2419 1625 
L 2419 4116 
z
M 2253 4666 
L 3047 4666 
L 3047 1625 
L 3713 1625 
L 3713 1100 
L 3047 1100 
L 3047 0 
L 2419 0 
L 2419 1100 
L 313 1100 
L 313 1709 
L 2253 4666 
z
" transform="scale(0.015625)"/>
       </defs>
       <use xlink:href="#DejaVuSans-31" transform="translate(0 0.684375)"/>
       <use xlink:href="#DejaVuSans-30" transform="translate(63.623047 0.684375)"/>
       <use xlink:href="#DejaVuSans-34" transform="translate(128.203125 38.965625) scale(0.7)"/>
      </g>
     </g>
    </g>
    <g id="ytick_7">
     <g id="line2d_20">
      <g>
       <use xlink:href="#m07edf413e7" x="55.772054" y="116.490591" style="stroke: #000000; stroke-width: 0.8"/>
      </g>
     </g>
     <g id="text_20">
      <!-- $\mathdefault{10^{5}}$ -->
      <g transform="translate(31.172054 120.28981) scale(0.1 -0.1)">
       <defs>
        <path id="DejaVuSans-35" d="M 691 4666 
L 3169 4666 
L 3169 4134 
L 1269 4134 
L 1269 2991 
Q 1406 3038 1543 3061 
Q 1681 3084 1819 3084 
Q 2600 3084 3056 2656 
Q 3513 2228 3513 1497 
Q 3513 744 3044 326 
Q 2575 -91 1722 -91 
Q 1428 -91 1123 -41 
Q 819 9 494 109 
L 494 744 
Q 775 591 1075 516 
Q 1375 441 1709 441 
Q 2250 441 2565 725 
Q 2881 1009 2881 1497 
Q 2881 1984 2565 2268 
Q 2250 2553 1709 2553 
Q 1456 2553 1204 2497 
Q 953 2441 691 2322 
L 691 4666 
z
" transform="scale(0.015625)"/>
       </defs>
       <use xlink:href="#DejaVuSans-31" transform="translate(0 0.684375)"/>
       <use xlink:href="#DejaVuSans-30" transform="translate(63.623047 0.684375)"/>
       <use xlink:href="#DejaVuSans-35" transform="translate(128.203125 38.965625) scale(0.7)"/>
      </g>
     </g>
    </g>
    <g id="ytick_8">
     <g id="line2d_21">
      <g>
       <use xlink:href="#m07edf413e7" x="55.772054" y="77.690823" style="stroke: #000000; stroke-width: 0.8"/>
      </g>
     </g>
     <g id="text_21">
      <!-- $\mathdefault{10^{6}}$ -->
      <g transform="translate(31.172054 81.490042) scale(0.1 -0.1)">
       <use xlink:href="#DejaVuSans-31" transform="translate(0 0.765625)"/>
       <use xlink:href="#DejaVuSans-30" transform="translate(63.623047 0.765625)"/>
       <use xlink:href="#DejaVuSans-36" transform="translate(128.203125 39.046875) scale(0.7)"/>
      </g>
     </g>
    </g>
    <g id="ytick_9">
     <g id="line2d_22">
      <g>
       <use xlink:href="#m07edf413e7" x="55.772054" y="38.891055" style="stroke: #000000; stroke-width: 0.8"/>
      </g>
     </g>
     <g id="text_22">
      <!-- $\mathdefault{10^{7}}$ -->
      <g transform="translate(31.172054 42.690274) scale(0.1 -0.1)">
       <defs>
        <path id="DejaVuSans-37" d="M 525 4666 
L 3525 4666 
L 3525 4397 
L 1831 0 
L 1172 0 
L 2766 4134 
L 525 4134 
L 525 4666 
z
" transform="scale(0.015625)"/>
       </defs>
       <use xlink:href="#DejaVuSans-31" transform="translate(0 0.684375)"/>
       <use xlink:href="#DejaVuSans-30" transform="translate(63.623047 0.684375)"/>
       <use xlink:href="#DejaVuSans-37" transform="translate(128.203125 38.965625) scale(0.7)"/>
      </g>
     </g>
    </g>
    <g id="ytick_10">
     <g id="line2d_23">
      <defs>
       <path id="m76373871d0" d="M 0 0 
L -2 0 
" style="stroke: #000000; stroke-width: 0.6"/>
      </defs>
      <g>
       <use xlink:href="#m76373871d0" x="55.772054" y="351.064579" style="stroke: #000000; stroke-width: 0.6"/>
      </g>
     </g>
    </g>
    <g id="ytick_11">
     <g id="line2d_24">
      <g>
       <use xlink:href="#m76373871d0" x="55.772054" y="337.609305" style="stroke: #000000; stroke-width: 0.6"/>
      </g>
     </g>
    </g>
    <g id="ytick_12">
     <g id="line2d_25">
      <g>
       <use xlink:href="#m76373871d0" x="55.772054" y="330.777005" style="stroke: #000000; stroke-width: 0.6"/>
      </g>
     </g>
    </g>
    <g id="ytick_13">
     <g id="line2d_26">
      <g>
       <use xlink:href="#m76373871d0" x="55.772054" y="325.929411" style="stroke: #000000; stroke-width: 0.6"/>
      </g>
     </g>
    </g>
    <g id="ytick_14">
     <g id="line2d_27">
      <g>
       <use xlink:href="#m76373871d0" x="55.772054" y="322.169325" style="stroke: #000000; stroke-width: 0.6"/>
      </g>
     </g>
    </g>
    <g id="ytick_15">
     <g id="line2d_28">
      <g>
       <use xlink:href="#m76373871d0" x="55.772054" y="319.097111" style="stroke: #000000; stroke-width: 0.6"/>
      </g>
     </g>
    </g>
    <g id="ytick_16">
     <g id="line2d_29">
      <g>
       <use xlink:href="#m76373871d0" x="55.772054" y="316.499591" style="stroke: #000000; stroke-width: 0.6"/>
      </g>
     </g>
    </g>
    <g id="ytick_17">
     <g id="line2d_30">
      <g>
       <use xlink:href="#m76373871d0" x="55.772054" y="314.249517" style="stroke: #000000; stroke-width: 0.6"/>
      </g>
     </g>
    </g>
    <g id="ytick_18">
     <g id="line2d_31">
      <g>
       <use xlink:href="#m76373871d0" x="55.772054" y="312.264811" style="stroke: #000000; stroke-width: 0.6"/>
      </g>
     </g>
    </g>
    <g id="ytick_19">
     <g id="line2d_32">
      <g>
       <use xlink:href="#m76373871d0" x="55.772054" y="298.809537" style="stroke: #000000; stroke-width: 0.6"/>
      </g>
     </g>
    </g>
    <g id="ytick_20">
     <g id="line2d_33">
      <g>
       <use xlink:href="#m76373871d0" x="55.772054" y="291.977237" style="stroke: #000000; stroke-width: 0.6"/>
      </g>
     </g>
    </g>
    <g id="ytick_21">
     <g id="line2d_34">
      <g>
       <use xlink:href="#m76373871d0" x="55.772054" y="287.129643" style="stroke: #000000; stroke-width: 0.6"/>
      </g>
     </g>
    </g>
    <g id="ytick_22">
     <g id="line2d_35">
      <g>
       <use xlink:href="#m76373871d0" x="55.772054" y="283.369557" style="stroke: #000000; stroke-width: 0.6"/>
      </g>
     </g>
    </g>
    <g id="ytick_23">
     <g id="line2d_36">
      <g>
       <use xlink:href="#m76373871d0" x="55.772054" y="280.297343" style="stroke: #000000; stroke-width: 0.6"/>
      </g>
     </g>
    </g>
    <g id="ytick_24">
     <g id="line2d_37">
      <g>
       <use xlink:href="#m76373871d0" x="55.772054" y="277.699823" style="stroke: #000000; stroke-width: 0.6"/>
      </g>
     </g>
    </g>
    <g id="ytick_25">
     <g id="line2d_38">
      <g>
       <use xlink:href="#m76373871d0" x="55.772054" y="275.449749" style="stroke: #000000; stroke-width: 0.6"/>
      </g>
     </g>
    </g>
    <g id="ytick_26">
     <g id="line2d_39">
      <g>
       <use xlink:href="#m76373871d0" x="55.772054" y="273.465043" style="stroke: #000000; stroke-width: 0.6"/>
      </g>
     </g>
    </g>
    <g id="ytick_27">
     <g id="line2d_40">
      <g>
       <use xlink:href="#m76373871d0" x="55.772054" y="260.009769" style="stroke: #000000; stroke-width: 0.6"/>
      </g>
     </g>
    </g>
    <g id="ytick_28">
     <g id="line2d_41">
      <g>
       <use xlink:href="#m76373871d0" x="55.772054" y="253.177469" style="stroke: #000000; stroke-width: 0.6"/>
      </g>
     </g>
    </g>
    <g id="ytick_29">
     <g id="line2d_42">
      <g>
       <use xlink:href="#m76373871d0" x="55.772054" y="248.329875" style="stroke: #000000; stroke-width: 0.6"/>
      </g>
     </g>
    </g>
    <g id="ytick_30">
     <g id="line2d_43">
      <g>
       <use xlink:href="#m76373871d0" x="55.772054" y="244.569789" style="stroke: #000000; stroke-width: 0.6"/>
      </g>
     </g>
    </g>
    <g id="ytick_31">
     <g id="line2d_44">
      <g>
       <use xlink:href="#m76373871d0" x="55.772054" y="241.497575" style="stroke: #000000; stroke-width: 0.6"/>
      </g>
     </g>
    </g>
    <g id="ytick_32">
     <g id="line2d_45">
      <g>
       <use xlink:href="#m76373871d0" x="55.772054" y="238.900055" style="stroke: #000000; stroke-width: 0.6"/>
      </g>
     </g>
    </g>
    <g id="ytick_33">
     <g id="line2d_46">
      <g>
       <use xlink:href="#m76373871d0" x="55.772054" y="236.649981" style="stroke: #000000; stroke-width: 0.6"/>
      </g>
     </g>
    </g>
    <g id="ytick_34">
     <g id="line2d_47">
      <g>
       <use xlink:href="#m76373871d0" x="55.772054" y="234.665275" style="stroke: #000000; stroke-width: 0.6"/>
      </g>
     </g>
    </g>
    <g id="ytick_35">
     <g id="line2d_48">
      <g>
       <use xlink:href="#m76373871d0" x="55.772054" y="221.210001" style="stroke: #000000; stroke-width: 0.6"/>
      </g>
     </g>
    </g>
    <g id="ytick_36">
     <g id="line2d_49">
      <g>
       <use xlink:href="#m76373871d0" x="55.772054" y="214.377701" style="stroke: #000000; stroke-width: 0.6"/>
      </g>
     </g>
    </g>
    <g id="ytick_37">
     <g id="line2d_50">
      <g>
       <use xlink:href="#m76373871d0" x="55.772054" y="209.530107" style="stroke: #000000; stroke-width: 0.6"/>
      </g>
     </g>
    </g>
    <g id="ytick_38">
     <g id="line2d_51">
      <g>
       <use xlink:href="#m76373871d0" x="55.772054" y="205.770021" style="stroke: #000000; stroke-width: 0.6"/>
      </g>
     </g>
    </g>
    <g id="ytick_39">
     <g id="line2d_52">
      <g>
       <use xlink:href="#m76373871d0" x="55.772054" y="202.697807" style="stroke: #000000; stroke-width: 0.6"/>
      </g>
     </g>
    </g>
    <g id="ytick_40">
     <g id="line2d_53">
      <g>
       <use xlink:href="#m76373871d0" x="55.772054" y="200.100287" style="stroke: #000000; stroke-width: 0.6"/>
      </g>
     </g>
    </g>
    <g id="ytick_41">
     <g id="line2d_54">
      <g>
       <use xlink:href="#m76373871d0" x="55.772054" y="197.850213" style="stroke: #000000; stroke-width: 0.6"/>
      </g>
     </g>
    </g>
    <g id="ytick_42">
     <g id="line2d_55">
      <g>
       <use xlink:href="#m76373871d0" x="55.772054" y="195.865507" style="stroke: #000000; stroke-width: 0.6"/>
      </g>
     </g>
    </g>
    <g id="ytick_43">
     <g id="line2d_56">
      <g>
       <use xlink:href="#m76373871d0" x="55.772054" y="182.410233" style="stroke: #000000; stroke-width: 0.6"/>
      </g>
     </g>
    </g>
    <g id="ytick_44">
     <g id="line2d_57">
      <g>
       <use xlink:href="#m76373871d0" x="55.772054" y="175.577933" style="stroke: #000000; stroke-width: 0.6"/>
      </g>
     </g>
    </g>
    <g id="ytick_45">
     <g id="line2d_58">
      <g>
       <use xlink:href="#m76373871d0" x="55.772054" y="170.730339" style="stroke: #000000; stroke-width: 0.6"/>
      </g>
     </g>
    </g>
    <g id="ytick_46">
     <g id="line2d_59">
      <g>
       <use xlink:href="#m76373871d0" x="55.772054" y="166.970253" style="stroke: #000000; stroke-width: 0.6"/>
      </g>
     </g>
    </g>
    <g id="ytick_47">
     <g id="line2d_60">
      <g>
       <use xlink:href="#m76373871d0" x="55.772054" y="163.898039" style="stroke: #000000; stroke-width: 0.6"/>
      </g>
     </g>
    </g>
    <g id="ytick_48">
     <g id="line2d_61">
      <g>
       <use xlink:href="#m76373871d0" x="55.772054" y="161.300519" style="stroke: #000000; stroke-width: 0.6"/>
      </g>
     </g>
    </g>
    <g id="ytick_49">
     <g id="line2d_62">
      <g>
       <use xlink:href="#m76373871d0" x="55.772054" y="159.050445" style="stroke: #000000; stroke-width: 0.6"/>
      </g>
     </g>
    </g>
    <g id="ytick_50">
     <g id="line2d_63">
      <g>
       <use xlink:href="#m76373871d0" x="55.772054" y="157.065739" style="stroke: #000000; stroke-width: 0.6"/>
      </g>
     </g>
    </g>
    <g id="ytick_51">
     <g id="line2d_64">
      <g>
       <use xlink:href="#m76373871d0" x="55.772054" y="143.610465" style="stroke: #000000; stroke-width: 0.6"/>
      </g>
     </g>
    </g>
    <g id="ytick_52">
     <g id="line2d_65">
      <g>
       <use xlink:href="#m76373871d0" x="55.772054" y="136.778165" style="stroke: #000000; stroke-width: 0.6"/>
      </g>
     </g>
    </g>
    <g id="ytick_53">
     <g id="line2d_66">
      <g>
       <use xlink:href="#m76373871d0" x="55.772054" y="131.930571" style="stroke: #000000; stroke-width: 0.6"/>
      </g>
     </g>
    </g>
    <g id="ytick_54">
     <g id="line2d_67">
      <g>
       <use xlink:href="#m76373871d0" x="55.772054" y="128.170485" style="stroke: #000000; stroke-width: 0.6"/>
      </g>
     </g>
    </g>
    <g id="ytick_55">
     <g id="line2d_68">
      <g>
       <use xlink:href="#m76373871d0" x="55.772054" y="125.098271" style="stroke: #000000; stroke-width: 0.6"/>
      </g>
     </g>
    </g>
    <g id="ytick_56">
     <g id="line2d_69">
      <g>
       <use xlink:href="#m76373871d0" x="55.772054" y="122.500751" style="stroke: #000000; stroke-width: 0.6"/>
      </g>
     </g>
    </g>
    <g id="ytick_57">
     <g id="line2d_70">
      <g>
       <use xlink:href="#m76373871d0" x="55.772054" y="120.250677" style="stroke: #000000; stroke-width: 0.6"/>
      </g>
     </g>
    </g>
    <g id="ytick_58">
     <g id="line2d_71">
      <g>
       <use xlink:href="#m76373871d0" x="55.772054" y="118.265971" style="stroke: #000000; stroke-width: 0.6"/>
      </g>
     </g>
    </g>
    <g id="ytick_59">
     <g id="line2d_72">
      <g>
       <use xlink:href="#m76373871d0" x="55.772054" y="104.810697" style="stroke: #000000; stroke-width: 0.6"/>
      </g>
     </g>
    </g>
    <g id="ytick_60">
     <g id="line2d_73">
      <g>
       <use xlink:href="#m76373871d0" x="55.772054" y="97.978397" style="stroke: #000000; stroke-width: 0.6"/>
      </g>
     </g>
    </g>
    <g id="ytick_61">
     <g id="line2d_74">
      <g>
       <use xlink:href="#m76373871d0" x="55.772054" y="93.130803" style="stroke: #000000; stroke-width: 0.6"/>
      </g>
     </g>
    </g>
    <g id="ytick_62">
     <g id="line2d_75">
      <g>
       <use xlink:href="#m76373871d0" x="55.772054" y="89.370717" style="stroke: #000000; stroke-width: 0.6"/>
      </g>
     </g>
    </g>
    <g id="ytick_63">
     <g id="line2d_76">
      <g>
       <use xlink:href="#m76373871d0" x="55.772054" y="86.298503" style="stroke: #000000; stroke-width: 0.6"/>
      </g>
     </g>
    </g>
    <g id="ytick_64">
     <g id="line2d_77">
      <g>
       <use xlink:href="#m76373871d0" x="55.772054" y="83.700983" style="stroke: #000000; stroke-width: 0.6"/>
      </g>
     </g>
    </g>
    <g id="ytick_65">
     <g id="line2d_78">
      <g>
       <use xlink:href="#m76373871d0" x="55.772054" y="81.450909" style="stroke: #000000; stroke-width: 0.6"/>
      </g>
     </g>
    </g>
    <g id="ytick_66">
     <g id="line2d_79">
      <g>
       <use xlink:href="#m76373871d0" x="55.772054" y="79.466203" style="stroke: #000000; stroke-width: 0.6"/>
      </g>
     </g>
    </g>
    <g id="ytick_67">
     <g id="line2d_80">
      <g>
       <use xlink:href="#m76373871d0" x="55.772054" y="66.010929" style="stroke: #000000; stroke-width: 0.6"/>
      </g>
     </g>
    </g>
    <g id="ytick_68">
     <g id="line2d_81">
      <g>
       <use xlink:href="#m76373871d0" x="55.772054" y="59.178629" style="stroke: #000000; stroke-width: 0.6"/>
      </g>
     </g>
    </g>
    <g id="ytick_69">
     <g id="line2d_82">
      <g>
       <use xlink:href="#m76373871d0" x="55.772054" y="54.331035" style="stroke: #000000; stroke-width: 0.6"/>
      </g>
     </g>
    </g>
    <g id="ytick_70">
     <g id="line2d_83">
      <g>
       <use xlink:href="#m76373871d0" x="55.772054" y="50.570949" style="stroke: #000000; stroke-width: 0.6"/>
      </g>
     </g>
    </g>
    <g id="ytick_71">
     <g id="line2d_84">
      <g>
       <use xlink:href="#m76373871d0" x="55.772054" y="47.498735" style="stroke: #000000; stroke-width: 0.6"/>
      </g>
     </g>
    </g>
    <g id="ytick_72">
     <g id="line2d_85">
      <g>
       <use xlink:href="#m76373871d0" x="55.772054" y="44.901216" style="stroke: #000000; stroke-width: 0.6"/>
      </g>
     </g>
    </g>
    <g id="ytick_73">
     <g id="line2d_86">
      <g>
       <use xlink:href="#m76373871d0" x="55.772054" y="42.651141" style="stroke: #000000; stroke-width: 0.6"/>
      </g>
     </g>
    </g>
    <g id="ytick_74">
     <g id="line2d_87">
      <g>
       <use xlink:href="#m76373871d0" x="55.772054" y="40.666435" style="stroke: #000000; stroke-width: 0.6"/>
      </g>
     </g>
    </g>
    <g id="ytick_75">
     <g id="line2d_88">
      <g>
       <use xlink:href="#m76373871d0" x="55.772054" y="27.211161" style="stroke: #000000; stroke-width: 0.6"/>
      </g>
     </g>
    </g>
    <g id="text_23">
     <!-- Average Time (log scale) -->
     <g transform="translate(19.192366 251.584375) rotate(-90) scale(0.1 -0.1)">
      <defs>
       <path id="DejaVuSans-41" d="M 2188 4044 
L 1331 1722 
L 3047 1722 
L 2188 4044 
z
M 1831 4666 
L 2547 4666 
L 4325 0 
L 3669 0 
L 3244 1197 
L 1141 1197 
L 716 0 
L 50 0 
L 1831 4666 
z
" transform="scale(0.015625)"/>
       <path id="DejaVuSans-76" d="M 191 3500 
L 800 3500 
L 1894 563 
L 2988 3500 
L 3597 3500 
L 2284 0 
L 1503 0 
L 191 3500 
z
" transform="scale(0.015625)"/>
       <path id="DejaVuSans-20" transform="scale(0.015625)"/>
       <path id="DejaVuSans-54" d="M -19 4666 
L 3928 4666 
L 3928 4134 
L 2272 4134 
L 2272 0 
L 1638 0 
L 1638 4134 
L -19 4134 
L -19 4666 
z
" transform="scale(0.015625)"/>
       <path id="DejaVuSans-28" d="M 1984 4856 
Q 1566 4138 1362 3434 
Q 1159 2731 1159 2009 
Q 1159 1288 1364 580 
Q 1569 -128 1984 -844 
L 1484 -844 
Q 1016 -109 783 600 
Q 550 1309 550 2009 
Q 550 2706 781 3412 
Q 1013 4119 1484 4856 
L 1984 4856 
z
" transform="scale(0.015625)"/>
       <path id="DejaVuSans-29" d="M 513 4856 
L 1013 4856 
Q 1481 4119 1714 3412 
Q 1947 2706 1947 2009 
Q 1947 1309 1714 600 
Q 1481 -109 1013 -844 
L 513 -844 
Q 928 -128 1133 580 
Q 1338 1288 1338 2009 
Q 1338 2731 1133 3434 
Q 928 4138 513 4856 
z
" transform="scale(0.015625)"/>
      </defs>
      <use xlink:href="#DejaVuSans-41"/>
      <use xlink:href="#DejaVuSans-76" transform="translate(62.533203 0)"/>
      <use xlink:href="#DejaVuSans-65" transform="translate(121.712891 0)"/>
      <use xlink:href="#DejaVuSans-72" transform="translate(183.236328 0)"/>
      <use xlink:href="#DejaVuSans-61" transform="translate(224.349609 0)"/>
      <use xlink:href="#DejaVuSans-67" transform="translate(285.628906 0)"/>
      <use xlink:href="#DejaVuSans-65" transform="translate(349.105469 0)"/>
      <use xlink:href="#DejaVuSans-20" transform="translate(410.628906 0)"/>
      <use xlink:href="#DejaVuSans-54" transform="translate(442.416016 0)"/>
      <use xlink:href="#DejaVuSans-69" transform="translate(500.375 0)"/>
      <use xlink:href="#DejaVuSans-6d" transform="translate(528.158203 0)"/>
      <use xlink:href="#DejaVuSans-65" transform="translate(625.570312 0)"/>
      <use xlink:href="#DejaVuSans-20" transform="translate(687.09375 0)"/>
      <use xlink:href="#DejaVuSans-28" transform="translate(718.880859 0)"/>
      <use xlink:href="#DejaVuSans-6c" transform="translate(757.894531 0)"/>
      <use xlink:href="#DejaVuSans-6f" transform="translate(785.677734 0)"/>
      <use xlink:href="#DejaVuSans-67" transform="translate(846.859375 0)"/>
      <use xlink:href="#DejaVuSans-20" transform="translate(910.335938 0)"/>
      <use xlink:href="#DejaVuSans-73" transform="translate(942.123047 0)"/>
      <use xlink:href="#DejaVuSans-63" transform="translate(994.222656 0)"/>
      <use xlink:href="#DejaVuSans-61" transform="translate(1049.203125 0)"/>
      <use xlink:href="#DejaVuSans-6c" transform="translate(1110.482422 0)"/>
      <use xlink:href="#DejaVuSans-65" transform="translate(1138.265625 0)"/>
      <use xlink:href="#DejaVuSans-29" transform="translate(1199.789062 0)"/>
     </g>
    </g>
   </g>
   <g id="patch_38">
    <path d="M 55.772054 352.405938 
L 55.772054 26.88 
" style="fill: none; stroke: #000000; stroke-width: 0.8; stroke-linejoin: miter; stroke-linecap: square"/>
   </g>
   <g id="patch_39">
    <path d="M 997.2 352.405938 
L 997.2 26.88 
" style="fill: none; stroke: #000000; stroke-width: 0.8; stroke-linejoin: miter; stroke-linecap: square"/>
   </g>
   <g id="patch_40">
    <path d="M 55.772054 352.405938 
L 997.2 352.405938 
" style="fill: none; stroke: #000000; stroke-width: 0.8; stroke-linejoin: miter; stroke-linecap: square"/>
   </g>
   <g id="patch_41">
    <path d="M 55.772054 26.88 
L 997.2 26.88 
" style="fill: none; stroke: #000000; stroke-width: 0.8; stroke-linejoin: miter; stroke-linecap: square"/>
   </g>
   <g id="text_24">
    <!-- Average Execution Time per Benchmark -->
    <g transform="translate(405.955402 20.88) scale(0.12 -0.12)">
     <defs>
      <path id="DejaVuSans-45" d="M 628 4666 
L 3578 4666 
L 3578 4134 
L 1259 4134 
L 1259 2753 
L 3481 2753 
L 3481 2222 
L 1259 2222 
L 1259 531 
L 3634 531 
L 3634 0 
L 628 0 
L 628 4666 
z
" transform="scale(0.015625)"/>
      <path id="DejaVuSans-75" d="M 544 1381 
L 544 3500 
L 1119 3500 
L 1119 1403 
Q 1119 906 1312 657 
Q 1506 409 1894 409 
Q 2359 409 2629 706 
Q 2900 1003 2900 1516 
L 2900 3500 
L 3475 3500 
L 3475 0 
L 2900 0 
L 2900 538 
Q 2691 219 2414 64 
Q 2138 -91 1772 -91 
Q 1169 -91 856 284 
Q 544 659 544 1381 
z
M 1991 3584 
L 1991 3584 
z
" transform="scale(0.015625)"/>
      <path id="DejaVuSans-42" d="M 1259 2228 
L 1259 519 
L 2272 519 
Q 2781 519 3026 730 
Q 3272 941 3272 1375 
Q 3272 1813 3026 2020 
Q 2781 2228 2272 2228 
L 1259 2228 
z
M 1259 4147 
L 1259 2741 
L 2194 2741 
Q 2656 2741 2882 2914 
Q 3109 3088 3109 3444 
Q 3109 3797 2882 3972 
Q 2656 4147 2194 4147 
L 1259 4147 
z
M 628 4666 
L 2241 4666 
Q 2963 4666 3353 4366 
Q 3744 4066 3744 3513 
Q 3744 3084 3544 2831 
Q 3344 2578 2956 2516 
Q 3422 2416 3680 2098 
Q 3938 1781 3938 1306 
Q 3938 681 3513 340 
Q 3088 0 2303 0 
L 628 0 
L 628 4666 
z
" transform="scale(0.015625)"/>
      <path id="DejaVuSans-6b" d="M 581 4863 
L 1159 4863 
L 1159 1991 
L 2875 3500 
L 3609 3500 
L 1753 1863 
L 3688 0 
L 2938 0 
L 1159 1709 
L 1159 0 
L 581 0 
L 581 4863 
z
" transform="scale(0.015625)"/>
     </defs>
     <use xlink:href="#DejaVuSans-41"/>
     <use xlink:href="#DejaVuSans-76" transform="translate(62.533203 0)"/>
     <use xlink:href="#DejaVuSans-65" transform="translate(121.712891 0)"/>
     <use xlink:href="#DejaVuSans-72" transform="translate(183.236328 0)"/>
     <use xlink:href="#DejaVuSans-61" transform="translate(224.349609 0)"/>
     <use xlink:href="#DejaVuSans-67" transform="translate(285.628906 0)"/>
     <use xlink:href="#DejaVuSans-65" transform="translate(349.105469 0)"/>
     <use xlink:href="#DejaVuSans-20" transform="translate(410.628906 0)"/>
     <use xlink:href="#DejaVuSans-45" transform="translate(442.416016 0)"/>
     <use xlink:href="#DejaVuSans-78" transform="translate(505.599609 0)"/>
     <use xlink:href="#DejaVuSans-65" transform="translate(561.654297 0)"/>
     <use xlink:href="#DejaVuSans-63" transform="translate(623.177734 0)"/>
     <use xlink:href="#DejaVuSans-75" transform="translate(678.158203 0)"/>
     <use xlink:href="#DejaVuSans-74" transform="translate(741.537109 0)"/>
     <use xlink:href="#DejaVuSans-69" transform="translate(780.746094 0)"/>
     <use xlink:href="#DejaVuSans-6f" transform="translate(808.529297 0)"/>
     <use xlink:href="#DejaVuSans-6e" transform="translate(869.710938 0)"/>
     <use xlink:href="#DejaVuSans-20" transform="translate(933.089844 0)"/>
     <use xlink:href="#DejaVuSans-54" transform="translate(964.876953 0)"/>
     <use xlink:href="#DejaVuSans-69" transform="translate(1022.835938 0)"/>
     <use xlink:href="#DejaVuSans-6d" transform="translate(1050.619141 0)"/>
     <use xlink:href="#DejaVuSans-65" transform="translate(1148.03125 0)"/>
     <use xlink:href="#DejaVuSans-20" transform="translate(1209.554688 0)"/>
     <use xlink:href="#DejaVuSans-70" transform="translate(1241.341797 0)"/>
     <use xlink:href="#DejaVuSans-65" transform="translate(1304.818359 0)"/>
     <use xlink:href="#DejaVuSans-72" transform="translate(1366.341797 0)"/>
     <use xlink:href="#DejaVuSans-20" transform="translate(1407.455078 0)"/>
     <use xlink:href="#DejaVuSans-42" transform="translate(1439.242188 0)"/>
     <use xlink:href="#DejaVuSans-65" transform="translate(1507.845703 0)"/>
     <use xlink:href="#DejaVuSans-6e" transform="translate(1569.369141 0)"/>
     <use xlink:href="#DejaVuSans-63" transform="translate(1632.748047 0)"/>
     <use xlink:href="#DejaVuSans-68" transform="translate(1687.728516 0)"/>
     <use xlink:href="#DejaVuSans-6d" transform="translate(1751.107422 0)"/>
     <use xlink:href="#DejaVuSans-61" transform="translate(1848.519531 0)"/>
     <use xlink:href="#DejaVuSans-72" transform="translate(1909.798828 0)"/>
     <use xlink:href="#DejaVuSans-6b" transform="translate(1950.912109 0)"/>
    </g>
   </g>
   <g id="legend_1">
    <g id="patch_42">
     <path d="M 62.772054 78.914375 
L 155.028304 78.914375 
Q 157.028304 78.914375 157.028304 76.914375 
L 157.028304 33.88 
Q 157.028304 31.88 155.028304 31.88 
L 62.772054 31.88 
Q 60.772054 31.88 60.772054 33.88 
L 60.772054 76.914375 
Q 60.772054 78.914375 62.772054 78.914375 
z
" style="fill: #ffffff; opacity: 0.8; stroke: #cccccc; stroke-linejoin: miter"/>
    </g>
    <g id="patch_43">
     <path d="M 64.772054 43.478437 
L 84.772054 43.478437 
L 84.772054 36.478437 
L 64.772054 36.478437 
z
" style="fill: #1f77b4"/>
    </g>
    <g id="text_25">
     <!-- segpt-16 -->
     <g transform="translate(92.772054 43.478437) scale(0.1 -0.1)">
      <use xlink:href="#DejaVuSans-73"/>
      <use xlink:href="#DejaVuSans-65" transform="translate(52.099609 0)"/>
      <use xlink:href="#DejaVuSans-67" transform="translate(113.623047 0)"/>
      <use xlink:href="#DejaVuSans-70" transform="translate(177.099609 0)"/>
      <use xlink:href="#DejaVuSans-74" transform="translate(240.576172 0)"/>
      <use xlink:href="#DejaVuSans-2d" transform="translate(279.785156 0)"/>
      <use xlink:href="#DejaVuSans-31" transform="translate(315.869141 0)"/>
      <use xlink:href="#DejaVuSans-36" transform="translate(379.492188 0)"/>
     </g>
    </g>
    <g id="patch_44">
     <path d="M 64.772054 58.156563 
L 84.772054 58.156563 
L 84.772054 51.156563 
L 64.772054 51.156563 
z
" style="fill: #ff7f0e"/>
    </g>
    <g id="text_26">
     <!-- strictFree -->
     <g transform="translate(92.772054 58.156563) scale(0.1 -0.1)">
      <defs>
       <path id="DejaVuSans-46" d="M 628 4666 
L 3309 4666 
L 3309 4134 
L 1259 4134 
L 1259 2759 
L 3109 2759 
L 3109 2228 
L 1259 2228 
L 1259 0 
L 628 0 
L 628 4666 
z
" transform="scale(0.015625)"/>
      </defs>
      <use xlink:href="#DejaVuSans-73"/>
      <use xlink:href="#DejaVuSans-74" transform="translate(52.099609 0)"/>
      <use xlink:href="#DejaVuSans-72" transform="translate(91.308594 0)"/>
      <use xlink:href="#DejaVuSans-69" transform="translate(132.421875 0)"/>
      <use xlink:href="#DejaVuSans-63" transform="translate(160.205078 0)"/>
      <use xlink:href="#DejaVuSans-74" transform="translate(215.185547 0)"/>
      <use xlink:href="#DejaVuSans-46" transform="translate(254.394531 0)"/>
      <use xlink:href="#DejaVuSans-72" transform="translate(304.664062 0)"/>
      <use xlink:href="#DejaVuSans-65" transform="translate(343.527344 0)"/>
      <use xlink:href="#DejaVuSans-65" transform="translate(405.050781 0)"/>
     </g>
    </g>
    <g id="patch_45">
     <path d="M 64.772054 72.834687 
L 84.772054 72.834687 
L 84.772054 65.834687 
L 64.772054 65.834687 
z
" style="fill: #2ca02c"/>
    </g>
    <g id="text_27">
     <!-- strictNoFree -->
     <g transform="translate(92.772054 72.834687) scale(0.1 -0.1)">
      <use xlink:href="#DejaVuSans-73"/>
      <use xlink:href="#DejaVuSans-74" transform="translate(52.099609 0)"/>
      <use xlink:href="#DejaVuSans-72" transform="translate(91.308594 0)"/>
      <use xlink:href="#DejaVuSans-69" transform="translate(132.421875 0)"/>
      <use xlink:href="#DejaVuSans-63" transform="translate(160.205078 0)"/>
      <use xlink:href="#DejaVuSans-74" transform="translate(215.185547 0)"/>
      <use xlink:href="#DejaVuSans-4e" transform="translate(254.394531 0)"/>
      <use xlink:href="#DejaVuSans-6f" transform="translate(329.199219 0)"/>
      <use xlink:href="#DejaVuSans-46" transform="translate(390.380859 0)"/>
      <use xlink:href="#DejaVuSans-72" transform="translate(440.650391 0)"/>
      <use xlink:href="#DejaVuSans-65" transform="translate(479.513672 0)"/>
      <use xlink:href="#DejaVuSans-65" transform="translate(541.037109 0)"/>
     </g>
    </g>
   </g>
  </g>
 </g>
 <defs>
  <clipPath id="p660c077953">
   <rect x="55.772054" y="26.88" width="941.427946" height="325.525938"/>
  </clipPath>
 </defs>
</svg>
