<?xml version="1.0" encoding="utf-8" standalone="no"?>
<!DOCTYPE svg PUBLIC "-//W3C//DTD SVG 1.1//EN"
  "http://www.w3.org/Graphics/SVG/1.1/DTD/svg11.dtd">
<svg xmlns:xlink="http://www.w3.org/1999/xlink" width="1296pt" height="432pt" viewBox="0 0 1296 432" xmlns="http://www.w3.org/2000/svg" version="1.1">
 <metadata>
  <rdf:RDF xmlns:dc="http://purl.org/dc/elements/1.1/" xmlns:cc="http://creativecommons.org/ns#" xmlns:rdf="http://www.w3.org/1999/02/22-rdf-syntax-ns#">
   <cc:Work>
    <dc:type rdf:resource="http://purl.org/dc/dcmitype/StillImage"/>
    <dc:date>2026-01-15T04:09:59.565325</dc:date>
    <dc:format>image/svg+xml</dc:format>
    <dc:creator>
     <cc:Agent>
      <dc:title>Matplotlib v3.10.8, https://matplotlib.org/</dc:title>
     </cc:Agent>
    </dc:creator>
   </cc:Work>
  </rdf:RDF>
 </metadata>
 <defs>
  <style type="text/css">*{stroke-linejoin: round; stroke-linecap: butt}</style>
 </defs>
 <g id="figure_1">
  <g id="patch_1">
   <path d="M 0 432 
L 1296 432 
L 1296 0 
L 0 0 
z
" style="fill: #ffffff"/>
  </g>
  <g id="axes_1">
   <g id="patch_2">
    <path d="M 50.092685 352.405938 
L 922.482 352.405938 
L 922.482 26.88 
L 50.092685 26.88 
z
" style="fill: #ffffff"/>
   </g>
   <g id="patch_3">
    <path d="M 89.746745 153460.922395 
L 95.141855 153460.922395 
L 95.141855 150.598543 
L 89.746745 150.598543 
z
" clip-path="url(#p912d75b2e8)" style="fill: #1f77b4"/>
   </g>
   <g id="patch_4">
    <path d="M 136.953959 153460.922395 
L 142.349069 153460.922395 
L 142.349069 76.236247 
L 136.953959 76.236247 
z
" clip-path="url(#p912d75b2e8)" style="fill: #1f77b4"/>
   </g>
   <g id="patch_5">
    <path d="M 184.161173 153460.922395 
L 189.556283 153460.922395 
L 189.556283 150.376339 
L 184.161173 150.376339 
z
" clip-path="url(#p912d75b2e8)" style="fill: #1f77b4"/>
   </g>
   <g id="patch_6">
    <path d="M 231.368387 153460.922395 
L 236.763497 153460.922395 
L 236.763497 229.765567 
L 231.368387 229.765567 
z
" clip-path="url(#p912d75b2e8)" style="fill: #1f77b4"/>
   </g>
   <g id="patch_7">
    <path d="M 278.575601 153460.922395 
L 283.970711 153460.922395 
L 283.970711 305.869926 
L 278.575601 305.869926 
z
" clip-path="url(#p912d75b2e8)" style="fill: #1f77b4"/>
   </g>
   <g id="patch_8">
    <path d="M 325.782815 153460.922395 
L 331.177925 153460.922395 
L 331.177925 144.03343 
L 325.782815 144.03343 
z
" clip-path="url(#p912d75b2e8)" style="fill: #1f77b4"/>
   </g>
   <g id="patch_9">
    <path d="M 372.990029 153460.922395 
L 378.385139 153460.922395 
L 378.385139 136.060639 
L 372.990029 136.060639 
z
" clip-path="url(#p912d75b2e8)" style="fill: #1f77b4"/>
   </g>
   <g id="patch_10">
    <path d="M 420.197243 153460.922395 
L 425.592353 153460.922395 
L 425.592353 156.896952 
L 420.197243 156.896952 
z
" clip-path="url(#p912d75b2e8)" style="fill: #1f77b4"/>
   </g>
   <g id="patch_11">
    <path d="M 467.404457 153460.922395 
L 472.799567 153460.922395 
L 472.799567 162.430057 
L 467.404457 162.430057 
z
" clip-path="url(#p912d75b2e8)" style="fill: #1f77b4"/>
   </g>
   <g id="patch_12">
    <path d="M 514.611671 153460.922395 
L 520.006781 153460.922395 
L 520.006781 330.597544 
L 514.611671 330.597544 
z
" clip-path="url(#p912d75b2e8)" style="fill: #1f77b4"/>
   </g>
   <g id="patch_13">
    <path d="M 561.818885 153460.922395 
L 567.213995 153460.922395 
L 567.213995 49.160309 
L 561.818885 49.160309 
z
" clip-path="url(#p912d75b2e8)" style="fill: #1f77b4"/>
   </g>
   <g id="patch_14">
    <path d="M 609.026099 153460.922395 
L 614.421209 153460.922395 
L 614.421209 203.026016 
L 609.026099 203.026016 
z
" clip-path="url(#p912d75b2e8)" style="fill: #1f77b4"/>
   </g>
   <g id="patch_15">
    <path d="M 656.233313 153460.922395 
L 661.628423 153460.922395 
L 661.628423 193.047473 
L 656.233313 193.047473 
z
" clip-path="url(#p912d75b2e8)" style="fill: #1f77b4"/>
   </g>
   <g id="patch_16">
    <path d="M 703.440527 153460.922395 
L 708.835637 153460.922395 
L 708.835637 214.419876 
L 703.440527 214.419876 
z
" clip-path="url(#p912d75b2e8)" style="fill: #1f77b4"/>
   </g>
   <g id="patch_17">
    <path d="M 750.647741 153460.922395 
L 756.042851 153460.922395 
L 756.042851 224.833669 
L 750.647741 224.833669 
z
" clip-path="url(#p912d75b2e8)" style="fill: #1f77b4"/>
   </g>
   <g id="patch_18">
    <path d="M 797.854955 153460.922395 
L 803.250065 153460.922395 
L 803.250065 132.405986 
L 797.854955 132.405986 
z
" clip-path="url(#p912d75b2e8)" style="fill: #1f77b4"/>
   </g>
   <g id="patch_19">
    <path d="M 845.062169 153460.922395 
L 850.457279 153460.922395 
L 850.457279 153.093049 
L 845.062169 153.093049 
z
" clip-path="url(#p912d75b2e8)" style="fill: #1f77b4"/>
   </g>
   <g id="patch_20">
    <path d="M 95.141855 153460.922395 
L 100.536965 153460.922395 
L 100.536965 126.884026 
L 95.141855 126.884026 
z
" clip-path="url(#p912d75b2e8)" style="fill: #ff7f0e"/>
   </g>
   <g id="patch_21">
    <path d="M 189.556283 153460.922395 
L 194.951393 153460.922395 
L 194.951393 157.635039 
L 189.556283 157.635039 
z
" clip-path="url(#p912d75b2e8)" style="fill: #ff7f0e"/>
   </g>
   <g id="patch_22">
    <path d="M 236.763497 153460.922395 
L 242.158607 153460.922395 
L 242.158607 231.244521 
L 236.763497 231.244521 
z
" clip-path="url(#p912d75b2e8)" style="fill: #ff7f0e"/>
   </g>
   <g id="patch_23">
    <path d="M 283.970711 153460.922395 
L 289.365821 153460.922395 
L 289.365821 321.296363 
L 283.970711 321.296363 
z
" clip-path="url(#p912d75b2e8)" style="fill: #ff7f0e"/>
   </g>
   <g id="patch_24">
    <path d="M 331.177925 153460.922395 
L 336.573035 153460.922395 
L 336.573035 116.514039 
L 331.177925 116.514039 
z
" clip-path="url(#p912d75b2e8)" style="fill: #ff7f0e"/>
   </g>
   <g id="patch_25">
    <path d="M 425.592353 153460.922395 
L 430.987463 153460.922395 
L 430.987463 140.690473 
L 425.592353 140.690473 
z
" clip-path="url(#p912d75b2e8)" style="fill: #ff7f0e"/>
   </g>
   <g id="patch_26">
    <path d="M 100.536965 153460.922395 
L 105.932075 153460.922395 
L 105.932075 129.58775 
L 100.536965 129.58775 
z
" clip-path="url(#p912d75b2e8)" style="fill: #2ca02c"/>
   </g>
   <g id="patch_27">
    <path d="M 194.951393 153460.922395 
L 200.346503 153460.922395 
L 200.346503 167.196497 
L 194.951393 167.196497 
z
" clip-path="url(#p912d75b2e8)" style="fill: #2ca02c"/>
   </g>
   <g id="patch_28">
    <path d="M 242.158607 153460.922395 
L 247.553717 153460.922395 
L 247.553717 233.526464 
L 242.158607 233.526464 
z
" clip-path="url(#p912d75b2e8)" style="fill: #2ca02c"/>
   </g>
   <g id="patch_29">
    <path d="M 289.365821 153460.922395 
L 294.760931 153460.922395 
L 294.760931 330.597544 
L 289.365821 330.597544 
z
" clip-path="url(#p912d75b2e8)" style="fill: #2ca02c"/>
   </g>
   <g id="patch_30">
    <path d="M 336.573035 153460.922395 
L 341.968145 153460.922395 
L 341.968145 128.461118 
L 336.573035 128.461118 
z
" clip-path="url(#p912d75b2e8)" style="fill: #2ca02c"/>
   </g>
   <g id="patch_31">
    <path d="M 430.987463 153460.922395 
L 436.382573 153460.922395 
L 436.382573 143.431162 
L 430.987463 143.431162 
z
" clip-path="url(#p912d75b2e8)" style="fill: #2ca02c"/>
   </g>
   <g id="patch_32">
    <path d="M 714.230747 153460.922395 
L 719.625857 153460.922395 
L 719.625857 98.410453 
L 714.230747 98.410453 
z
" clip-path="url(#p912d75b2e8)" style="fill: #2ca02c"/>
   </g>
   <g id="patch_33">
    <path d="M 105.932075 153460.922395 
L 111.327185 153460.922395 
L 111.327185 128.781071 
L 105.932075 128.781071 
z
" clip-path="url(#p912d75b2e8)" style="fill: #d62728"/>
   </g>
   <g id="patch_34">
    <path d="M 200.346503 153460.922395 
L 205.741613 153460.922395 
L 205.741613 186.246648 
L 200.346503 186.246648 
z
" clip-path="url(#p912d75b2e8)" style="fill: #d62728"/>
   </g>
   <g id="patch_35">
    <path d="M 247.553717 153460.922395 
L 252.948827 153460.922395 
L 252.948827 208.10865 
L 247.553717 208.10865 
z
" clip-path="url(#p912d75b2e8)" style="fill: #d62728"/>
   </g>
   <g id="patch_36">
    <path d="M 294.760931 153460.922395 
L 300.156041 153460.922395 
L 300.156041 324.254636 
L 294.760931 324.254636 
z
" clip-path="url(#p912d75b2e8)" style="fill: #d62728"/>
   </g>
   <g id="patch_37">
    <path d="M 341.968145 153460.922395 
L 347.363255 153460.922395 
L 347.363255 125.955404 
L 341.968145 125.955404 
z
" clip-path="url(#p912d75b2e8)" style="fill: #d62728"/>
   </g>
   <g id="patch_38">
    <path d="M 436.382573 153460.922395 
L 441.777683 153460.922395 
L 441.777683 132.405986 
L 436.382573 132.405986 
z
" clip-path="url(#p912d75b2e8)" style="fill: #d62728"/>
   </g>
   <g id="patch_39">
    <path d="M 719.625857 153460.922395 
L 725.020968 153460.922395 
L 725.020968 84.324577 
L 719.625857 84.324577 
z
" clip-path="url(#p912d75b2e8)" style="fill: #d62728"/>
   </g>
   <g id="patch_40">
    <path d="M 111.327185 153460.922395 
L 116.722295 153460.922395 
L 116.722295 147.129345 
L 111.327185 147.129345 
z
" clip-path="url(#p912d75b2e8)" style="fill: #9467bd"/>
   </g>
   <g id="patch_41">
    <path d="M 158.534399 153460.922395 
L 163.929509 153460.922395 
L 163.929509 71.325155 
L 158.534399 71.325155 
z
" clip-path="url(#p912d75b2e8)" style="fill: #9467bd"/>
   </g>
   <g id="patch_42">
    <path d="M 205.741613 153460.922395 
L 211.136723 153460.922395 
L 211.136723 158.131684 
L 205.741613 158.131684 
z
" clip-path="url(#p912d75b2e8)" style="fill: #9467bd"/>
   </g>
   <g id="patch_43">
    <path d="M 252.948827 153460.922395 
L 258.343938 153460.922395 
L 258.343938 232.75709 
L 252.948827 232.75709 
z
" clip-path="url(#p912d75b2e8)" style="fill: #9467bd"/>
   </g>
   <g id="patch_44">
    <path d="M 300.156041 153460.922395 
L 305.551152 153460.922395 
L 305.551152 324.254636 
L 300.156041 324.254636 
z
" clip-path="url(#p912d75b2e8)" style="fill: #9467bd"/>
   </g>
   <g id="patch_45">
    <path d="M 347.363255 153460.922395 
L 352.758366 153460.922395 
L 352.758366 143.231611 
L 347.363255 143.231611 
z
" clip-path="url(#p912d75b2e8)" style="fill: #9467bd"/>
   </g>
   <g id="patch_46">
    <path d="M 441.777683 153460.922395 
L 447.172794 153460.922395 
L 447.172794 190.974091 
L 441.777683 190.974091 
z
" clip-path="url(#p912d75b2e8)" style="fill: #9467bd"/>
   </g>
   <g id="patch_47">
    <path d="M 725.020968 153460.922395 
L 730.416078 153460.922395 
L 730.416078 126.140094 
L 725.020968 126.140094 
z
" clip-path="url(#p912d75b2e8)" style="fill: #9467bd"/>
   </g>
   <g id="patch_48">
    <path d="M 772.228182 153460.922395 
L 777.623292 153460.922395 
L 777.623292 253.189658 
L 772.228182 253.189658 
z
" clip-path="url(#p912d75b2e8)" style="fill: #9467bd"/>
   </g>
   <g id="patch_49">
    <path d="M 819.435396 153460.922395 
L 824.830506 153460.922395 
L 824.830506 176.369271 
L 819.435396 176.369271 
z
" clip-path="url(#p912d75b2e8)" style="fill: #9467bd"/>
   </g>
   <g id="patch_50">
    <path d="M 116.722295 153460.922395 
L 122.117406 153460.922395 
L 122.117406 143.431162 
L 116.722295 143.431162 
z
" clip-path="url(#p912d75b2e8)" style="fill: #8c564b"/>
   </g>
   <g id="patch_51">
    <path d="M 163.929509 153460.922395 
L 169.32462 153460.922395 
L 169.32462 69.064492 
L 163.929509 69.064492 
z
" clip-path="url(#p912d75b2e8)" style="fill: #8c564b"/>
   </g>
   <g id="patch_52">
    <path d="M 211.136723 153460.922395 
L 216.531834 153460.922395 
L 216.531834 187.785449 
L 211.136723 187.785449 
z
" clip-path="url(#p912d75b2e8)" style="fill: #8c564b"/>
   </g>
   <g id="patch_53">
    <path d="M 258.343938 153460.922395 
L 263.739048 153460.922395 
L 263.739048 227.606994 
L 258.343938 227.606994 
z
" clip-path="url(#p912d75b2e8)" style="fill: #8c564b"/>
   </g>
   <g id="patch_54">
    <path d="M 305.551152 153460.922395 
L 310.946262 153460.922395 
L 310.946262 337.609305 
L 305.551152 337.609305 
z
" clip-path="url(#p912d75b2e8)" style="fill: #8c564b"/>
   </g>
   <g id="patch_55">
    <path d="M 352.758366 153460.922395 
L 358.153476 153460.922395 
L 358.153476 138.613562 
L 352.758366 138.613562 
z
" clip-path="url(#p912d75b2e8)" style="fill: #8c564b"/>
   </g>
   <g id="patch_56">
    <path d="M 447.172794 153460.922395 
L 452.567904 153460.922395 
L 452.567904 178.704605 
L 447.172794 178.704605 
z
" clip-path="url(#p912d75b2e8)" style="fill: #8c564b"/>
   </g>
   <g id="patch_57">
    <path d="M 730.416078 153460.922395 
L 735.811188 153460.922395 
L 735.811188 128.716957 
L 730.416078 128.716957 
z
" clip-path="url(#p912d75b2e8)" style="fill: #8c564b"/>
   </g>
   <g id="patch_58">
    <path d="M 777.623292 153460.922395 
L 783.018402 153460.922395 
L 783.018402 226.902753 
L 777.623292 226.902753 
z
" clip-path="url(#p912d75b2e8)" style="fill: #8c564b"/>
   </g>
   <g id="patch_59">
    <path d="M 122.117406 153460.922395 
L 127.512516 153460.922395 
L 127.512516 150.598543 
L 122.117406 150.598543 
z
" clip-path="url(#p912d75b2e8)" style="fill: #e377c2"/>
   </g>
   <g id="patch_60">
    <path d="M 169.32462 153460.922395 
L 174.71973 153460.922395 
L 174.71973 75.009813 
L 169.32462 75.009813 
z
" clip-path="url(#p912d75b2e8)" style="fill: #e377c2"/>
   </g>
   <g id="patch_61">
    <path d="M 216.531834 153460.922395 
L 221.926944 153460.922395 
L 221.926944 141.656385 
L 216.531834 141.656385 
z
" clip-path="url(#p912d75b2e8)" style="fill: #e377c2"/>
   </g>
   <g id="patch_62">
    <path d="M 263.739048 153460.922395 
L 269.134158 153460.922395 
L 269.134158 232.75709 
L 263.739048 232.75709 
z
" clip-path="url(#p912d75b2e8)" style="fill: #e377c2"/>
   </g>
   <g id="patch_63">
    <path d="M 310.946262 153460.922395 
L 316.341372 153460.922395 
L 316.341372 313.137158 
L 310.946262 313.137158 
z
" clip-path="url(#p912d75b2e8)" style="fill: #e377c2"/>
   </g>
   <g id="patch_64">
    <path d="M 358.153476 153460.922395 
L 363.548586 153460.922395 
L 363.548586 144.03343 
L 358.153476 144.03343 
z
" clip-path="url(#p912d75b2e8)" style="fill: #e377c2"/>
   </g>
   <g id="patch_65">
    <path d="M 405.36069 153460.922395 
L 410.7558 153460.922395 
L 410.7558 134.995814 
L 405.36069 134.995814 
z
" clip-path="url(#p912d75b2e8)" style="fill: #e377c2"/>
   </g>
   <g id="patch_66">
    <path d="M 452.567904 153460.922395 
L 457.963014 153460.922395 
L 457.963014 155.925399 
L 452.567904 155.925399 
z
" clip-path="url(#p912d75b2e8)" style="fill: #e377c2"/>
   </g>
   <g id="patch_67">
    <path d="M 499.775118 153460.922395 
L 505.170228 153460.922395 
L 505.170228 161.009565 
L 499.775118 161.009565 
z
" clip-path="url(#p912d75b2e8)" style="fill: #e377c2"/>
   </g>
   <g id="patch_68">
    <path d="M 546.982332 153460.922395 
L 552.377442 153460.922395 
L 552.377442 330.597544 
L 546.982332 330.597544 
z
" clip-path="url(#p912d75b2e8)" style="fill: #e377c2"/>
   </g>
   <g id="patch_69">
    <path d="M 594.189546 153460.922395 
L 599.584656 153460.922395 
L 599.584656 41.676634 
L 594.189546 41.676634 
z
" clip-path="url(#p912d75b2e8)" style="fill: #e377c2"/>
   </g>
   <g id="patch_70">
    <path d="M 641.39676 153460.922395 
L 646.79187 153460.922395 
L 646.79187 200.1529 
L 641.39676 200.1529 
z
" clip-path="url(#p912d75b2e8)" style="fill: #e377c2"/>
   </g>
   <g id="patch_71">
    <path d="M 688.603974 153460.922395 
L 693.999084 153460.922395 
L 693.999084 178.704605 
L 688.603974 178.704605 
z
" clip-path="url(#p912d75b2e8)" style="fill: #e377c2"/>
   </g>
   <g id="patch_72">
    <path d="M 735.811188 153460.922395 
L 741.206298 153460.922395 
L 741.206298 214.419876 
L 735.811188 214.419876 
z
" clip-path="url(#p912d75b2e8)" style="fill: #e377c2"/>
   </g>
   <g id="patch_73">
    <path d="M 783.018402 153460.922395 
L 788.413512 153460.922395 
L 788.413512 228.318767 
L 783.018402 228.318767 
z
" clip-path="url(#p912d75b2e8)" style="fill: #e377c2"/>
   </g>
   <g id="patch_74">
    <path d="M 830.225616 153460.922395 
L 835.620726 153460.922395 
L 835.620726 131.231047 
L 830.225616 131.231047 
z
" clip-path="url(#p912d75b2e8)" style="fill: #e377c2"/>
   </g>
   <g id="patch_75">
    <path d="M 877.43283 153460.922395 
L 882.82794 153460.922395 
L 882.82794 152.701373 
L 877.43283 152.701373 
z
" clip-path="url(#p912d75b2e8)" style="fill: #e377c2"/>
   </g>
   <g id="matplotlib.axis_1">
    <g id="xtick_1">
     <g id="line2d_1">
      <defs>
       <path id="m6170e6f46a" d="M 0 0 
L 0 3.5 
" style="stroke: #000000; stroke-width: 0.8"/>
      </defs>
      <g>
       <use xlink:href="#m6170e6f46a" x="111.327185" y="352.405938" style="stroke: #000000; stroke-width: 0.8"/>
      </g>
     </g>
     <g id="text_1">
      <!-- alloc-test1 -->
      <g transform="translate(72.751196 401.884273) rotate(-45) scale(0.1 -0.1)">
       <defs>
        <path id="DejaVuSans-61" d="M 2194 1759 
Q 1497 1759 1228 1600 
Q 959 1441 959 1056 
Q 959 750 1161 570 
Q 1363 391 1709 391 
Q 2188 391 2477 730 
Q 2766 1069 2766 1631 
L 2766 1759 
L 2194 1759 
z
M 3341 1997 
L 3341 0 
L 2766 0 
L 2766 531 
Q 2569 213 2275 61 
Q 1981 -91 1556 -91 
Q 1019 -91 701 211 
Q 384 513 384 1019 
Q 384 1609 779 1909 
Q 1175 2209 1959 2209 
L 2766 2209 
L 2766 2266 
Q 2766 2663 2505 2880 
Q 2244 3097 1772 3097 
Q 1472 3097 1187 3025 
Q 903 2953 641 2809 
L 641 3341 
Q 956 3463 1253 3523 
Q 1550 3584 1831 3584 
Q 2591 3584 2966 3190 
Q 3341 2797 3341 1997 
z
" transform="scale(0.015625)"/>
        <path id="DejaVuSans-6c" d="M 603 4863 
L 1178 4863 
L 1178 0 
L 603 0 
L 603 4863 
z
" transform="scale(0.015625)"/>
        <path id="DejaVuSans-6f" d="M 1959 3097 
Q 1497 3097 1228 2736 
Q 959 2375 959 1747 
Q 959 1119 1226 758 
Q 1494 397 1959 397 
Q 2419 397 2687 759 
Q 2956 1122 2956 1747 
Q 2956 2369 2687 2733 
Q 2419 3097 1959 3097 
z
M 1959 3584 
Q 2709 3584 3137 3096 
Q 3566 2609 3566 1747 
Q 3566 888 3137 398 
Q 2709 -91 1959 -91 
Q 1206 -91 779 398 
Q 353 888 353 1747 
Q 353 2609 779 3096 
Q 1206 3584 1959 3584 
z
" transform="scale(0.015625)"/>
        <path id="DejaVuSans-63" d="M 3122 3366 
L 3122 2828 
Q 2878 2963 2633 3030 
Q 2388 3097 2138 3097 
Q 1578 3097 1268 2742 
Q 959 2388 959 1747 
Q 959 1106 1268 751 
Q 1578 397 2138 397 
Q 2388 397 2633 464 
Q 2878 531 3122 666 
L 3122 134 
Q 2881 22 2623 -34 
Q 2366 -91 2075 -91 
Q 1284 -91 818 406 
Q 353 903 353 1747 
Q 353 2603 823 3093 
Q 1294 3584 2113 3584 
Q 2378 3584 2631 3529 
Q 2884 3475 3122 3366 
z
" transform="scale(0.015625)"/>
        <path id="DejaVuSans-2d" d="M 313 2009 
L 1997 2009 
L 1997 1497 
L 313 1497 
L 313 2009 
z
" transform="scale(0.015625)"/>
        <path id="DejaVuSans-74" d="M 1172 4494 
L 1172 3500 
L 2356 3500 
L 2356 3053 
L 1172 3053 
L 1172 1153 
Q 1172 725 1289 603 
Q 1406 481 1766 481 
L 2356 481 
L 2356 0 
L 1766 0 
Q 1100 0 847 248 
Q 594 497 594 1153 
L 594 3053 
L 172 3053 
L 172 3500 
L 594 3500 
L 594 4494 
L 1172 4494 
z
" transform="scale(0.015625)"/>
        <path id="DejaVuSans-65" d="M 3597 1894 
L 3597 1613 
L 953 1613 
Q 991 1019 1311 708 
Q 1631 397 2203 397 
Q 2534 397 2845 478 
Q 3156 559 3463 722 
L 3463 178 
Q 3153 47 2828 -22 
Q 2503 -91 2169 -91 
Q 1331 -91 842 396 
Q 353 884 353 1716 
Q 353 2575 817 3079 
Q 1281 3584 2069 3584 
Q 2775 3584 3186 3129 
Q 3597 2675 3597 1894 
z
M 3022 2063 
Q 3016 2534 2758 2815 
Q 2500 3097 2075 3097 
Q 1594 3097 1305 2825 
Q 1016 2553 972 2059 
L 3022 2063 
z
" transform="scale(0.015625)"/>
        <path id="DejaVuSans-73" d="M 2834 3397 
L 2834 2853 
Q 2591 2978 2328 3040 
Q 2066 3103 1784 3103 
Q 1356 3103 1142 2972 
Q 928 2841 928 2578 
Q 928 2378 1081 2264 
Q 1234 2150 1697 2047 
L 1894 2003 
Q 2506 1872 2764 1633 
Q 3022 1394 3022 966 
Q 3022 478 2636 193 
Q 2250 -91 1575 -91 
Q 1294 -91 989 -36 
Q 684 19 347 128 
L 347 722 
Q 666 556 975 473 
Q 1284 391 1588 391 
Q 1994 391 2212 530 
Q 2431 669 2431 922 
Q 2431 1156 2273 1281 
Q 2116 1406 1581 1522 
L 1381 1569 
Q 847 1681 609 1914 
Q 372 2147 372 2553 
Q 372 3047 722 3315 
Q 1072 3584 1716 3584 
Q 2034 3584 2315 3537 
Q 2597 3491 2834 3397 
z
" transform="scale(0.015625)"/>
        <path id="DejaVuSans-31" d="M 794 531 
L 1825 531 
L 1825 4091 
L 703 3866 
L 703 4441 
L 1819 4666 
L 2450 4666 
L 2450 531 
L 3481 531 
L 3481 0 
L 794 0 
L 794 531 
z
" transform="scale(0.015625)"/>
       </defs>
       <use xlink:href="#DejaVuSans-61"/>
       <use xlink:href="#DejaVuSans-6c" transform="translate(61.279297 0)"/>
       <use xlink:href="#DejaVuSans-6c" transform="translate(89.0625 0)"/>
       <use xlink:href="#DejaVuSans-6f" transform="translate(116.845703 0)"/>
       <use xlink:href="#DejaVuSans-63" transform="translate(178.027344 0)"/>
       <use xlink:href="#DejaVuSans-2d" transform="translate(233.007812 0)"/>
       <use xlink:href="#DejaVuSans-74" transform="translate(269.091797 0)"/>
       <use xlink:href="#DejaVuSans-65" transform="translate(308.300781 0)"/>
       <use xlink:href="#DejaVuSans-73" transform="translate(369.824219 0)"/>
       <use xlink:href="#DejaVuSans-74" transform="translate(421.923828 0)"/>
       <use xlink:href="#DejaVuSans-31" transform="translate(461.132812 0)"/>
      </g>
     </g>
    </g>
    <g id="xtick_2">
     <g id="line2d_2">
      <g>
       <use xlink:href="#m6170e6f46a" x="158.534399" y="352.405938" style="stroke: #000000; stroke-width: 0.8"/>
      </g>
     </g>
     <g id="text_2">
      <!-- alloc-testN -->
      <g transform="translate(119.167334 402.675349) rotate(-45) scale(0.1 -0.1)">
       <defs>
        <path id="DejaVuSans-4e" d="M 628 4666 
L 1478 4666 
L 3547 763 
L 3547 4666 
L 4159 4666 
L 4159 0 
L 3309 0 
L 1241 3903 
L 1241 0 
L 628 0 
L 628 4666 
z
" transform="scale(0.015625)"/>
       </defs>
       <use xlink:href="#DejaVuSans-61"/>
       <use xlink:href="#DejaVuSans-6c" transform="translate(61.279297 0)"/>
       <use xlink:href="#DejaVuSans-6c" transform="translate(89.0625 0)"/>
       <use xlink:href="#DejaVuSans-6f" transform="translate(116.845703 0)"/>
       <use xlink:href="#DejaVuSans-63" transform="translate(178.027344 0)"/>
       <use xlink:href="#DejaVuSans-2d" transform="translate(233.007812 0)"/>
       <use xlink:href="#DejaVuSans-74" transform="translate(269.091797 0)"/>
       <use xlink:href="#DejaVuSans-65" transform="translate(308.300781 0)"/>
       <use xlink:href="#DejaVuSans-73" transform="translate(369.824219 0)"/>
       <use xlink:href="#DejaVuSans-74" transform="translate(421.923828 0)"/>
       <use xlink:href="#DejaVuSans-4e" transform="translate(461.132812 0)"/>
      </g>
     </g>
    </g>
    <g id="xtick_3">
     <g id="line2d_3">
      <g>
       <use xlink:href="#m6170e6f46a" x="205.741613" y="352.405938" style="stroke: #000000; stroke-width: 0.8"/>
      </g>
     </g>
     <g id="text_3">
      <!-- barnes -->
      <g transform="translate(180.149872 388.900025) rotate(-45) scale(0.1 -0.1)">
       <defs>
        <path id="DejaVuSans-62" d="M 3116 1747 
Q 3116 2381 2855 2742 
Q 2594 3103 2138 3103 
Q 1681 3103 1420 2742 
Q 1159 2381 1159 1747 
Q 1159 1113 1420 752 
Q 1681 391 2138 391 
Q 2594 391 2855 752 
Q 3116 1113 3116 1747 
z
M 1159 2969 
Q 1341 3281 1617 3432 
Q 1894 3584 2278 3584 
Q 2916 3584 3314 3078 
Q 3713 2572 3713 1747 
Q 3713 922 3314 415 
Q 2916 -91 2278 -91 
Q 1894 -91 1617 61 
Q 1341 213 1159 525 
L 1159 0 
L 581 0 
L 581 4863 
L 1159 4863 
L 1159 2969 
z
" transform="scale(0.015625)"/>
        <path id="DejaVuSans-72" d="M 2631 2963 
Q 2534 3019 2420 3045 
Q 2306 3072 2169 3072 
Q 1681 3072 1420 2755 
Q 1159 2438 1159 1844 
L 1159 0 
L 581 0 
L 581 3500 
L 1159 3500 
L 1159 2956 
Q 1341 3275 1631 3429 
Q 1922 3584 2338 3584 
Q 2397 3584 2469 3576 
Q 2541 3569 2628 3553 
L 2631 2963 
z
" transform="scale(0.015625)"/>
        <path id="DejaVuSans-6e" d="M 3513 2113 
L 3513 0 
L 2938 0 
L 2938 2094 
Q 2938 2591 2744 2837 
Q 2550 3084 2163 3084 
Q 1697 3084 1428 2787 
Q 1159 2491 1159 1978 
L 1159 0 
L 581 0 
L 581 3500 
L 1159 3500 
L 1159 2956 
Q 1366 3272 1645 3428 
Q 1925 3584 2291 3584 
Q 2894 3584 3203 3211 
Q 3513 2838 3513 2113 
z
" transform="scale(0.015625)"/>
       </defs>
       <use xlink:href="#DejaVuSans-62"/>
       <use xlink:href="#DejaVuSans-61" transform="translate(63.476562 0)"/>
       <use xlink:href="#DejaVuSans-72" transform="translate(124.755859 0)"/>
       <use xlink:href="#DejaVuSans-6e" transform="translate(164.119141 0)"/>
       <use xlink:href="#DejaVuSans-65" transform="translate(227.498047 0)"/>
       <use xlink:href="#DejaVuSans-73" transform="translate(289.021484 0)"/>
      </g>
     </g>
    </g>
    <g id="xtick_4">
     <g id="line2d_4">
      <g>
       <use xlink:href="#m6170e6f46a" x="252.948827" y="352.405938" style="stroke: #000000; stroke-width: 0.8"/>
      </g>
     </g>
     <g id="text_4">
      <!-- cache-scratch1 -->
      <g transform="translate(197.533753 418.723358) rotate(-45) scale(0.1 -0.1)">
       <defs>
        <path id="DejaVuSans-68" d="M 3513 2113 
L 3513 0 
L 2938 0 
L 2938 2094 
Q 2938 2591 2744 2837 
Q 2550 3084 2163 3084 
Q 1697 3084 1428 2787 
Q 1159 2491 1159 1978 
L 1159 0 
L 581 0 
L 581 4863 
L 1159 4863 
L 1159 2956 
Q 1366 3272 1645 3428 
Q 1925 3584 2291 3584 
Q 2894 3584 3203 3211 
Q 3513 2838 3513 2113 
z
" transform="scale(0.015625)"/>
       </defs>
       <use xlink:href="#DejaVuSans-63"/>
       <use xlink:href="#DejaVuSans-61" transform="translate(54.980469 0)"/>
       <use xlink:href="#DejaVuSans-63" transform="translate(116.259766 0)"/>
       <use xlink:href="#DejaVuSans-68" transform="translate(171.240234 0)"/>
       <use xlink:href="#DejaVuSans-65" transform="translate(234.619141 0)"/>
       <use xlink:href="#DejaVuSans-2d" transform="translate(296.142578 0)"/>
       <use xlink:href="#DejaVuSans-73" transform="translate(332.226562 0)"/>
       <use xlink:href="#DejaVuSans-63" transform="translate(384.326172 0)"/>
       <use xlink:href="#DejaVuSans-72" transform="translate(439.306641 0)"/>
       <use xlink:href="#DejaVuSans-61" transform="translate(480.419922 0)"/>
       <use xlink:href="#DejaVuSans-74" transform="translate(541.699219 0)"/>
       <use xlink:href="#DejaVuSans-63" transform="translate(580.908203 0)"/>
       <use xlink:href="#DejaVuSans-68" transform="translate(635.888672 0)"/>
       <use xlink:href="#DejaVuSans-31" transform="translate(699.267578 0)"/>
      </g>
     </g>
    </g>
    <g id="xtick_5">
     <g id="line2d_5">
      <g>
       <use xlink:href="#m6170e6f46a" x="300.156041" y="352.405938" style="stroke: #000000; stroke-width: 0.8"/>
      </g>
     </g>
     <g id="text_5">
      <!-- cache-scratchN -->
      <g transform="translate(243.949891 419.514434) rotate(-45) scale(0.1 -0.1)">
       <use xlink:href="#DejaVuSans-63"/>
       <use xlink:href="#DejaVuSans-61" transform="translate(54.980469 0)"/>
       <use xlink:href="#DejaVuSans-63" transform="translate(116.259766 0)"/>
       <use xlink:href="#DejaVuSans-68" transform="translate(171.240234 0)"/>
       <use xlink:href="#DejaVuSans-65" transform="translate(234.619141 0)"/>
       <use xlink:href="#DejaVuSans-2d" transform="translate(296.142578 0)"/>
       <use xlink:href="#DejaVuSans-73" transform="translate(332.226562 0)"/>
       <use xlink:href="#DejaVuSans-63" transform="translate(384.326172 0)"/>
       <use xlink:href="#DejaVuSans-72" transform="translate(439.306641 0)"/>
       <use xlink:href="#DejaVuSans-61" transform="translate(480.419922 0)"/>
       <use xlink:href="#DejaVuSans-74" transform="translate(541.699219 0)"/>
       <use xlink:href="#DejaVuSans-63" transform="translate(580.908203 0)"/>
       <use xlink:href="#DejaVuSans-68" transform="translate(635.888672 0)"/>
       <use xlink:href="#DejaVuSans-4e" transform="translate(699.267578 0)"/>
      </g>
     </g>
    </g>
    <g id="xtick_6">
     <g id="line2d_6">
      <g>
       <use xlink:href="#m6170e6f46a" x="347.363255" y="352.405938" style="stroke: #000000; stroke-width: 0.8"/>
      </g>
     </g>
     <g id="text_6">
      <!-- cfrac -->
      <g transform="translate(328.387382 382.284157) rotate(-45) scale(0.1 -0.1)">
       <defs>
        <path id="DejaVuSans-66" d="M 2375 4863 
L 2375 4384 
L 1825 4384 
Q 1516 4384 1395 4259 
Q 1275 4134 1275 3809 
L 1275 3500 
L 2222 3500 
L 2222 3053 
L 1275 3053 
L 1275 0 
L 697 0 
L 697 3053 
L 147 3053 
L 147 3500 
L 697 3500 
L 697 3744 
Q 697 4328 969 4595 
Q 1241 4863 1831 4863 
L 2375 4863 
z
" transform="scale(0.015625)"/>
       </defs>
       <use xlink:href="#DejaVuSans-63"/>
       <use xlink:href="#DejaVuSans-66" transform="translate(54.980469 0)"/>
       <use xlink:href="#DejaVuSans-72" transform="translate(90.185547 0)"/>
       <use xlink:href="#DejaVuSans-61" transform="translate(131.298828 0)"/>
       <use xlink:href="#DejaVuSans-63" transform="translate(192.578125 0)"/>
      </g>
     </g>
    </g>
    <g id="xtick_7">
     <g id="line2d_7">
      <g>
       <use xlink:href="#m6170e6f46a" x="394.570469" y="352.405938" style="stroke: #000000; stroke-width: 0.8"/>
      </g>
     </g>
     <g id="text_7">
      <!-- espresso -->
      <g transform="translate(361.783917 396.094837) rotate(-45) scale(0.1 -0.1)">
       <defs>
        <path id="DejaVuSans-70" d="M 1159 525 
L 1159 -1331 
L 581 -1331 
L 581 3500 
L 1159 3500 
L 1159 2969 
Q 1341 3281 1617 3432 
Q 1894 3584 2278 3584 
Q 2916 3584 3314 3078 
Q 3713 2572 3713 1747 
Q 3713 922 3314 415 
Q 2916 -91 2278 -91 
Q 1894 -91 1617 61 
Q 1341 213 1159 525 
z
M 3116 1747 
Q 3116 2381 2855 2742 
Q 2594 3103 2138 3103 
Q 1681 3103 1420 2742 
Q 1159 2381 1159 1747 
Q 1159 1113 1420 752 
Q 1681 391 2138 391 
Q 2594 391 2855 752 
Q 3116 1113 3116 1747 
z
" transform="scale(0.015625)"/>
       </defs>
       <use xlink:href="#DejaVuSans-65"/>
       <use xlink:href="#DejaVuSans-73" transform="translate(61.523438 0)"/>
       <use xlink:href="#DejaVuSans-70" transform="translate(113.623047 0)"/>
       <use xlink:href="#DejaVuSans-72" transform="translate(177.099609 0)"/>
       <use xlink:href="#DejaVuSans-65" transform="translate(215.962891 0)"/>
       <use xlink:href="#DejaVuSans-73" transform="translate(277.486328 0)"/>
       <use xlink:href="#DejaVuSans-73" transform="translate(329.585938 0)"/>
       <use xlink:href="#DejaVuSans-6f" transform="translate(381.685547 0)"/>
      </g>
     </g>
    </g>
    <g id="xtick_8">
     <g id="line2d_8">
      <g>
       <use xlink:href="#m6170e6f46a" x="441.777683" y="352.405938" style="stroke: #000000; stroke-width: 0.8"/>
      </g>
     </g>
     <g id="text_8">
      <!-- glibc-simple -->
      <g transform="translate(397.621075 407.464893) rotate(-45) scale(0.1 -0.1)">
       <defs>
        <path id="DejaVuSans-67" d="M 2906 1791 
Q 2906 2416 2648 2759 
Q 2391 3103 1925 3103 
Q 1463 3103 1205 2759 
Q 947 2416 947 1791 
Q 947 1169 1205 825 
Q 1463 481 1925 481 
Q 2391 481 2648 825 
Q 2906 1169 2906 1791 
z
M 3481 434 
Q 3481 -459 3084 -895 
Q 2688 -1331 1869 -1331 
Q 1566 -1331 1297 -1286 
Q 1028 -1241 775 -1147 
L 775 -588 
Q 1028 -725 1275 -790 
Q 1522 -856 1778 -856 
Q 2344 -856 2625 -561 
Q 2906 -266 2906 331 
L 2906 616 
Q 2728 306 2450 153 
Q 2172 0 1784 0 
Q 1141 0 747 490 
Q 353 981 353 1791 
Q 353 2603 747 3093 
Q 1141 3584 1784 3584 
Q 2172 3584 2450 3431 
Q 2728 3278 2906 2969 
L 2906 3500 
L 3481 3500 
L 3481 434 
z
" transform="scale(0.015625)"/>
        <path id="DejaVuSans-69" d="M 603 3500 
L 1178 3500 
L 1178 0 
L 603 0 
L 603 3500 
z
M 603 4863 
L 1178 4863 
L 1178 4134 
L 603 4134 
L 603 4863 
z
" transform="scale(0.015625)"/>
        <path id="DejaVuSans-6d" d="M 3328 2828 
Q 3544 3216 3844 3400 
Q 4144 3584 4550 3584 
Q 5097 3584 5394 3201 
Q 5691 2819 5691 2113 
L 5691 0 
L 5113 0 
L 5113 2094 
Q 5113 2597 4934 2840 
Q 4756 3084 4391 3084 
Q 3944 3084 3684 2787 
Q 3425 2491 3425 1978 
L 3425 0 
L 2847 0 
L 2847 2094 
Q 2847 2600 2669 2842 
Q 2491 3084 2119 3084 
Q 1678 3084 1418 2786 
Q 1159 2488 1159 1978 
L 1159 0 
L 581 0 
L 581 3500 
L 1159 3500 
L 1159 2956 
Q 1356 3278 1631 3431 
Q 1906 3584 2284 3584 
Q 2666 3584 2933 3390 
Q 3200 3197 3328 2828 
z
" transform="scale(0.015625)"/>
       </defs>
       <use xlink:href="#DejaVuSans-67"/>
       <use xlink:href="#DejaVuSans-6c" transform="translate(63.476562 0)"/>
       <use xlink:href="#DejaVuSans-69" transform="translate(91.259766 0)"/>
       <use xlink:href="#DejaVuSans-62" transform="translate(119.042969 0)"/>
       <use xlink:href="#DejaVuSans-63" transform="translate(182.519531 0)"/>
       <use xlink:href="#DejaVuSans-2d" transform="translate(237.5 0)"/>
       <use xlink:href="#DejaVuSans-73" transform="translate(273.583984 0)"/>
       <use xlink:href="#DejaVuSans-69" transform="translate(325.683594 0)"/>
       <use xlink:href="#DejaVuSans-6d" transform="translate(353.466797 0)"/>
       <use xlink:href="#DejaVuSans-70" transform="translate(450.878906 0)"/>
       <use xlink:href="#DejaVuSans-6c" transform="translate(514.355469 0)"/>
       <use xlink:href="#DejaVuSans-65" transform="translate(542.138672 0)"/>
      </g>
     </g>
    </g>
    <g id="xtick_9">
     <g id="line2d_9">
      <g>
       <use xlink:href="#m6170e6f46a" x="488.984897" y="352.405938" style="stroke: #000000; stroke-width: 0.8"/>
      </g>
     </g>
     <g id="text_9">
      <!-- glibc-thread -->
      <g transform="translate(444.994017 407.299165) rotate(-45) scale(0.1 -0.1)">
       <defs>
        <path id="DejaVuSans-64" d="M 2906 2969 
L 2906 4863 
L 3481 4863 
L 3481 0 
L 2906 0 
L 2906 525 
Q 2725 213 2448 61 
Q 2172 -91 1784 -91 
Q 1150 -91 751 415 
Q 353 922 353 1747 
Q 353 2572 751 3078 
Q 1150 3584 1784 3584 
Q 2172 3584 2448 3432 
Q 2725 3281 2906 2969 
z
M 947 1747 
Q 947 1113 1208 752 
Q 1469 391 1925 391 
Q 2381 391 2643 752 
Q 2906 1113 2906 1747 
Q 2906 2381 2643 2742 
Q 2381 3103 1925 3103 
Q 1469 3103 1208 2742 
Q 947 2381 947 1747 
z
" transform="scale(0.015625)"/>
       </defs>
       <use xlink:href="#DejaVuSans-67"/>
       <use xlink:href="#DejaVuSans-6c" transform="translate(63.476562 0)"/>
       <use xlink:href="#DejaVuSans-69" transform="translate(91.259766 0)"/>
       <use xlink:href="#DejaVuSans-62" transform="translate(119.042969 0)"/>
       <use xlink:href="#DejaVuSans-63" transform="translate(182.519531 0)"/>
       <use xlink:href="#DejaVuSans-2d" transform="translate(237.5 0)"/>
       <use xlink:href="#DejaVuSans-74" transform="translate(273.583984 0)"/>
       <use xlink:href="#DejaVuSans-68" transform="translate(312.792969 0)"/>
       <use xlink:href="#DejaVuSans-72" transform="translate(376.171875 0)"/>
       <use xlink:href="#DejaVuSans-65" transform="translate(415.035156 0)"/>
       <use xlink:href="#DejaVuSans-61" transform="translate(476.558594 0)"/>
       <use xlink:href="#DejaVuSans-64" transform="translate(537.837891 0)"/>
      </g>
     </g>
    </g>
    <g id="xtick_10">
     <g id="line2d_10">
      <g>
       <use xlink:href="#m6170e6f46a" x="536.192111" y="352.405938" style="stroke: #000000; stroke-width: 0.8"/>
      </g>
     </g>
     <g id="text_10">
      <!-- gs -->
      <g transform="translate(526.548943 372.951453) rotate(-45) scale(0.1 -0.1)">
       <use xlink:href="#DejaVuSans-67"/>
       <use xlink:href="#DejaVuSans-73" transform="translate(63.476562 0)"/>
      </g>
     </g>
    </g>
    <g id="xtick_11">
     <g id="line2d_11">
      <g>
       <use xlink:href="#m6170e6f46a" x="583.399326" y="352.405938" style="stroke: #000000; stroke-width: 0.8"/>
      </g>
     </g>
     <g id="text_11">
      <!-- larsonN-sized -->
      <g transform="translate(534.192428 412.515182) rotate(-45) scale(0.1 -0.1)">
       <defs>
        <path id="DejaVuSans-7a" d="M 353 3500 
L 3084 3500 
L 3084 2975 
L 922 459 
L 3084 459 
L 3084 0 
L 275 0 
L 275 525 
L 2438 3041 
L 353 3041 
L 353 3500 
z
" transform="scale(0.015625)"/>
       </defs>
       <use xlink:href="#DejaVuSans-6c"/>
       <use xlink:href="#DejaVuSans-61" transform="translate(27.783203 0)"/>
       <use xlink:href="#DejaVuSans-72" transform="translate(89.0625 0)"/>
       <use xlink:href="#DejaVuSans-73" transform="translate(130.175781 0)"/>
       <use xlink:href="#DejaVuSans-6f" transform="translate(182.275391 0)"/>
       <use xlink:href="#DejaVuSans-6e" transform="translate(243.457031 0)"/>
       <use xlink:href="#DejaVuSans-4e" transform="translate(306.835938 0)"/>
       <use xlink:href="#DejaVuSans-2d" transform="translate(381.640625 0)"/>
       <use xlink:href="#DejaVuSans-73" transform="translate(417.724609 0)"/>
       <use xlink:href="#DejaVuSans-69" transform="translate(469.824219 0)"/>
       <use xlink:href="#DejaVuSans-7a" transform="translate(497.607422 0)"/>
       <use xlink:href="#DejaVuSans-65" transform="translate(550.097656 0)"/>
       <use xlink:href="#DejaVuSans-64" transform="translate(611.621094 0)"/>
      </g>
     </g>
    </g>
    <g id="xtick_12">
     <g id="line2d_12">
      <g>
       <use xlink:href="#m6170e6f46a" x="630.60654" y="352.405938" style="stroke: #000000; stroke-width: 0.8"/>
      </g>
     </g>
     <g id="text_12">
      <!-- lua -->
      <g transform="translate(618.357019 375.557804) rotate(-45) scale(0.1 -0.1)">
       <defs>
        <path id="DejaVuSans-75" d="M 544 1381 
L 544 3500 
L 1119 3500 
L 1119 1403 
Q 1119 906 1312 657 
Q 1506 409 1894 409 
Q 2359 409 2629 706 
Q 2900 1003 2900 1516 
L 2900 3500 
L 3475 3500 
L 3475 0 
L 2900 0 
L 2900 538 
Q 2691 219 2414 64 
Q 2138 -91 1772 -91 
Q 1169 -91 856 284 
Q 544 659 544 1381 
z
M 1991 3584 
L 1991 3584 
z
" transform="scale(0.015625)"/>
       </defs>
       <use xlink:href="#DejaVuSans-6c"/>
       <use xlink:href="#DejaVuSans-75" transform="translate(27.783203 0)"/>
       <use xlink:href="#DejaVuSans-61" transform="translate(91.162109 0)"/>
      </g>
     </g>
    </g>
    <g id="xtick_13">
     <g id="line2d_13">
      <g>
       <use xlink:href="#m6170e6f46a" x="677.813754" y="352.405938" style="stroke: #000000; stroke-width: 0.8"/>
      </g>
     </g>
     <g id="text_13">
      <!-- mstressN -->
      <g transform="translate(643.243966 397.878072) rotate(-45) scale(0.1 -0.1)">
       <use xlink:href="#DejaVuSans-6d"/>
       <use xlink:href="#DejaVuSans-73" transform="translate(97.412109 0)"/>
       <use xlink:href="#DejaVuSans-74" transform="translate(149.511719 0)"/>
       <use xlink:href="#DejaVuSans-72" transform="translate(188.720703 0)"/>
       <use xlink:href="#DejaVuSans-65" transform="translate(227.583984 0)"/>
       <use xlink:href="#DejaVuSans-73" transform="translate(289.107422 0)"/>
       <use xlink:href="#DejaVuSans-73" transform="translate(341.207031 0)"/>
       <use xlink:href="#DejaVuSans-4e" transform="translate(393.306641 0)"/>
      </g>
     </g>
    </g>
    <g id="xtick_14">
     <g id="line2d_14">
      <g>
       <use xlink:href="#m6170e6f46a" x="725.020968" y="352.405938" style="stroke: #000000; stroke-width: 0.8"/>
      </g>
     </g>
     <g id="text_14">
      <!-- rptestN -->
      <g transform="translate(697.285809 391.043443) rotate(-45) scale(0.1 -0.1)">
       <use xlink:href="#DejaVuSans-72"/>
       <use xlink:href="#DejaVuSans-70" transform="translate(41.113281 0)"/>
       <use xlink:href="#DejaVuSans-74" transform="translate(104.589844 0)"/>
       <use xlink:href="#DejaVuSans-65" transform="translate(143.798828 0)"/>
       <use xlink:href="#DejaVuSans-73" transform="translate(205.322266 0)"/>
       <use xlink:href="#DejaVuSans-74" transform="translate(257.421875 0)"/>
       <use xlink:href="#DejaVuSans-4e" transform="translate(296.630859 0)"/>
      </g>
     </g>
    </g>
    <g id="xtick_15">
     <g id="line2d_15">
      <g>
       <use xlink:href="#m6170e6f46a" x="772.228182" y="352.405938" style="stroke: #000000; stroke-width: 0.8"/>
      </g>
     </g>
     <g id="text_15">
      <!-- sh6benchN -->
      <g transform="translate(731.113237 404.423229) rotate(-45) scale(0.1 -0.1)">
       <defs>
        <path id="DejaVuSans-36" d="M 2113 2584 
Q 1688 2584 1439 2293 
Q 1191 2003 1191 1497 
Q 1191 994 1439 701 
Q 1688 409 2113 409 
Q 2538 409 2786 701 
Q 3034 994 3034 1497 
Q 3034 2003 2786 2293 
Q 2538 2584 2113 2584 
z
M 3366 4563 
L 3366 3988 
Q 3128 4100 2886 4159 
Q 2644 4219 2406 4219 
Q 1781 4219 1451 3797 
Q 1122 3375 1075 2522 
Q 1259 2794 1537 2939 
Q 1816 3084 2150 3084 
Q 2853 3084 3261 2657 
Q 3669 2231 3669 1497 
Q 3669 778 3244 343 
Q 2819 -91 2113 -91 
Q 1303 -91 875 529 
Q 447 1150 447 2328 
Q 447 3434 972 4092 
Q 1497 4750 2381 4750 
Q 2619 4750 2861 4703 
Q 3103 4656 3366 4563 
z
" transform="scale(0.015625)"/>
       </defs>
       <use xlink:href="#DejaVuSans-73"/>
       <use xlink:href="#DejaVuSans-68" transform="translate(52.099609 0)"/>
       <use xlink:href="#DejaVuSans-36" transform="translate(115.478516 0)"/>
       <use xlink:href="#DejaVuSans-62" transform="translate(179.101562 0)"/>
       <use xlink:href="#DejaVuSans-65" transform="translate(242.578125 0)"/>
       <use xlink:href="#DejaVuSans-6e" transform="translate(304.101562 0)"/>
       <use xlink:href="#DejaVuSans-63" transform="translate(367.480469 0)"/>
       <use xlink:href="#DejaVuSans-68" transform="translate(422.460938 0)"/>
       <use xlink:href="#DejaVuSans-4e" transform="translate(485.839844 0)"/>
      </g>
     </g>
    </g>
    <g id="xtick_16">
     <g id="line2d_16">
      <g>
       <use xlink:href="#m6170e6f46a" x="819.435396" y="352.405938" style="stroke: #000000; stroke-width: 0.8"/>
      </g>
     </g>
     <g id="text_16">
      <!-- sh8benchN -->
      <g transform="translate(778.320451 404.423229) rotate(-45) scale(0.1 -0.1)">
       <defs>
        <path id="DejaVuSans-38" d="M 2034 2216 
Q 1584 2216 1326 1975 
Q 1069 1734 1069 1313 
Q 1069 891 1326 650 
Q 1584 409 2034 409 
Q 2484 409 2743 651 
Q 3003 894 3003 1313 
Q 3003 1734 2745 1975 
Q 2488 2216 2034 2216 
z
M 1403 2484 
Q 997 2584 770 2862 
Q 544 3141 544 3541 
Q 544 4100 942 4425 
Q 1341 4750 2034 4750 
Q 2731 4750 3128 4425 
Q 3525 4100 3525 3541 
Q 3525 3141 3298 2862 
Q 3072 2584 2669 2484 
Q 3125 2378 3379 2068 
Q 3634 1759 3634 1313 
Q 3634 634 3220 271 
Q 2806 -91 2034 -91 
Q 1263 -91 848 271 
Q 434 634 434 1313 
Q 434 1759 690 2068 
Q 947 2378 1403 2484 
z
M 1172 3481 
Q 1172 3119 1398 2916 
Q 1625 2713 2034 2713 
Q 2441 2713 2670 2916 
Q 2900 3119 2900 3481 
Q 2900 3844 2670 4047 
Q 2441 4250 2034 4250 
Q 1625 4250 1398 4047 
Q 1172 3844 1172 3481 
z
" transform="scale(0.015625)"/>
       </defs>
       <use xlink:href="#DejaVuSans-73"/>
       <use xlink:href="#DejaVuSans-68" transform="translate(52.099609 0)"/>
       <use xlink:href="#DejaVuSans-38" transform="translate(115.478516 0)"/>
       <use xlink:href="#DejaVuSans-62" transform="translate(179.101562 0)"/>
       <use xlink:href="#DejaVuSans-65" transform="translate(242.578125 0)"/>
       <use xlink:href="#DejaVuSans-6e" transform="translate(304.101562 0)"/>
       <use xlink:href="#DejaVuSans-63" transform="translate(367.480469 0)"/>
       <use xlink:href="#DejaVuSans-68" transform="translate(422.460938 0)"/>
       <use xlink:href="#DejaVuSans-4e" transform="translate(485.839844 0)"/>
      </g>
     </g>
    </g>
    <g id="xtick_17">
     <g id="line2d_17">
      <g>
       <use xlink:href="#m6170e6f46a" x="866.64261" y="352.405938" style="stroke: #000000; stroke-width: 0.8"/>
      </g>
     </g>
     <g id="text_17">
      <!-- xmalloc-testN -->
      <g transform="translate(816.202694 413.748199) rotate(-45) scale(0.1 -0.1)">
       <defs>
        <path id="DejaVuSans-78" d="M 3513 3500 
L 2247 1797 
L 3578 0 
L 2900 0 
L 1881 1375 
L 863 0 
L 184 0 
L 1544 1831 
L 300 3500 
L 978 3500 
L 1906 2253 
L 2834 3500 
L 3513 3500 
z
" transform="scale(0.015625)"/>
       </defs>
       <use xlink:href="#DejaVuSans-78"/>
       <use xlink:href="#DejaVuSans-6d" transform="translate(59.179688 0)"/>
       <use xlink:href="#DejaVuSans-61" transform="translate(156.591797 0)"/>
       <use xlink:href="#DejaVuSans-6c" transform="translate(217.871094 0)"/>
       <use xlink:href="#DejaVuSans-6c" transform="translate(245.654297 0)"/>
       <use xlink:href="#DejaVuSans-6f" transform="translate(273.4375 0)"/>
       <use xlink:href="#DejaVuSans-63" transform="translate(334.619141 0)"/>
       <use xlink:href="#DejaVuSans-2d" transform="translate(389.599609 0)"/>
       <use xlink:href="#DejaVuSans-74" transform="translate(425.683594 0)"/>
       <use xlink:href="#DejaVuSans-65" transform="translate(464.892578 0)"/>
       <use xlink:href="#DejaVuSans-73" transform="translate(526.416016 0)"/>
       <use xlink:href="#DejaVuSans-74" transform="translate(578.515625 0)"/>
       <use xlink:href="#DejaVuSans-4e" transform="translate(617.724609 0)"/>
      </g>
     </g>
    </g>
   </g>
   <g id="matplotlib.axis_2">
    <g id="ytick_1">
     <g id="line2d_18">
      <defs>
       <path id="md4141bff9b" d="M 0 0 
L -3.5 0 
" style="stroke: #000000; stroke-width: 0.8"/>
      </defs>
      <g>
       <use xlink:href="#md4141bff9b" x="50.092685" y="223.489175" style="stroke: #000000; stroke-width: 0.8"/>
      </g>
     </g>
     <g id="text_18">
      <!-- $\mathdefault{10^{0}}$ -->
      <g transform="translate(25.492685 227.288394) scale(0.1 -0.1)">
       <defs>
        <path id="DejaVuSans-30" d="M 2034 4250 
Q 1547 4250 1301 3770 
Q 1056 3291 1056 2328 
Q 1056 1369 1301 889 
Q 1547 409 2034 409 
Q 2525 409 2770 889 
Q 3016 1369 3016 2328 
Q 3016 3291 2770 3770 
Q 2525 4250 2034 4250 
z
M 2034 4750 
Q 2819 4750 3233 4129 
Q 3647 3509 3647 2328 
Q 3647 1150 3233 529 
Q 2819 -91 2034 -91 
Q 1250 -91 836 529 
Q 422 1150 422 2328 
Q 422 3509 836 4129 
Q 1250 4750 2034 4750 
z
" transform="scale(0.015625)"/>
       </defs>
       <use xlink:href="#DejaVuSans-31" transform="translate(0 0.765625)"/>
       <use xlink:href="#DejaVuSans-30" transform="translate(63.623047 0.765625)"/>
       <use xlink:href="#DejaVuSans-30" transform="translate(128.203125 39.046875) scale(0.7)"/>
      </g>
     </g>
    </g>
    <g id="ytick_2">
     <g id="line2d_19">
      <g>
       <use xlink:href="#md4141bff9b" x="50.092685" y="70.251742" style="stroke: #000000; stroke-width: 0.8"/>
      </g>
     </g>
     <g id="text_19">
      <!-- $\mathdefault{10^{1}}$ -->
      <g transform="translate(25.492685 74.050961) scale(0.1 -0.1)">
       <use xlink:href="#DejaVuSans-31" transform="translate(0 0.684375)"/>
       <use xlink:href="#DejaVuSans-30" transform="translate(63.623047 0.684375)"/>
       <use xlink:href="#DejaVuSans-31" transform="translate(128.203125 38.965625) scale(0.7)"/>
      </g>
     </g>
    </g>
    <g id="ytick_3">
     <g id="line2d_20">
      <defs>
       <path id="m4a8c57c66c" d="M 0 0 
L -2 0 
" style="stroke: #000000; stroke-width: 0.6"/>
      </defs>
      <g>
       <use xlink:href="#m4a8c57c66c" x="50.092685" y="330.597544" style="stroke: #000000; stroke-width: 0.6"/>
      </g>
     </g>
    </g>
    <g id="ytick_4">
     <g id="line2d_21">
      <g>
       <use xlink:href="#m4a8c57c66c" x="50.092685" y="303.613772" style="stroke: #000000; stroke-width: 0.6"/>
      </g>
     </g>
    </g>
    <g id="ytick_5">
     <g id="line2d_22">
      <g>
       <use xlink:href="#m4a8c57c66c" x="50.092685" y="284.468481" style="stroke: #000000; stroke-width: 0.6"/>
      </g>
     </g>
    </g>
    <g id="ytick_6">
     <g id="line2d_23">
      <g>
       <use xlink:href="#m4a8c57c66c" x="50.092685" y="269.618239" style="stroke: #000000; stroke-width: 0.6"/>
      </g>
     </g>
    </g>
    <g id="ytick_7">
     <g id="line2d_24">
      <g>
       <use xlink:href="#m4a8c57c66c" x="50.092685" y="257.484708" style="stroke: #000000; stroke-width: 0.6"/>
      </g>
     </g>
    </g>
    <g id="ytick_8">
     <g id="line2d_25">
      <g>
       <use xlink:href="#m4a8c57c66c" x="50.092685" y="247.225954" style="stroke: #000000; stroke-width: 0.6"/>
      </g>
     </g>
    </g>
    <g id="ytick_9">
     <g id="line2d_26">
      <g>
       <use xlink:href="#m4a8c57c66c" x="50.092685" y="238.339417" style="stroke: #000000; stroke-width: 0.6"/>
      </g>
     </g>
    </g>
    <g id="ytick_10">
     <g id="line2d_27">
      <g>
       <use xlink:href="#m4a8c57c66c" x="50.092685" y="230.500935" style="stroke: #000000; stroke-width: 0.6"/>
      </g>
     </g>
    </g>
    <g id="ytick_11">
     <g id="line2d_28">
      <g>
       <use xlink:href="#m4a8c57c66c" x="50.092685" y="177.360111" style="stroke: #000000; stroke-width: 0.6"/>
      </g>
     </g>
    </g>
    <g id="ytick_12">
     <g id="line2d_29">
      <g>
       <use xlink:href="#m4a8c57c66c" x="50.092685" y="150.376339" style="stroke: #000000; stroke-width: 0.6"/>
      </g>
     </g>
    </g>
    <g id="ytick_13">
     <g id="line2d_30">
      <g>
       <use xlink:href="#m4a8c57c66c" x="50.092685" y="131.231047" style="stroke: #000000; stroke-width: 0.6"/>
      </g>
     </g>
    </g>
    <g id="ytick_14">
     <g id="line2d_31">
      <g>
       <use xlink:href="#m4a8c57c66c" x="50.092685" y="116.380806" style="stroke: #000000; stroke-width: 0.6"/>
      </g>
     </g>
    </g>
    <g id="ytick_15">
     <g id="line2d_32">
      <g>
       <use xlink:href="#m4a8c57c66c" x="50.092685" y="104.247275" style="stroke: #000000; stroke-width: 0.6"/>
      </g>
     </g>
    </g>
    <g id="ytick_16">
     <g id="line2d_33">
      <g>
       <use xlink:href="#m4a8c57c66c" x="50.092685" y="93.988521" style="stroke: #000000; stroke-width: 0.6"/>
      </g>
     </g>
    </g>
    <g id="ytick_17">
     <g id="line2d_34">
      <g>
       <use xlink:href="#m4a8c57c66c" x="50.092685" y="85.101983" style="stroke: #000000; stroke-width: 0.6"/>
      </g>
     </g>
    </g>
    <g id="ytick_18">
     <g id="line2d_35">
      <g>
       <use xlink:href="#m4a8c57c66c" x="50.092685" y="77.263502" style="stroke: #000000; stroke-width: 0.6"/>
      </g>
     </g>
    </g>
    <g id="text_20">
     <!-- Average Time (seconds, log scale) -->
     <g transform="translate(19.412997 275.2) rotate(-90) scale(0.1 -0.1)">
      <defs>
       <path id="DejaVuSans-41" d="M 2188 4044 
L 1331 1722 
L 3047 1722 
L 2188 4044 
z
M 1831 4666 
L 2547 4666 
L 4325 0 
L 3669 0 
L 3244 1197 
L 1141 1197 
L 716 0 
L 50 0 
L 1831 4666 
z
" transform="scale(0.015625)"/>
       <path id="DejaVuSans-76" d="M 191 3500 
L 800 3500 
L 1894 563 
L 2988 3500 
L 3597 3500 
L 2284 0 
L 1503 0 
L 191 3500 
z
" transform="scale(0.015625)"/>
       <path id="DejaVuSans-20" transform="scale(0.015625)"/>
       <path id="DejaVuSans-54" d="M -19 4666 
L 3928 4666 
L 3928 4134 
L 2272 4134 
L 2272 0 
L 1638 0 
L 1638 4134 
L -19 4134 
L -19 4666 
z
" transform="scale(0.015625)"/>
       <path id="DejaVuSans-28" d="M 1984 4856 
Q 1566 4138 1362 3434 
Q 1159 2731 1159 2009 
Q 1159 1288 1364 580 
Q 1569 -128 1984 -844 
L 1484 -844 
Q 1016 -109 783 600 
Q 550 1309 550 2009 
Q 550 2706 781 3412 
Q 1013 4119 1484 4856 
L 1984 4856 
z
" transform="scale(0.015625)"/>
       <path id="DejaVuSans-2c" d="M 750 794 
L 1409 794 
L 1409 256 
L 897 -744 
L 494 -744 
L 750 256 
L 750 794 
z
" transform="scale(0.015625)"/>
       <path id="DejaVuSans-29" d="M 513 4856 
L 1013 4856 
Q 1481 4119 1714 3412 
Q 1947 2706 1947 2009 
Q 1947 1309 1714 600 
Q 1481 -109 1013 -844 
L 513 -844 
Q 928 -128 1133 580 
Q 1338 1288 1338 2009 
Q 1338 2731 1133 3434 
Q 928 4138 513 4856 
z
" transform="scale(0.015625)"/>
      </defs>
      <use xlink:href="#DejaVuSans-41"/>
      <use xlink:href="#DejaVuSans-76" transform="translate(62.533203 0)"/>
      <use xlink:href="#DejaVuSans-65" transform="translate(121.712891 0)"/>
      <use xlink:href="#DejaVuSans-72" transform="translate(183.236328 0)"/>
      <use xlink:href="#DejaVuSans-61" transform="translate(224.349609 0)"/>
      <use xlink:href="#DejaVuSans-67" transform="translate(285.628906 0)"/>
      <use xlink:href="#DejaVuSans-65" transform="translate(349.105469 0)"/>
      <use xlink:href="#DejaVuSans-20" transform="translate(410.628906 0)"/>
      <use xlink:href="#DejaVuSans-54" transform="translate(442.416016 0)"/>
      <use xlink:href="#DejaVuSans-69" transform="translate(500.375 0)"/>
      <use xlink:href="#DejaVuSans-6d" transform="translate(528.158203 0)"/>
      <use xlink:href="#DejaVuSans-65" transform="translate(625.570312 0)"/>
      <use xlink:href="#DejaVuSans-20" transform="translate(687.09375 0)"/>
      <use xlink:href="#DejaVuSans-28" transform="translate(718.880859 0)"/>
      <use xlink:href="#DejaVuSans-73" transform="translate(757.894531 0)"/>
      <use xlink:href="#DejaVuSans-65" transform="translate(809.994141 0)"/>
      <use xlink:href="#DejaVuSans-63" transform="translate(871.517578 0)"/>
      <use xlink:href="#DejaVuSans-6f" transform="translate(926.498047 0)"/>
      <use xlink:href="#DejaVuSans-6e" transform="translate(987.679688 0)"/>
      <use xlink:href="#DejaVuSans-64" transform="translate(1051.058594 0)"/>
      <use xlink:href="#DejaVuSans-73" transform="translate(1114.535156 0)"/>
      <use xlink:href="#DejaVuSans-2c" transform="translate(1166.634766 0)"/>
      <use xlink:href="#DejaVuSans-20" transform="translate(1198.421875 0)"/>
      <use xlink:href="#DejaVuSans-6c" transform="translate(1230.208984 0)"/>
      <use xlink:href="#DejaVuSans-6f" transform="translate(1257.992188 0)"/>
      <use xlink:href="#DejaVuSans-67" transform="translate(1319.173828 0)"/>
      <use xlink:href="#DejaVuSans-20" transform="translate(1382.650391 0)"/>
      <use xlink:href="#DejaVuSans-73" transform="translate(1414.4375 0)"/>
      <use xlink:href="#DejaVuSans-63" transform="translate(1466.537109 0)"/>
      <use xlink:href="#DejaVuSans-61" transform="translate(1521.517578 0)"/>
      <use xlink:href="#DejaVuSans-6c" transform="translate(1582.796875 0)"/>
      <use xlink:href="#DejaVuSans-65" transform="translate(1610.580078 0)"/>
      <use xlink:href="#DejaVuSans-29" transform="translate(1672.103516 0)"/>
     </g>
    </g>
   </g>
   <g id="patch_76">
    <path d="M 50.092685 352.405938 
L 50.092685 26.88 
" style="fill: none; stroke: #000000; stroke-width: 0.8; stroke-linejoin: miter; stroke-linecap: square"/>
   </g>
   <g id="patch_77">
    <path d="M 922.482 352.405938 
L 922.482 26.88 
" style="fill: none; stroke: #000000; stroke-width: 0.8; stroke-linejoin: miter; stroke-linecap: square"/>
   </g>
   <g id="patch_78">
    <path d="M 50.092685 352.405938 
L 922.482 352.405938 
" style="fill: none; stroke: #000000; stroke-width: 0.8; stroke-linejoin: miter; stroke-linecap: square"/>
   </g>
   <g id="patch_79">
    <path d="M 50.092685 26.88 
L 922.482 26.88 
" style="fill: none; stroke: #000000; stroke-width: 0.8; stroke-linejoin: miter; stroke-linecap: square"/>
   </g>
   <g id="text_21">
    <!-- Average Execution Time per Benchmark -->
    <g transform="translate(365.756717 20.88) scale(0.12 -0.12)">
     <defs>
      <path id="DejaVuSans-45" d="M 628 4666 
L 3578 4666 
L 3578 4134 
L 1259 4134 
L 1259 2753 
L 3481 2753 
L 3481 2222 
L 1259 2222 
L 1259 531 
L 3634 531 
L 3634 0 
L 628 0 
L 628 4666 
z
" transform="scale(0.015625)"/>
      <path id="DejaVuSans-42" d="M 1259 2228 
L 1259 519 
L 2272 519 
Q 2781 519 3026 730 
Q 3272 941 3272 1375 
Q 3272 1813 3026 2020 
Q 2781 2228 2272 2228 
L 1259 2228 
z
M 1259 4147 
L 1259 2741 
L 2194 2741 
Q 2656 2741 2882 2914 
Q 3109 3088 3109 3444 
Q 3109 3797 2882 3972 
Q 2656 4147 2194 4147 
L 1259 4147 
z
M 628 4666 
L 2241 4666 
Q 2963 4666 3353 4366 
Q 3744 4066 3744 3513 
Q 3744 3084 3544 2831 
Q 3344 2578 2956 2516 
Q 3422 2416 3680 2098 
Q 3938 1781 3938 1306 
Q 3938 681 3513 340 
Q 3088 0 2303 0 
L 628 0 
L 628 4666 
z
" transform="scale(0.015625)"/>
      <path id="DejaVuSans-6b" d="M 581 4863 
L 1159 4863 
L 1159 1991 
L 2875 3500 
L 3609 3500 
L 1753 1863 
L 3688 0 
L 2938 0 
L 1159 1709 
L 1159 0 
L 581 0 
L 581 4863 
z
" transform="scale(0.015625)"/>
     </defs>
     <use xlink:href="#DejaVuSans-41"/>
     <use xlink:href="#DejaVuSans-76" transform="translate(62.533203 0)"/>
     <use xlink:href="#DejaVuSans-65" transform="translate(121.712891 0)"/>
     <use xlink:href="#DejaVuSans-72" transform="translate(183.236328 0)"/>
     <use xlink:href="#DejaVuSans-61" transform="translate(224.349609 0)"/>
     <use xlink:href="#DejaVuSans-67" transform="translate(285.628906 0)"/>
     <use xlink:href="#DejaVuSans-65" transform="translate(349.105469 0)"/>
     <use xlink:href="#DejaVuSans-20" transform="translate(410.628906 0)"/>
     <use xlink:href="#DejaVuSans-45" transform="translate(442.416016 0)"/>
     <use xlink:href="#DejaVuSans-78" transform="translate(505.599609 0)"/>
     <use xlink:href="#DejaVuSans-65" transform="translate(561.654297 0)"/>
     <use xlink:href="#DejaVuSans-63" transform="translate(623.177734 0)"/>
     <use xlink:href="#DejaVuSans-75" transform="translate(678.158203 0)"/>
     <use xlink:href="#DejaVuSans-74" transform="translate(741.537109 0)"/>
     <use xlink:href="#DejaVuSans-69" transform="translate(780.746094 0)"/>
     <use xlink:href="#DejaVuSans-6f" transform="translate(808.529297 0)"/>
     <use xlink:href="#DejaVuSans-6e" transform="translate(869.710938 0)"/>
     <use xlink:href="#DejaVuSans-20" transform="translate(933.089844 0)"/>
     <use xlink:href="#DejaVuSans-54" transform="translate(964.876953 0)"/>
     <use xlink:href="#DejaVuSans-69" transform="translate(1022.835938 0)"/>
     <use xlink:href="#DejaVuSans-6d" transform="translate(1050.619141 0)"/>
     <use xlink:href="#DejaVuSans-65" transform="translate(1148.03125 0)"/>
     <use xlink:href="#DejaVuSans-20" transform="translate(1209.554688 0)"/>
     <use xlink:href="#DejaVuSans-70" transform="translate(1241.341797 0)"/>
     <use xlink:href="#DejaVuSans-65" transform="translate(1304.818359 0)"/>
     <use xlink:href="#DejaVuSans-72" transform="translate(1366.341797 0)"/>
     <use xlink:href="#DejaVuSans-20" transform="translate(1407.455078 0)"/>
     <use xlink:href="#DejaVuSans-42" transform="translate(1439.242188 0)"/>
     <use xlink:href="#DejaVuSans-65" transform="translate(1507.845703 0)"/>
     <use xlink:href="#DejaVuSans-6e" transform="translate(1569.369141 0)"/>
     <use xlink:href="#DejaVuSans-63" transform="translate(1632.748047 0)"/>
     <use xlink:href="#DejaVuSans-68" transform="translate(1687.728516 0)"/>
     <use xlink:href="#DejaVuSans-6d" transform="translate(1751.107422 0)"/>
     <use xlink:href="#DejaVuSans-61" transform="translate(1848.519531 0)"/>
     <use xlink:href="#DejaVuSans-72" transform="translate(1909.798828 0)"/>
     <use xlink:href="#DejaVuSans-6b" transform="translate(1950.912109 0)"/>
    </g>
   </g>
   <g id="legend_1">
    <g id="patch_80">
     <path d="M 941.929786 242.516407 
L 1086.228224 242.516407 
Q 1088.228224 242.516407 1088.228224 240.516407 
L 1088.228224 138.769532 
Q 1088.228224 136.769532 1086.228224 136.769532 
L 941.929786 136.769532 
Q 939.929786 136.769532 939.929786 138.769532 
L 939.929786 240.516407 
Q 939.929786 242.516407 941.929786 242.516407 
z
" style="fill: #ffffff; opacity: 0.8; stroke: #cccccc; stroke-linejoin: miter"/>
    </g>
    <g id="patch_81">
     <path d="M 943.929786 148.367969 
L 963.929786 148.367969 
L 963.929786 141.367969 
L 943.929786 141.367969 
z
" style="fill: #1f77b4"/>
    </g>
    <g id="text_22">
     <!-- mi -->
     <g transform="translate(971.929786 148.367969) scale(0.1 -0.1)">
      <use xlink:href="#DejaVuSans-6d"/>
      <use xlink:href="#DejaVuSans-69" transform="translate(97.412109 0)"/>
     </g>
    </g>
    <g id="patch_82">
     <path d="M 943.929786 163.046094 
L 963.929786 163.046094 
L 963.929786 156.046094 
L 943.929786 156.046094 
z
" style="fill: #ff7f0e"/>
    </g>
    <g id="text_23">
     <!-- segpt-16 -->
     <g transform="translate(971.929786 163.046094) scale(0.1 -0.1)">
      <use xlink:href="#DejaVuSans-73"/>
      <use xlink:href="#DejaVuSans-65" transform="translate(52.099609 0)"/>
      <use xlink:href="#DejaVuSans-67" transform="translate(113.623047 0)"/>
      <use xlink:href="#DejaVuSans-70" transform="translate(177.099609 0)"/>
      <use xlink:href="#DejaVuSans-74" transform="translate(240.576172 0)"/>
      <use xlink:href="#DejaVuSans-2d" transform="translate(279.785156 0)"/>
      <use xlink:href="#DejaVuSans-31" transform="translate(315.869141 0)"/>
      <use xlink:href="#DejaVuSans-36" transform="translate(379.492188 0)"/>
     </g>
    </g>
    <g id="patch_83">
     <path d="M 943.929786 177.724219 
L 963.929786 177.724219 
L 963.929786 170.724219 
L 943.929786 170.724219 
z
" style="fill: #2ca02c"/>
    </g>
    <g id="text_24">
     <!-- strictseglocked-16 -->
     <g transform="translate(971.929786 177.724219) scale(0.1 -0.1)">
      <use xlink:href="#DejaVuSans-73"/>
      <use xlink:href="#DejaVuSans-74" transform="translate(52.099609 0)"/>
      <use xlink:href="#DejaVuSans-72" transform="translate(91.308594 0)"/>
      <use xlink:href="#DejaVuSans-69" transform="translate(132.421875 0)"/>
      <use xlink:href="#DejaVuSans-63" transform="translate(160.205078 0)"/>
      <use xlink:href="#DejaVuSans-74" transform="translate(215.185547 0)"/>
      <use xlink:href="#DejaVuSans-73" transform="translate(254.394531 0)"/>
      <use xlink:href="#DejaVuSans-65" transform="translate(306.494141 0)"/>
      <use xlink:href="#DejaVuSans-67" transform="translate(368.017578 0)"/>
      <use xlink:href="#DejaVuSans-6c" transform="translate(431.494141 0)"/>
      <use xlink:href="#DejaVuSans-6f" transform="translate(459.277344 0)"/>
      <use xlink:href="#DejaVuSans-63" transform="translate(520.458984 0)"/>
      <use xlink:href="#DejaVuSans-6b" transform="translate(575.439453 0)"/>
      <use xlink:href="#DejaVuSans-65" transform="translate(629.724609 0)"/>
      <use xlink:href="#DejaVuSans-64" transform="translate(691.248047 0)"/>
      <use xlink:href="#DejaVuSans-2d" transform="translate(754.724609 0)"/>
      <use xlink:href="#DejaVuSans-31" transform="translate(790.808594 0)"/>
      <use xlink:href="#DejaVuSans-36" transform="translate(854.431641 0)"/>
     </g>
    </g>
    <g id="patch_84">
     <path d="M 943.929786 192.402344 
L 963.929786 192.402344 
L 963.929786 185.402344 
L 943.929786 185.402344 
z
" style="fill: #d62728"/>
    </g>
    <g id="text_25">
     <!-- strictseglockedcustom -->
     <g transform="translate(971.929786 192.402344) scale(0.1 -0.1)">
      <use xlink:href="#DejaVuSans-73"/>
      <use xlink:href="#DejaVuSans-74" transform="translate(52.099609 0)"/>
      <use xlink:href="#DejaVuSans-72" transform="translate(91.308594 0)"/>
      <use xlink:href="#DejaVuSans-69" transform="translate(132.421875 0)"/>
      <use xlink:href="#DejaVuSans-63" transform="translate(160.205078 0)"/>
      <use xlink:href="#DejaVuSans-74" transform="translate(215.185547 0)"/>
      <use xlink:href="#DejaVuSans-73" transform="translate(254.394531 0)"/>
      <use xlink:href="#DejaVuSans-65" transform="translate(306.494141 0)"/>
      <use xlink:href="#DejaVuSans-67" transform="translate(368.017578 0)"/>
      <use xlink:href="#DejaVuSans-6c" transform="translate(431.494141 0)"/>
      <use xlink:href="#DejaVuSans-6f" transform="translate(459.277344 0)"/>
      <use xlink:href="#DejaVuSans-63" transform="translate(520.458984 0)"/>
      <use xlink:href="#DejaVuSans-6b" transform="translate(575.439453 0)"/>
      <use xlink:href="#DejaVuSans-65" transform="translate(629.724609 0)"/>
      <use xlink:href="#DejaVuSans-64" transform="translate(691.248047 0)"/>
      <use xlink:href="#DejaVuSans-63" transform="translate(754.724609 0)"/>
      <use xlink:href="#DejaVuSans-75" transform="translate(809.705078 0)"/>
      <use xlink:href="#DejaVuSans-73" transform="translate(873.083984 0)"/>
      <use xlink:href="#DejaVuSans-74" transform="translate(925.183594 0)"/>
      <use xlink:href="#DejaVuSans-6f" transform="translate(964.392578 0)"/>
      <use xlink:href="#DejaVuSans-6d" transform="translate(1025.574219 0)"/>
     </g>
    </g>
    <g id="patch_85">
     <path d="M 943.929786 207.080469 
L 963.929786 207.080469 
L 963.929786 200.080469 
L 943.929786 200.080469 
z
" style="fill: #9467bd"/>
    </g>
    <g id="text_26">
     <!-- strictsegpt-16 -->
     <g transform="translate(971.929786 207.080469) scale(0.1 -0.1)">
      <use xlink:href="#DejaVuSans-73"/>
      <use xlink:href="#DejaVuSans-74" transform="translate(52.099609 0)"/>
      <use xlink:href="#DejaVuSans-72" transform="translate(91.308594 0)"/>
      <use xlink:href="#DejaVuSans-69" transform="translate(132.421875 0)"/>
      <use xlink:href="#DejaVuSans-63" transform="translate(160.205078 0)"/>
      <use xlink:href="#DejaVuSans-74" transform="translate(215.185547 0)"/>
      <use xlink:href="#DejaVuSans-73" transform="translate(254.394531 0)"/>
      <use xlink:href="#DejaVuSans-65" transform="translate(306.494141 0)"/>
      <use xlink:href="#DejaVuSans-67" transform="translate(368.017578 0)"/>
      <use xlink:href="#DejaVuSans-70" transform="translate(431.494141 0)"/>
      <use xlink:href="#DejaVuSans-74" transform="translate(494.970703 0)"/>
      <use xlink:href="#DejaVuSans-2d" transform="translate(534.179688 0)"/>
      <use xlink:href="#DejaVuSans-31" transform="translate(570.263672 0)"/>
      <use xlink:href="#DejaVuSans-36" transform="translate(633.886719 0)"/>
     </g>
    </g>
    <g id="patch_86">
     <path d="M 943.929786 221.758594 
L 963.929786 221.758594 
L 963.929786 214.758594 
L 943.929786 214.758594 
z
" style="fill: #8c564b"/>
    </g>
    <g id="text_27">
     <!-- strictsegptcustom -->
     <g transform="translate(971.929786 221.758594) scale(0.1 -0.1)">
      <use xlink:href="#DejaVuSans-73"/>
      <use xlink:href="#DejaVuSans-74" transform="translate(52.099609 0)"/>
      <use xlink:href="#DejaVuSans-72" transform="translate(91.308594 0)"/>
      <use xlink:href="#DejaVuSans-69" transform="translate(132.421875 0)"/>
      <use xlink:href="#DejaVuSans-63" transform="translate(160.205078 0)"/>
      <use xlink:href="#DejaVuSans-74" transform="translate(215.185547 0)"/>
      <use xlink:href="#DejaVuSans-73" transform="translate(254.394531 0)"/>
      <use xlink:href="#DejaVuSans-65" transform="translate(306.494141 0)"/>
      <use xlink:href="#DejaVuSans-67" transform="translate(368.017578 0)"/>
      <use xlink:href="#DejaVuSans-70" transform="translate(431.494141 0)"/>
      <use xlink:href="#DejaVuSans-74" transform="translate(494.970703 0)"/>
      <use xlink:href="#DejaVuSans-63" transform="translate(534.179688 0)"/>
      <use xlink:href="#DejaVuSans-75" transform="translate(589.160156 0)"/>
      <use xlink:href="#DejaVuSans-73" transform="translate(652.539062 0)"/>
      <use xlink:href="#DejaVuSans-74" transform="translate(704.638672 0)"/>
      <use xlink:href="#DejaVuSans-6f" transform="translate(743.847656 0)"/>
      <use xlink:href="#DejaVuSans-6d" transform="translate(805.029297 0)"/>
     </g>
    </g>
    <g id="patch_87">
     <path d="M 943.929786 236.436719 
L 963.929786 236.436719 
L 963.929786 229.436719 
L 943.929786 229.436719 
z
" style="fill: #e377c2"/>
    </g>
    <g id="text_28">
     <!-- sys -->
     <g transform="translate(971.929786 236.436719) scale(0.1 -0.1)">
      <defs>
       <path id="DejaVuSans-79" d="M 2059 -325 
Q 1816 -950 1584 -1140 
Q 1353 -1331 966 -1331 
L 506 -1331 
L 506 -850 
L 844 -850 
Q 1081 -850 1212 -737 
Q 1344 -625 1503 -206 
L 1606 56 
L 191 3500 
L 800 3500 
L 1894 763 
L 2988 3500 
L 3597 3500 
L 2059 -325 
z
" transform="scale(0.015625)"/>
      </defs>
      <use xlink:href="#DejaVuSans-73"/>
      <use xlink:href="#DejaVuSans-79" transform="translate(52.099609 0)"/>
      <use xlink:href="#DejaVuSans-73" transform="translate(111.279297 0)"/>
     </g>
    </g>
   </g>
  </g>
 </g>
 <defs>
  <clipPath id="p912d75b2e8">
   <rect x="50.092685" y="26.88" width="872.389315" height="325.525938"/>
  </clipPath>
 </defs>
</svg>
